<mxfile host="app.diagrams.net" modified="2021-06-29T10:18:12.037Z" agent="5.0 (X11)" etag="C_1dRDjUFQpPQhJVK945" version="14.8.0" type="github">
  <diagram id="mBjBkKclHqLaOncko00A" name="Page-1">
    <mxGraphModel dx="1422" dy="767" grid="1" gridSize="10" guides="1" tooltips="1" connect="1" arrows="1" fold="1" page="1" pageScale="1" pageWidth="827" pageHeight="1169" math="0" shadow="0">
      <root>
        <mxCell id="0" />
        <mxCell id="1" parent="0" />
        <mxCell id="xIAo3yq6IOoFtiyd6Mqy-1" value="" style="shape=image;imageAspect=0;aspect=fixed;verticalLabelPosition=bottom;verticalAlign=top;image=data:image/png,iVBORw0KGgoAAAANSUhEUgAAAVYAAAGICAYAAAAam8jcAAAgAElEQVR4nOy9d3RjWX7fCVkNIj7gAXhIJEESYM4BzDmzSFYxswJzMRM5kSCRA0NVdZye2BodjbSSLO9IOmt512NblmzZ1sqStZYsezXHsiV7x6uzlmzZ0oxGk7q7vvsHitUVWFVMIEDy3nM+p4vsKvK+9MF99/5+v8tikUYaaaSRRhpppJFGGmmkkUYaaaS9qW1LOJkTBl6O+QFVdX9LUD1vF9bc3xDXry4Lsr0ugW7LzVW5Im8xNgdX4ZgRZNi7f1zl7GeJtztZlLeRxQrRiT4C0kgjjbRkaT/GElpbObqWdUH2wCZVd9slLDaHRa2zxiNpmjGJGqcsVM28k6pfcFB1913i2vktYcnGHq/Q/EBQZNwXFpvD/EKbl6peWBTVLs9R+qV5Tq5hTaAzTfFzjTe5udZWQennS1NUXyliUT+Tx2L9XHqiTwJppJFG2nm1H3tLPdUqzG9ZF+Y1GwTZA5t0/V27qHXWyC9d979SrsehacZEVS9uimvvb4n1C26xfnFbXHN/R1i55hPq1wLCitWgUL8WEFYafYKGaZtAP+8UVS6Y+VXzq4Ka9WlR9fpdcY3hDq9iYzIlzzLKyTH3vqUzNLOLHeUi3VdyWZqPslncX85ksb7GTfRJJI000kh70t5heKnDd4R5zYZDBNkDm3TDHeuhHPkVq54zyfUY8hU1TpvF+tVtcdWyR1i96n1K5Yrv2a/FVcseUeO0WdQ0Y3r2Z1BVy5uC8iW7sHJxnapaXBDWGSZ45ZZRqtQ1zC9w3OTmmNt4WnutQGcvFZdFtdLsL2pY6V9OY8m/pmKxWH8r0VeBNNJIuypN4FFys/vmnpWqMK/ZIMjqd9PNdy3PiatsZSeucj2mgOnmuxZx1aonNuJd9Qv1q35h5ZpPXLXoEVctesQ1Szti/eo2VTPvfFG+r4JfseoRlK85hGWrG1T52n26wTJKVTqGqGLXLX7h5sBbBcYGdo65MiXTViguM2lZmoepMSF/Xc5i/dO3En0ZSSONtGRp6juFnCev/i+Soruxc5SUqMrV7YTL9Tg0TpupuvsuYcV6UFRlCInKN8KiKkNIWLEeFOvn3OLa+S2qenGTqlty0Q2ztuMK+Egplxk9gtINh7BofY1bsT7N17sHOWXbNziFgZ63cr2tVL41X5xv0rJyzOmsvHcYVvpPSllZX6NZrI/ELBbrxxJ9G5BGGmnn036MK7Z0cfJajUdJVZjXbEjR9Bz96t80Y6LK1hI/cj0n6Oa7FnHt/Jao3BgWVa5FRZVrUVG5IRIT78Lm04W5+gUHXTdnPYuAj4JbaPTxio02fuHaEq90dVJUFe4TFEa7hTnRdkG6vVSiW81gFdrUrByznKV7IGZJf07EYv0KxWJ9XZjom4g00kh72iZT2OljS68S6iEcxczbr5IIVbm6LaqfNidaihfG4fSDfsVNlRn3BKWmA0Gp6YAqM+5RdVMuunbKTtfNWenGeQvdOG+5qH5xc80+Xu6GmVtonuNXbA4I8/c63tK81/JW6ucaWfwPK1m6VTErf5FiKV0CVvvXuCzWNzgs1tdTYpBGGmnn1DYkKcqxnTdJVZjXbGCrpt59cY71JbkmWnjJRuO0mW66ZxNU2PYFJeZHghLT24Jy20NRpT1KN92ziRqT58OIn2cP83JMdkGubYHKMd+i8j/fxEv7Uj2b/7NVLNb7JA6ZNNKO1ZRvK/iF7W8cqT4Vq3LqPbrpnu11DydVtbiZaEFcChpmY1EPTTMmUf20ma6bsdK1d+1UmXlPUGp+ICg3PBSUWg5E5bYI3XDn3KcbTkzTjEnUMGsUNk8bhI0zG8KW2XVh09yasGluTVg/u56Sa9riZ1tWefmW29yCnTae9sNaFvMlPUvwt8tYLBZZyCPtWrS/9eOS1cFXLVK9UqzyO+8fxrESuV6c0OiGWRvdMGuj6uccVN2US1i97hWVGXafUmmMCvUbgaQQ8BEI6uasoto5k7BmZkPcOLtCNSwsUnX371M1iwv80o1Vfo55MUVrnuDkmHv5BRG9QPtBGUv5kyWslK8VsFhvCxL9sJBG2vGaIlQmLJzfFRbO7wrz7+3yNUMRftZIiJsxGuBmjnuFeQ3GGM0GYV6DkZdbb+bl11nZ8jvvUw23Xcd5mKiapWP9PcI5UT9tPlxQo+ruu6jqhU1h5ZpPVG6IHC6+iapMIbrhjjWZph/ehKBuzirSL5iFNfc3xDWzK1T90ryodnlOVL0yK6pcmeVmW+d4ecZRQZ69m18eqRTmfKGYJfuogMX5eg6LxfrxRD9qpF2jxs+z1tCtM1ZZy4xJ1jJjkrXPG2UtMya6ecpCt85Yn8+Imt7ml016+aWTAV7a+hfpJmtY1LTlF7VsBkSNriDdvBUS6tf9wkqjT1xl9ohrjE+jA6jKFffT190keEivPU0zJqpuxSWuvb/19PrW3N8RVq97hRWrwafZbvp1P91813LZr5tAv+oUVS6ahdVLa1TN4oKgdu2euMZ0R1ixMcnLN0/wdbZBYYGtnZ9nraEK9vM4mo+yWeL/RctifT0j0c8oaZewUTpDM902bZa1zxuPTcuMSZBjfl8xsu2UjweMzzHpN8knAmbliM/KjHltshvRHVl3wEt3+fziutAjut4ZFTU5/JJml1fU6vRJWpweSYvTI2l0eCWNDq+4atkjrlnZEes33GL9hpuum7Mm+qG81ryY7fZCltthppu4ZmXnqGy3qwBVsbwpKl8y8auXl0TVK3eFNbYxSu8cocqsQwKdpYs6TA7JWy3gFr6TyUr7ajqL+YVUFutrKhaJQ76eTZjt6Hg6Uj2hWJlRj/0lsb4BSffutnzUb3nt33tGzJJ+n1vWHfXSvREf3RXw013egKjB4Rc1O32HiFvt2+JW+7a4ybYjbljbEetXt8X6NTdVvbpJ1a2QaYh4c5hufJxst7ol12WafjgrVMXqJq9kzcyvWFoWVCxNUXrnCFXpGOKXuAeF2Y4Ovs5eLdDZS0W6tVwm/0m2nuCryljGHmmXtnFyzL0nFmv7vFGQY35fOeKznlSsMblGtk/z747NpN+kHPFZmVGPnRncdtJduwG6PRqUdoZD0o5QRFTvCglrHUFhgzMgbHAGqBbj5nPULbmommUnVb/ooOoXHYl+OK8MjdNmqn7OIaxYD4rKN8KHiPXL289mulF1Sy669r79Ko5+T4KgdH2bV2owCUrXFyi9aYRf6unnFHv6BBnhLmGOvZiTY85m6dwZrMJVNSv9J6Us8ZckLNbXxbF4ZNIS2vh5pv6TSvVQrPKJgPm08pN0Rt1xles5iVkxsu2UdoZD0rZQWNoRjkhbQ1GR3hkW6Z1hYbUjKKx2BMWNRjfVvOp8jvoFB117304EcUKejH6puhnXS9lu+gX3i9lu5Ny+DFW1vCkoNGwJSzbWuSUbM/xqTz+nJNwjzI92vqV90CrOX9by0u1pLK1VyUq3S1k5Pydi5T/N1iNTF+fR+FrzrVOLddJvOovAJJ17ySvXM6Ic9VuYoR2HYtjtkrZFwuKW0J64JbQnbg4dUA3uA6rKuieqdEVElZthYY0zQDcsWJ/jSZYW3ThvEdUvXJtX52PTOG2mG+5YReW2yNNstwrTPlVm3BPXzm8lKtvtsiMstOwK8gzbwjyjkZu3Piuq8vRxC95re0vzXgtP+qV6VoFRxsoxi1hyg5ClX+Wzcr7B+SxjD6QC3GHj51iHTi3WcxCQpGvfk2gJJiUTATMz5rUpRradsqHNLXHz7oGkJfJQ0hR+RDeG3xGUmB8JSq0HosrNqKh8K/I04oKM4J7nFdluVJl9L9my3S47/DKjh5tn2+HkWteE+Zbb3LL3WnhpX6rny75Ww2J/vYJ1nUbDpxarzvLeWUes8vGAUT7iN4na930JF9llZyRiespYwCwfC5ilt7w2ZnDbKenf3JJ2BkJUS3ifagw/oJpDD8V1vkeCCtO+qNIeFZU7w3TD7Guz6K4kb8x2Mz8QVdqjly3eN2l5NmPv2Wy9prk1brbNy8m2mrg5phl+wfpNXs679XzN56tZ9NcqWKwvpyXakydup54K0FneO8sc64tSkLTueRMup+vIk/A46VDAKr0VsUlvRWzS4YBdOuCzM/0ep+TG9qakb8st63Lt0C2hCN0YjIqbA7tUg29fVGmMisqtYWGFJSjUWwNXcrR8RLabuGrR82K2m6jKFkrWbLdLT/20WVS/YBbWLRiEtXNrT7P1GhcXqJrFBV621cTNM86n6GxjnBxzL7/8w0pB+udLWdKfK2KxfjY/MWI97eKVzvLeaaMCjmQsYBa17PkTLhrCqcQsnwiYmZsRx1MGA06m3+OU9Li3noq5NRCim/xhusUXoRu9UVG5MSyqMoWEepNfqDf5qZplZ8If4tPSNGN6KdutetX7XLZbuTFMRr8Xj6BuwSqqnjcKa+fWqLr79+na5TlR48qsoG5thp9jXxLm22/z80z9VJ6hWVD6+VLW0/31PmJOLVZOjrn3NGLl6SzvniaO9bWM+MnI9bpxmFAy6rcwN/0OSV9kS9IX2ZL0B9ySXu+2pNO9LWnb2pF0bHpErZu+ZzP9hLWmoFC/7hdWm7ziKrNHrDcld0W1o7Ld9Ivbwur7VzLb7bIjqJuzCqqWbcKaBQO/dn5J0LA6JapevyuuMt7mVWxMpmSbRjhaY89b2Y5Ggc5eypF/MYfF2s9jsfbzYgkCpxFrjvmdIzOvzoisY29HPnIOc7eE68Gk36Qc9VsOw+NkN6I7sr6IR9YX8dC9fp+k2eU9RNRqf32mX61hK9EP85F7uz2b7fbkz+KqZY+4dn3rqma7XSaomnmnuGrZI6w1eMW1pi2xfnWbRekMzacSa571gazTE5fRpYTIlXCRHGb6jXrssr5dz7OZfqJWp+9ppl+Dwy9pcuw8zfJrsu2Im4w7Yv2aW1y7vkVVr25eWIH3phkTXTdjFVave9+Y7Va9vEmmH87vvIv1q9viupUdYa3BK6wx+MVNay5Zz7JR1rViOITFz7PWnEaswkLTrrg2uhuvm13SuueVj53T4hiBEE+ehMYxQzsOujfie5rl1xYK003esKjeFTrM8hM2231Uk8l1YZl+jdNmumHa9tzebuUb4Zh059zPZbvVk2SWZ6Eb5qxU3ZJLXHt/S1hlCIqqTSFRjc0v61wyPSvRo2Cl5JiLTizWlhmTsNAcpWrC+/G8YSVd+x4iV8KV58l0xlGZfuL20K5I74g8m+l3VJbfc5l+Jx2dHma71Uw7X8p2q1nauRbZboeLjw1LLqHe6BPpzVFx84b7xZHocWFxch5ln0qs+bYIVRc6iPdNJ+na9ZBpAQLh9TwrZrrL5xe3h3fFbeF9cXPogGr2PxRV2HYPM/2ohhXX85l+c89n+jW+ItPvddlu+oVtqv6e41JkuzXNmOjGeQtdP28XVZqjggrTPl2zGaW7F82nkejRYtVETyxWSr/qpFtnrBchVvk4yc4iEOLNUzEPu12yAef2s5l+oubQu4Jy20NBhW0/lunnejnTr3HaTDfftTyl6Z5NUGo9EJSYH1Flxndi/01gtlvTjEmo3wgIKixvixrNvuO8zp9JrCzxge7EYq1ZcV2kWOXjV7uuAIFw6Xgx02/Ub5EOe+zMLbdLMuhyU02RPao5dEA1hh+IG0KPBKXWA0GFaV9Qaj0Qlbl2xVWLnsNsN0Gp5UBQsvGIKjO8Iyg3PBRUGPfp+rsnn9J4ZmQtKrPsCsoND6kq5x7dsmyTda7HVaTnJ9a2aTNVG35wkRdT0rO7lfAbikAgnJ5Jv0k+6TfJR/2W5zL9hn12yY3tTUn35rasx+mhmv0HVGPwobjO/7a43vOOsGr7A36e/SN+geMr/ALHV/jFti/RtVN2UeusUVy16qGqjHvCGqOPal11SltWbaedG024WGUtM6aLFqt8PGCkm6OhhN8cBALh4nkmmUQ54rPSXR4/vzj0i3TrijWREj1arKxTiLVqcTNRYpWPBcySjr2dhF9kAoGQUCR9kS2qyv9RoiV6vmJtnzcmRKzjAaN81G+RdO/GdxcCAoGQnIz4TbIb0R35eMAoqnC/J21ZtSVapFdDrE9OLlnQIhCuGSN+k6wv8jRKiKqzHoibTK5Ei/TqiPUJkhvRzUT3gUAgXAyS/sBzgymqxrYvbjFuJlqkV06s8nEiVwLhOiAZePk5p2ps++JGw1aiRXqEWKPayy5W+TiRK4FwlZH0RY4MtaRqbPvi5g13okV61Ig16yqIVT6e5Du/EgiEUyHpf/VzTdXY9iUNq9uJFumziNo2zCwW6wuZV0Ws8lG/hSxoEQhXB9mN6GtLiNL1m1G61hZKtEyfhe5YtbBYrI8yroxYx58Uyk6CfhAIhLMhuxHdeVN1O7phK0LrLZFEy/QIsX5Rc5XEKh8nUwIEwqVnImA+arHqRZJYrF9PO7VYq0MPE34BXgGRK4FweXndvOqz0HXuMK23hhNdG+AIsbJ+TFyx6jmNWAVFtrgWuj4rZFqAQLh8HGZVHQe6zh0WVVuC8S4DeBKeLF6xWMKKde9pxMorsl5Y2cDTIunaJbVcCYTLwIjfJOs72fNKN26H6K77FnGjKWliWUUt66YrL1b5eMAoajnwk10ICIQkZsRvont3fSf9d5JGl5fuXjSLm41JE8sqal81nkqs4ur7W5dJrPLxgFHUskfkSiAkIyMRE9215z/NvxV3WlyyrhWDpMGQNLGsoo4Vw7URq3w8YKQbdsOJ7gOBQHgeSb//1AXspe1Wp6xrxSBp2thJtFAPkXRurJ9OrJUL7ssoVvl4wMj07roS3QcCgRCDGYyc6XmUdtkcsq4Vg6Te6Em0UA8Rd2ysXjuxykf8JrLFC4GQeCR9ka2zTs8lpVg7jcunEquwxBS6tGIdD8RSX4lcCYSEIemLbMlH/Zaz/pzDqQBRjcmfaKESsY4HjPLRCNmFgEBIAJLeyLZ8NHJmqcrHPxuxJpdYV6+xWMcDRulQwEoytAiEi0PSH3VLhwLW8/p5n4nV6ku0UJ+KteWJWE+aeSUsNoavgljl44dyJRWxCISLQNIbOde3xM/mWG3eZMm++kys5Wvu6ypW+XggNudKCmUTCHHlpFlVx+GpWGvtHrp70ZxoqT4nVqpsxXUasSZ7rYATMeq3ML1nC/0gEAhHc9oEgDdxKFa6e9EsqbUnRWSAuH1ticVisViCqmXbtRfreMAoajwIkuwsAuEcGfGb6Pa9YLx+/qFYZZ1LJkm9zZtoqT4nVlH5kuk0YhUW2PcSfuHOGVHjQVA2mvh+EAiXHdlowEi3H8RNqvLxZ8TalTwLWE/FKq5aXDmVWIs3o4m+ePGAyJVAOBsxqcZvpHqItMOYdGKVtq4vslgsFouuXJk9nVjdVzb3XtQSnzkhAuE6cJb8/5Mgbd54RqzJEctKFW+5YyPWWtMkEesRN0frnjfRfSAQLhuSgejmecaqvo5nxSqpNyfF4hW/aNPzJEHgdGKl6tau/Co62YWAQDg+FylV+fiLYk2OegGfibXSMHEasdKtKxd2AhN6s5DUVwLhjUj6IlvSWxHbRf7O58SaJKUDPxNrGRHrG28aIlcC4ZVc9Ej1kOfEmiTFrqkC1w6LxWKxeESsx4IUyiYQXkYyEN2U3vJf6Ej1kGfFKm42upMhrVVQ4HTGxJpPxHqsizgUsDL9AWei+0EgJBOn2avqvHhOrI2mrWRIa+XluyxErCdl1G9hbkYcCe8HgZAE0B0JDEuc9JukbQb7U6l1Lpkk9Y6EZ18Ji1xrpxPrk7KB11KsT5AOXuwkPYGQTMhGA0ZpRzSS0H5MBMwvilVUY0l4LCtV4Jw/uVhbZkxErDGkA1F7ovtAIFw0SSHV8YBROeKzPifWrhWDqM4cSLRYefm2iVOJlV9kCBKxBozysYCZTAsQrhvSzmgo0X2QjweMzKjHnoxi5RSYe2NiLbaOH1esdNu0mYj1mZtsKGBl+qNkQYtwLUjkQtWLKEa2ndIWo+05sVabgokWK6/s3fqYWAtsY8cVK1W/6KDqFxxErJ8hHQpYSS1XwlWHGQw4ExVWdRR0ZzQo61x/LrwqGbKveGm7T8RaYhk9rljF1UtbdPOUhYj1eSRd+x75JKnlSriaMINRp3Q4kFRrCuL28K6sZ9n4nFgb1hOeJMBT7tfFdhAodI6cSKxt02Yi1pch2VmEqwhzK+JKNqnKxwNGcUto70WpiZs33IkWK0u0WxsTa6lr+CRilbXMmIhYj0ZCirYQrhDMYNSZrAu04rbw/ktibTRtvTiKvXCx8t+piYm12H3r2GKtXHETsb4eUm6QcBWQDgfsyThSPUTcHDp4Sawt5s1EZ1+xWAd6FovFYnGyrH0nEuthhAAR6ysRtRyQQtmES4t0OGC/6EpVJ+UosUqbNxzS1lVnYsX6YWVMrDnm3isr1lG/RdYd9Uq7AyFRo+FzYnXo25JWy9t0b8QnGQjEdctrumE3TLZ4IVxGkiVW9XUcJVZZ55KJrnWFEivW9yuurljHAmaqZusjNhNEXcki2irm0Fk1j+xsC9hMAFy5HylMALyM6P8Vz9cdumEvQuRKuCzIRgNGcXt0N9H9OA7i5tCDl8TWs2yk9Y5IYsX61bKrKdaJgJmtiHy3NH8NHZWzYDNBuAd74L3VDUvfAJrLFzFYO42plnGwmSDYTPgTTurBH8arP4kqN8j0GMMc1dv/ha0I/TVbuf9n/MLQLyf82hCSGmnHXsJTVY/LkWLtWjEkXqw/XXw2sTbPWxJ9cl9EOeq3sFWR/9ZYtvBYk2lHChPAfNso+mtmIFJ5wKS5Mdc2BkX6JngKH3hyH8TqHbCZ8GOOOvqf4tWvi9qcUNKy+TZbFfhzUe36pykq7+PYB8ezhD7lqCP/j2zQ5U70tSIkF3TXbiDRfTgJrxRrjT2aKKnSTUYbi/W24GxibZhLqhFrTKqhP0/LtCMvx4QP71Vhsmkc1cUr4Mr9+MK9OmTrrNjovol7LRO42zyJknwDxhomwVP4wGaC4KSH/zgegf7SwYgtrqmvEwEzNz34LVH16lOZKiYmIR+6B+bmNES1GxAU2kA3LUNYZgG/wPaYpw39TqKv2VmgKkNf5aTv/QE3PfgfKZ31D9hM+GNuuv+PeRkPf5cZ8yb1wkuykUypqsclGUesVOOGg3XYropYOanhb7GZILr1tyFNdWO0YRIcuR/+4VbUly5htOEuMrIckKW5IU3dRl/1LDKzbOirnn46osvIskLU4H4/Hv2TDkTtcYkJnAiYOenh/yCqXf2UX2iFqHodVIUR4oZVCIpsYDNBCMssEJabwdyaAlVhAkezDWG58TEvK/QvE33dToqgIvQznNTQ/8tmgkhVOsFmgqDkHvRmzj+9jjxF6Ps8XeSfyycC5kT3N9mR9e16Et2H0/AqsSYyrfXKiVVQEfoZNhNEdfEC2iumMdE4gr1RPXr0U9gc7EJT2SKayhbRq5/B7aZRdFXNYLxxHE1lC6gtWYJWawGbCaKtYhJsxd734tVP5mbEcd51BThp4T9iM0FwM9yQ9U9BPXcTGbZ2UPoN8AvtUExOgqoyghmYATMwA3HjKiSd8+BmuMFmguBmR34t0dfvuKRlOP9zlsqKivRVUHIP2EwQpWlG0IodVKVvIFdthVK5BYVyC2qlC1qt7ZvKUX/STVkdyaTfxM89+N85md5/rcp68F02E/khmwk/ZjPRH7EVu38jzYl8U6QPf+nc78ckTQB4E68Sq7hldZOI9ZzgaHz/LjPLhLRMKzKzrJhqGURf9V18eK8Mk02jECi9mG27BU2WHakZDrCZILK0Vuh0Fpj6OiBS7YBWu1GctwJ5lvXb0jZ/3BaczvNmFjWEPoiNSNdBN82Cm7kJSr8KUc060hb7IawwQtozD162C7xcJ3jZm6AqTRA3rEBctwxR3TLYcv9jSX8g6edchSXuXxAptj9uzpiHTm1BmsqBGs0K2jPvozVjCT2ZC5jPGUdhqhndmQvIVNmRp7Z+zEkL//tkH7mKW0J7vEzv77KZIFLksVG3MisKoTqEoZ4PoMiKPh2Nc9SRPzmP42FuRhzMrTgWD5r0mwSlD3+KKj34WWFJ+O8Ii0L/q7B09+cEpQ9/SjniO7M7qPrtI8UqbV1PWBzrlRMrW7H7N5LUTZQXzGFrUI+huiGIVDvor7mNvup7EKu3MVw/gZcXc4Lo1d9BfckcpKlbqCuZA612QVDh+6l49pe5GXGcR6Fsfq7z9yj9EiSddyDtvgtmYBzq2R7w822QdCyAX2gD3XofdPMiqJo1cHUu8PNt4GpdkA+PgapaBy/HDH6B51cSfQ1fh0jv/WIKE/hUrnBBJN9BSdoGRrS3cUc3jpI0A0RyDyZ1d9GoWYFQ7kW9ZhXj2tsoSjUihQlArtn5o0Qfw6sQtwd2hWmh77OZILILImAzQTAZYWhyolBpo5BqwqiseghpehhCVQjitMgn6qLdb55FrtLhgJ0ZjNOc/6TfRFWFPmIr9r/LZoJQZ8UGMtL0baizXLHnTrH7A0GF76fOsp5B6e0vx7F2xZIEEpXWGlu8OhSr1thz6cXKRH/UXDaOLO0GuqomcafpBiw3WnGzbgzVxfcx1jiC0oLVI8XaWjGNTK0Zow3dyMlei31f+fAv4t1n6WDEJh04fQytctRvYTNBcDQucLPsoKqWIW6aBzdzCxmWJvALLeBqN0FVbYCX6wC/0Pr0mLlaF/h5dlDlq+BotsBmgpD0e7cSfR1feX0Vge9oVSY0ambQoJlDe8Y0ujPvQa7Ywm3dJAazpnFLOw2d2gqJYhsyhRt8xoc0pRNZaitkii2Imt3vJvo4jryGiuj3xGkBiFNDKCnbxdiNd1BYsoecwj0oMiPo63gP8owodAV7qKh8AGVWBJqcKNiq6F+cRkzSWxFb3GK3J/0mXk7gNzhyPxjNJrhyP9hMENpcG9RZLhQUmqHK2gSbCUKW7oZYt/NH4vbwqeJmXynWNoOd7rpvSWu+NcAAACAASURBVIhYG9asT8UqzDd1Xn6xhh8rNbF5Ukq1DUW6HVqtCUV5q0hhAtBkWZGlNR8p1kOEym0M1PYjPXMNbEX0+xfRb+mg3yYfjZxqDpCre/fX2EwQovo7oFvGoJ5tBj/PDEn7FNhKH1JSdyCuXYb85gQ4mu3njpVunoe4YSH2tdwPrs4ISfPuw0Rfx6OQtLre1qgM6Mi8gzSVDXWa+7ipHUd7xgxGteO4kXUPlNyDolQjWjIW0J4xBzYThEZlB4fxQ/BkLpaTGvhWoo/lRXgZkX8l1vh/yFUE0VgfBJ0WRHnFHthMEMN974LJCIOnCEKgCkGWEYFaG5sSkKTHvs9RHPx/J/qdo35LPBNiuNmhXxep3eArvWA0m9DobODI/UjX2VFZvgZx6g5y8q0oKTZCo3NAlr4FNhP90WlG368Ua4vRJm1bsl+kUA8RNW6Yn4qVm2VuO7ZY9cvbSSrWj7v0baDVTnTrb2Kwtg8LHa2YbetAV9U4BmrGkZNtOFKoHLkf+qJZVBbdRVnBFJSaVbCZ8McX1v+xgFk6FDjxueRl7f8WmwmCbh2BoGgDwtI1SNpvQz40DGnnXbAVfggr1iHtif35ueOWB0A3zT6R7ATYch9E9aGkG9HJxwNGtmL3exzGizrNJHSqNazlNaEkdQVsJoja9CV0ZM6CVmyjJWMeXMb30vUtS1uGSukAm4l8kuhjeRb6htMXe+33oqkhgPLKIPo7o2htjCAjN4LMvCjUuiiaGh6ioHgPuvwo5JlhqHVh5BZFwVfF4pKZW/5jz5NKh31xkypPG/odRmP5hM0EIVB6wGYC6GiYhiTNjbKSNbCZANK1TigyYjHkhYUmiNRPPvSUkf960t/3KrHGsq9cCQm5EjWvGZ6KldIZmi+9WBXR77OZAMoKJzHfXouakjtIYfzgKbzo0d8ER+5HY9kUygvmX3rwCnOX0FYxBo7cB478yYMp3//2RfZfXLt34tchTmbo9zmpNohqRsCW+0A3jUFUexfS3mEoxrrB0WxC0n4PXJ3jtSN1jmYTbCYAUV0oLmFmZ+FwuoPNBNGkGYNGZURnxgQmdDdQkbaE/qwJlKUtoz/rNniMD2wm8NLxUfId6FSxKR7FsDtpdnrgZIZ+X5q+CWWWF6k6H3jKIFRZQaQwQfS0HyC3KIqWxn2wmSBU2vDTRa2YjENgM0HoCoLgKN/7j8f5fdLWSDRe6dWyQZdbmWl8LFRtISd/FaUl8ygtXkLtk8zH3qYpFBUZUFRkQEa2Hbn5RnCf+bBP19oeywdtJ6oK91qx1jgTkiQgaTKsPRUrL8tad9nFyk0P/AmbCUKg2EZTWS+K826jOP8eVror0F45BK7ci279MNQZVjSVjSM90xib+9Gt4WZdL5g0G+RpFlDKLQiUWxDk7/z9iz4GUeNB8CR/n5e19y9jEQF3ISybhbTnBgSFa6DbJyBunEJK6jYEhUZI2ifBlvtfFk7VwhOxOsBWeJJyxCrrjnrZTBApjA9KZazOg1SxCZ16A1LFFgpS15DCBKBTHz3Nw2N84DNe8Bhv7Ousg99O9DEdwpZH/lKR6YRU40VBiRutTT60NvrBUwShyAqCUodAqUPQ5EbAVz5/XCptCBm5odio9RjrAdLOaCieNSs4Gt+/i9Xg8IHROCBJ28Jo5wDUWTYUFq2hsGgd2lwz1FkOFBatIzPHAq7CB86z96Ui9Ncn+Z2vFGvXikFcZdtNhFjF7WtLT8XKzlyvPLZYK5Z2klGsvMz935SmmaHVTaE4/zY69a3orGqFSmPGQF0zMrJWkaldgUjlRn3pJKqL76Ag9z6qi29DlmaGSOWCSOWCVncHPMU2hDV7X0jEcYja94+dAXM4x8ovuA9h6RT4+evgZjiQotqBfLgVVMU8OOlbENVPg5O+9dyDmaLeBi/PCLbSA2H5JDgaMyQN0UeJvo4vQvdGfDGx+tGe2Qou40F1+h0MZXUiV72GkrRF6NQGMIpN1GtmwWFe/gBhM0HQithqNEd18CeJPqZD2Ezkh6LUHTQ2OCDP9CItO4DmBj8UmUGM9UdRVhEGVxEEV3H0m4ZKeyik168H0B3xT6dmM9EfpWpnwVfuoKG6H3KNDVXlU+AqfFBkOKHOsoNS7yBdZwNf6X3uOPhK7xPBhj49SRgipXe8VOg60WKl243zT8WakmkrPK5Y+RUGbzKKVTnis7KZyA+FShfSs+5DmmpDVXEvOHIfxhr14Mq9KMqbQG7OXSjS15HC+KDVTYFW21FSMAiB0o0M7QIolR1sxe7fJDLuUdJ1vEwYZsxrS0l1POZq18DVroDSj0BUPwBh+T3w8zcgKFoGN9MKqnIWVOUchCVLsYiALBtENffAz1sGJ8MKTmZs0U92w5d0ux8wN/2Op1M2qXegVBoxnV2LdJUBHMaH8rQp0HIXZAoXWjNuvyTWsrRZVKXfg0IZe0NJphoJbCb8mKfYQWaePTZNkeWFJmcHQnUAFVV+0OkBCFQBaHJi0wPPyygAtdb/ZOoj8qNX/Y6LyKpiRj322Cr/OtK0a8jKWYJQtY3i4nmUlcyipnIGmTlGcOR+FBetQKjaeWmNg80EIddYHzODgWOHgFG1zpe2ZnkquARNBVBNz4iVW/hO5rHFWrQefCrW5nlLMm2gx80O/WM2E0SmdhZClQv9tXmQpZkgT9+ASOVAb7UeGVn3kZ87isK8YZQUDEKRvo5M7Qw4ci/4Cje4cg8kLTtvJ/pYjrvFCzfH+oecdCsERZMQFN8BR2MHL3cFKambkPU1gJe9AVHNAFJU20hJdSMlNZZtxUm3giofhqDoLjipVnCz/b+e6GN+FWwm/DGbCSJNuQxK7kSqag1laWMoTJ1GV2Y/RHI3uIwXBan3ka1eQY56CUqlBXKFDVKFE7TCCZHcFVt9ToLjefa4RKmb0OTYoczaQnOjA0VlW+DIA6DUASi1fnDkARSU+JGZ9/JIXKZ58j35g7866ufLbkQv5IOSXxz6RTYTBFexhXTdHCRpsSkbbe4i0nVr0OWuIjXLDDYTgEb36sgcabr98UkW4l4nVkm9OSFprc+LVXt6sSZVumAsZ/6PpakW5GTfQX7uGNhMAGmZC0/kGVuYytJNQalZQ0HeCNhMEGmZ96HT3X4yBxf4rYQfx+GDcQy5UlXhr7CV2485aTbwspeQkuoEVdsGUW07BEWxsCNh2ST4+bPg5SwgRbUFXvYiuNlLSFG5wVbsgM34H8v6/EmbL87N2f0Hqaq5x2rlIjSqGeSl3kFx2jgKUu+Akm+iK6MNeeppZKnmkKVahUppgUppRqpyAxmqBfCY2AiJkxb5ZqKP5VnYir3v8VWxKRqVzgVZxg4y8mzgK32o1LuQV+xGarYHGbk+MBl+UOrP5CpKjf1Zne0AR/Hen75071yQVOXjAaN80OZlM0FI0haRpp2HNucOVFkGFBXdQZp2HepMC2IhWB6osixHROX4wJV7IdNYTjRiFVdvvfJ1X9y04kqIWOufESuLPoNYzyE17VyZCJg5aaE/YjNBpGcuQKVZQpZuCk3ltcjJHkeW9g6qi1sgSTUhS3cHivQ1lBf2gM2EH/OyQv9nwvv/AscZuXLU0f+UkuoA3aJHSqoT/IK74OUsgJe9CF72EgTFd8DNXAe/aAKiulZwMzfAy50DV3c/9mGii/xmoo/zTbAVscykHPU4JAozxHIbctTjyFLfg1Y9D4F8C1r1NGSKDXCZHSiVy5AqTJAoTE9enXd+qBjZjl91sVPAyQz9vlRjhThtE0qtGSqtHaUVqygqW4co1QepZgeU2gt5phviND9SdTuQZ3ogfCJYgSpW7pLucz5X7o+56Xcwg3FMVT3q+jChT6Xp86DUDmiyp0GnOZBXcA9sJgB11gYKCqeg0a2C0djBVz4/FRD7+uRzrHSd+5Wv+9K29YTEsdLN5rnPxMo9vViZoZ3kK+AwETBz0nf/zeErpFC5iRTGh/ycW8jPHQJPsQ2xyo6i/EFw5L5P2Uzw42QuofemBS3lqN/CSY38KS93/hNOuhX8gqnYSCDDAK52FSlpNvDy74Gt2EFKqiOG2gE2E36cbKO4V8HT7v0zNhN+LFbYwCgMyFZPoCB1EDXpjVAql6FT30O2+i6UykUwig1kqqagUi6DlluefHh4fzfRx/AiimG3S6je/jS2EGWCJmcdApUHal1sxVyTa4dauwml1g7uYVlLhQ88pQd85Q6kGhfY8sh3nv2Z0qGANa75/6+ArYr+T67CDb5yE5k5tyDXrKCyvA0Z2VOQplvBVXiQkT0HrsIDeYYVjMYCueaFaYEXjuVN0DU74VeKtWXVloi01nMTazLFBb6IctRv4agO/iQm2PDTOqUilfVx7OvIJ2xV6M9PGj930UgHIzbpLf9r64s+KfD9F7Fj9CNFtYUUtQtc7Qr4JcPgZsbiODnaZXAy15CSZn/MSQ//h0Qf20ngaML/NoXxf6pSLkOjmoGA2QSH8UKuXAOP2UYK4wMtt4DDeMFmAkhhfEhhfGArQn+ddG9WT+Bmh/5xCuN/nML4kaozglK7UVQ2hezC+0jPWYMiy4a0HDMEqm0wGVYwmVbwlB6kyP1gM4FPmFHPZwH/o35LIqQqHw8YOZnh36PUZnDkHiizpqHNvQll5hLSdVNgM35k5EyBr3RDkbEMjtwbu0cZH7gK9xOxhh/L++0nmo563aiUbl2zJiKtlW62zH4mVtaDjNOIVdS4aJbc2NxO9M15XJgeY1hQufkzybQyfOybaDBik4+9OVJB1Oj+gK0Ifp+TYXjMVuw8PhTt07jOnNkfsFW+P5PfdCRdBMBx4GsDv334IckoVpGumkZZWieUymUUp3VBqx6DWG6BRnXvMDby+8kq1UPY8ui32UwQeUULEKdtgkp1gyP3QaaxPVkXCICn3IEsw4oUuR9U6ibodPvj57YTGguYmZv+hL09MmNeG1sR+YE8Yw4cuQeU2gKuwo2iojooMuaQpp0Am/EjK2cMHLkHHMUOmPRFMOmLseukCv6Pk/7ON4lV2nb/wqcDzkWssvZ5I1W3f5DoG/O6cOy01xG/iRkMOCUdG4/Y8v1vsxXR7/GLPP+bbGB75ySLA8kK3ecMsBV730th/JAojKDk1qcjVDYTBJfZAa3YAL/Y+0unSRW+aJhBn5PNRH8kSbcjhfFDqY2lXmfmLUKRZQKTYQKTaUJsPtYBSbodnLTIv3/u3ohj/v9xkfU6vLHogB1k5/VBkTkHkdoCnsKNVO0kOPIdsJkA5BlzYDQL4Mg9EKpsYDOhTyU3dk48QKPb16yvlFzPspGqfHWca7yQNJpmzkes1clZuOOqIh0KWOXJFImRKCb9Jll31Msv9vwiW/7gf/Ll7o/Ziv3vClXB/y7t8IfjmRMfD5ibEQe/xPtLbCaIFLkPssOCQmoHuArPkw8OP9iKyPfF7a4HT//tiN/E3PQmzToHNzf6j8Rp5u+ymQB4ii0oMmZiMboZs0jVToBSmyFQxeJ2ecpNsJnIJ3TX9qkSGOiu9de+6lOVr87MiheiVvP0uYhVXJt82TpXHelAwH4ZRmKEk8Pc8rqEJe5fYMsf/E82E/khV+X7YYpi9y8FBe5/KKoPvfti4grdvhdMtu3V6c7tIFux+zexDwkvJGmx+X1GM4WUw9RixdZjTmboX0s7wqfeFfa1I9auFQOldxxZCDue8Is3l89HrPrI24m+kNcRpj/qlA5GyIZ51xhZ917yLrpOBMxU5d5XBQXuf8iWH3yHzUQ+EaUZfiBOt/0VXb76S+K20P5Zf0cyjliFhY6NcxJr+J2EX8RrCtMfdV7W/YoIZ0N243iZeVeZN4q1+tWZWRck1nc1RKyXE6Y34jrLLgSEy4ekd/fSROLEkzeJNRFRAS+I9cP004pVVJ18peauG8dJfSVcDYhUP+ONYm1Ztl24WPOd68+I9ctpRKyXG0nXftLm+hPOB9mN6E4yFT1KNG8Sq6xz3XTRYuUX2peeEevnU4lYLz8nqeVKuGSMBcyS/uilS2yJJ8cS6wWntXILN59JaWV9TUXEejWgm6OhRPeBcM6M+E2SgcBmwvuRZLxRrO2rRrp94bUhWeeNoGDz3jNiDb3FLzb6iFgvP7LRgJFu2A0nuh+E8+MqZMvFg+OIVdq5eKHzrLxc5xjr2faiMI+kZcbEL90IELEmNzG57p068JqQPJBwuldDd6y+scgKVbl5obGs/Dxn/ynFavATsV4ORC0Hcd/riBA/yEj19RxLrBXOhxcpVm7RZsuJxUq3TZuJWC8XktYkzs4hHM1YwCzpD5CFqjdwHLGKq1xvX6RY6YpHFScXa/OUhV9s9hGxXi6OuzkhITmQdUfJh+ExSMYRKzvrFGIVV65v081TFiLWy4XkRnRTOvj6QtmE5ICEVB2fZJxjZadFyk8u1opVD902bSZivXxIena3SNGW5IZI9WQcR6zSzkUb3bZhviixsgR7ZacSq6xlxkTEejmR3IhuknKDyYmkN0JSVU/IccRKd923XKxYH5Sei1h52XZSj/USIbkR3TzOFi+Ei+NCt6q+Kkz6TccRq6xrxXDcv3cuYmXtlZxYrMKKde+L3+PlWt5O+EkmnAimP+okck0OZN17XpL/fwom/abjjkTp1pULy75isT4sImK9xkgHoqTUYBIg6YtsJboPlxHlqP/Yr/jS5kVH4sRaZnhJmkSsVxtSxzWxSAaiJP//lDBj3mMvStF6Z/jixPql/OfESpWubxOxXj+YQb9LPkJeRS/+vEdcie7DZYYZ2nEcV6xUtf3CdhJgsX4+93mxlqy4iFivJ6L2XVJu8AIhr/9nRzHsdh1brJW2C9kGm24y2lisj8TPiVVUsmEmYr2+kOysC4DUVD03xO3R3eMK76LESjWYXKwXm7B8fY2I9Xoj6SbbfsSNsYCZhFWdH+K28LFlSVXb9y6i4PWRYhWVLc8RsRKIXON0XkkCwLkibg4dO1WVrtmMJkysdJ1rmIiVIB8nmxOeN2RO9fwRN4cfHFus7QtWaZsh7ju2HilWqpSIlfAZZM71nM4jkWp8zmtL6NhVq+iu+5YLEWvjhoOIlfBGRC17pFD2GSBzqvHjJGKVda0YpM0bcU8SiEUFvCjWfOsQESvhWWSjAaOobT+Q6H5cRmQ3ojskPjh+SJpCj04k1tZ1Z9zF2rxuOT+xkiIsVxrmZsShHPVbEt2Py4Sse88rJ+csrpxUrOKW1c14i1XUYDS+JFZ+zmnF6niY6JNMiC9ML8kSOglkXvUCzvEJxSqqMwfiLVZJk2HtZbFqTinWPMeDRJ9kwgXcyD27W+TV9hjnqW+XSPUizvMJxUrrHZF4i5VqXV88nVhL13wvfS/HuZfok0y4oJu5Z3eLvOK+5vyQrKqLO9dJKFa62TJ7biNWYb47muiTTLjAG7pzz03k+gIjfpOsj4SnXSTJKFZJo2nm/MSaux1J9EkmXPBN3b27TbZ4ecJYwEx2Vb14xHW+k4m11hWKd/bV0WLVum6dZipA1jJjko9EyNzbNUPSvbtNRq4Bo7QtEk50H64jJ93WWlJv89Jta3Hd+0pSd5RYMxw3TzNiJWK9vki6d7ev8xYvzC0SLZEoTipWuuu+RdpqiGssq6jGMP2yWHXuQSJWwkmRdF/P4iIkpCqxnFSsss4lk7jJ5IqnWAXnLtZrPGq59oz4TZLWvWs1xyjpi5DQswRzYrF2rRjiLtYG69TLYs309J9KrO3zRiLWa86I33Rd6gpIeq/39EeycCqxNhq2LlysnCxPHxEr4dSMBcxXfeQquxHdIQt2ycGpxNq84Y6rWGtt914SK6VzNxOxEs7EFZarpD/qlg75SIhZknAasYpqzL54ilVUZ7l7xByrvZqIlXBmRvymq1jLlewAkFxQesexC10fQtfaQnEdsZa4jgi3ImIlnCOSzr0rk95JsqqSD6rSeeytWS5KrFSxY4GIlRB3JJ2XPHd+xG+SdV/NqY3LDlXpOvHOq0SshKvBRMB8aUsOjvhNdNcuKfKdpFDV7r0Tz4FWW4KyziUTESvh0iPp2vdcuvtjxG+iu8jOCckMXbMTPan4JLV2D92xaombWAuc80SshAtD0rF3qbYpkXaGQ4nuA+HVyEYDRrrWc+LXerrrvkXcbIxbyJUgf+uozCsiVkL8uCxbaksGApuX6UPgWjISMdHtK9YTy69n2RhPsQrzHHeIWAkXjqQnuavrSwaim+RevgSMREx01+le6SUNhu14iZVX4BwjYiUkBMmN6Gai+3Bkv/p2t0iN2UvCSMREd5+uBKCk3uiJl1j5BY6bRKyEhJFsco1lVRGpXhpGIiZZ5/qpVvfjKVZBoav7JbGyc4xVrxVry4xJXLHqIWIlnAfJkkBARqqXkLGA+bQjVlGNyR8vsVIFroaXxZprqCBiJVwkkvY9b0IXiib9JmYw4Ez0eSCckLGA+bQj1niKVVK2V/KSWAU6e+nrxEo3T1nEZWs7RKyE8ySRhbLJXlWXlDOJ1Rq3QizC7CPEmpJhLnqtWOvn7VTV8iYRK+G8YXp3LzQ7SzYaMJIEgEtMsopVFSl+SaxUgTHvdWLlVxi8dNu0mYiVEA8uakFLNhow0u17wUQfL+EMnEGsknqbN15prSzpEWIV55u0bxKrrGXGRMRKiBfxXtCSjZJdVa8EZxFrg22H7rgfl7RWVsr7hS+JVV7zSPVasZZu+IhYCXFlxG+SdO/Gbc6VvP5fEc4gVrp70SxpsMclSYDFeqfgJbGytHtKIlZCwhkLmONRKJvuil6LPbmuBWcQq6xn2Shpsu3ER6wP818Wq+INYi1f9b/q/xGxEs6VsYBZco61BZhbEZf0lt+W8OMinA9nEWvXikFSb41LkgCL9YW8l8UqIGIlJBGjfouka//MI1dmkEj1ynFWsTZavPER60/mvCxWFhErIbmQDgTs8snTJxAwgxGXdDhgT/RxEM6ZpBXrz+uIWAmXgtPOtzK3iFSvLEkoVrrVZGWxPmKOEOvbCiJWQjIiat/3nST1lRmMOkn+/xXmjGIVNZ7/NtjiGtP2EVIlYiUkN6KWPf9x5crc9DsS3V9CHEnCxav4iHXUb0n4ySZceWJyjbxWrtLOKNlW5apzXcQqHfKR1y7ChfCqaQHZaMAobo/uJrp/1x3pUMDKDAac0ralMFv56M9SlOHvsxW73+Mo3vtTcYd5TzLg22QGA86zLEqeWaxNth26e/FUZQcvVqy3vCSchXBhSFr3XqpKJW3bvfSpqsoRn1Vc7/wiR/XoW2x55C/Z8shfclSPvkXpt35CMbKd9OUNuTmRf8JmAj9iM4HHb8lCf5nC+B8XF62itXYKrTXTKC5ae1xeuvR4sHXye3nFq/+dmx/6B6f6XaN+y5nE2mDfprvON62VqjZvnrtYmZs7ZE6LcKFQ1etf4ajf/iZHvf8ttir8FxzVwX9OUb/3f8sHrL4zjYYuGMXNrU2OcvdP2UzkkxS5/xMq1f84LTuE+to99LQd4EbHAdJzoo+7W/cf19ftfirLCn+bq9v71UT3+1l4GXu/U1Sy9J3svDVUlc+iomwR6TobhtrGodFZUV81j7baaVSXL0Gcug2ewgeRegdFRRufshXhH/B0u//iJL9POuSzytpXjaeVIN29aD7vKldUjcH5CrF+KD+1WG+5L7TsG+ENTPpN0l5DkKd58K84mvAfcjTRf8vLfPu3pH0mv/ISz4dzs/d/rSxr7b+ymdCnQpXnhylS/+Oa9GUMae9gNnsITZrFT9szZh8v5dx43KaZ/zgry2kVlvl/PtH9fhWSMv+vlJSHPs7KC6CyMoT8kiiGeh6ipHwXBSVRNDfso7F+H6Xle6DTQuArg8griqK5IfopWxH6a552758l9BhuOna46f4/ZjPhx5K0TSgzHLjVNo6ZGwMoLl7DXP8AuuqnUFOxiuqKVdztncBY1x0UFpmgyNjEYOs9dDfOgs0EwVaE/4YZO96br3TYYz+LWGU9y0ZRjeVcC17TDUbbuYtVMuhKim02Xofi5tYmP/fB3+Nkhn+Ppz345/JBm/cyS+ZFmDGvjZcZ/l22Ivp9NhMEmwlCUGiBrPceZAN3IGmfA1W19lg+PApJx8zHbHn0rziZ4d+TDTgTVmj62PTbPem59t+WKrY+uZk1hr7MaQxr72AsaxJdGTMY105gVDuJ/qwpyBRbyFabkaGywV3QgpbMuW9qNbb/wi8M/XLCj+MJXN3BP2LLI9+hUoMfi1ID6Gg5wPzo2+htP8DSxDsY6XsIcWoINdUPMXbjAyyOfwGl5Q+gy99De/PbGOp9D4WlB0+EFP2epH/nYne/nfSb+FmBf0OnutBaO/xYlu5Adp4RjdWzaKqew83WCUjS3GiuXsCdngmsDg2hv2UG8wOjqNevYH5wFO31C+ion0dv0wyqyldRr1+AINV7rGNhbu44ziTWrhWDqM4cOE+ximoNpleI9R3mtGKlanf3En2zvoi42X3AzfH+kwyd83+wmcgnbCaI0vx1TLUMo0c/jdL8tccf3Cl7v7Jo/Uds1e5/4+UEfoOfe/Arl+k1Uj4eMDKjHjs3O/TrnKztH9CtMx9T1WugmxbBy3FC2jMF5tYEZDfugm6fA7/ACnH9IiTtM1CMDIPpnwS/wPyYp/P+jrRrO5LoYznqAeZlBX5LrnBCn37/cW36MgKFLbitG8duUSMChS0oVJvQnzGLldwReAt7MZ09CZ3ahs7MBcxkj2MqewJ9mdMxCSmjf5boD1NudujXM3P9n+j1XohSg6iq2kVnywEmBx6huGwXPW0PMTnwAUxTX8LoE6kujn8Bo30fYLz/c2hpfBt9He9icfzz0ORE0d36EFRa9Ad0l+fCisyImt3vpjB+FBXNoaxkFvVVs7jX14+xriGUlayAp/BBoPQiJ8+KpuoldNQv4E7PJGorV5CdZ8XtnknU6VegynRBo3OAzQTR1TCFstK1xxx54BO6Z+e1VcgkA1ubZxZr3YzBPAAAIABJREFUtSl4nmIV1hrWXiHWn5GdWqz6yEHCH8In0PWBdzhZ/t+rKl7+QV7OBkryNlBZuIr+mruYaR3CdOsQ7jSNoiDXiB79PUw0jqK5bA5zbYPQai0Qpwb/RlgS/YVEP4BvQjnqt/BL3L9MlVq+w8t1fixpn0OGtRWK8VFot+uRutAPSccc5MO3wdy6B+XkJOjmFfByXODnOyDrm4G0YwEpqR6kqD1ISfV8X1jq/tWk+WCZ9JvURfZvjGpvftKcMY2ezCms5/YjUNiCway7mM4exVLuCPaL27GSO4L9wg78RHk95rMn8KikDfdzRrGSO4zdojbMZY9hIXsIRalGsBWRv0rUteXmB76h1vo/qaj0obwigOHeAyyMPUJX6z4EqiBSmCDyi/fR3/ke7tz8HFZvfwEdLe8gK28P98e+gNEbH0CtjaKj5R3o9Q9Bp4XR0vAA9bUH4CujP6J7vHEviyhtC4bZTPhjWboTHfU3wWgcqNfPobF6Fq21U2ivu4e2ulnk5JnQoF/EZPdtzN4YQ33VCsSpO1BkbKGldhET3XfAZoJoq7uP/pYZUGoPWutmUVhoAJsJfyzri7wy447u3Tnz/Oh5j1ipRsPCK8T6dSFVs+w8lVhrwg8S/SCK6iPvyrM3/0CV6fx+ltYK240uLHUM4m8v5mGxYxCLHYNY77qB202T6NHPQau1gc0EIU/bwmjDHax2DaCragr1JfNor5z9QUGe+a9klTs/LZ9IzuQHbo7/m1Tt/U8ExWYwN+4i09EEjbkN8uEJqOcHoJ4ZRoalB6qpMWSHG6H1tkA9OwL1zChU0yNQzw1B52sEc/Me0pb7IKpZh7DU9EOeLvCbCZfrpN/E5G/9WkvWvR8olS4EixrxsKQGhrweiOU74DJ+DGTNIFzUifdLm/BhaSNuZs3Am98Lf2EPPl/aiOaMZbjy+7CRewtD2iksZA/BkteLnsyZx2xF5HvSYd+FprsK8gL/RwoTQGWVDw11PtTU7KKjZR+1tbuoqdlDW9MDSNLDqKw6wOL4F3D35udQXf0QMk0ElDqEKv1DTA58iNqaR2isexvtze8gVRdFXtEupofeBZMRBlux97143q/S7kCIr976AaOxQJO9Ao7cDzp1Cw36WdztHcBg6zhutU9gYXAQzTXzmB8YREf9LJpqllCvX8bSrWFM3xjHUPs9LN0ahiRtG4qMLdwfHEFWjg0zN4ahy7WAUu+Al+v5jVfdh1RTZO+sIpQ0rJ9rTVZpq/XOK8TKYgkLN6KvFutK4JVirQo9TOSDKG1zPVKkb37KU/jQrZ/GLyzl4e3JGuyP1eGDu1WYaR1Dj34ef2epFN8w5OPvrhVi+2YPFjtGYO27gS9PV+PvrefjYLwZs21DKCtYh0rjwHT74Cc8beC3Ey6aFxDV73yOrl34rqhmGZmOemQ66iG7cReimlVwNNvI2mxHdqgR2aFGqGdHkOHohGpmBFnbbch0dUA+cgfa7RbIb91DprMdGfZWZLqaIe2aA5sJgpcV/q2EHfOk38TNDfxqXuoabmYNYSm3H9b8LozpxtGbOYXytDUolZuYzxmDOe8mhrXTaMtYRI7aCkruRZ7KiuaMZYjkHrCZIGrS15CntoDD+LGYcwvvFtfGpgWYyA+ZW94LWXSlqsJf4SoCkGd6kCIPQKAKoql+DwtjjzAz/BBdrQ+wMvk+2pseYHniPXS0PMLYjQ/Q3PA2xvs/h6lbH2Jy4HMwTX0ZdbWPINNEMDMc+96tnnfQ2foIAlUITEYQ0qLQ34/XcXBzfP80XTeH9roOZGQvIztvFWOd3ehpHAKd6kZOngm3e0awMDiInsYpzPXfxHjXGCRp20hhAuhsmMfcwCj6W2bQ2bCAgdZpFBaZ0KhfQmqWE/MDt5BfaIQkbQuKLOcPBBWhrx15PptDB8kmVnHTacVaYfAmpVjbXQ8aymb+uqV8Fh/eK4O5rwvv39Gjq2oWo/V38OXpWnzDkI9vGPIRGu7ENwz58A914e+uFeLhRAt+er4cX52twkczevzEjB5fnKrE11fy8Ll7VWDStpCutfxIXWT7F8kiV7px+x2OZusx3TKF1IVepG+0QXbjDjgZbqSkeSAfuof/n703D240PRP7pioBT5AEcd83QNwEL4AgQYAED/Amwfu+mlfzvm+AZ/f0zEgaSauVV1mtdrXeir3rbFy2UyqfiddxlROnyjnWR1K2N+XYG6+d2M5KuyuNpOlf/uBoJI2me6bZZHfPNP74FWuqB+D7fvjw4/s97/s8jzg2hShyD3n3ENrFZoT+FUThWRTDveRX3EcgPUVYskJe2RICeZLC2imk7UMYtsMIfSsIpCly7Af/4GXMOduc+ntqxRodpg7kim3ajIO85angTXcFw5Zu3vEEmbO1c+EKc9/ezhc9YRbtnUxbezh0NvHIXcu7njBezTJm1QbnzjrecYcJ6ubYsMe5Z20nQ5oioh8lV3bywztPf+1PrgjkD/8kFNykMrhJrjLFQPspocozdNYzXN5Lhju+wFz/u8Rr32Ku/10mE19CbrggT33OSOdXWRr+Ou0N7zLT+zUqKt4mUv0OVZXv0Nn4LrP9X2Go411ylWeYis4o8lz8QOi+vPWTEKLY3mmm8uDPtOZ5vJ4+/N5eemINtEWaKfGNUaDex2BZoaJkguqKcWoCE9RWjhEJTjDd3k6wbIZocIr60CTV5fcQSE+JV4/jdi9T5FglR3FCsHQGs22N6vJx7I77CORXf/px92Be1fmj5xZh1crerYq18oZiFfrnXzmxSuL7R0HvxPd0xg2+OeHgW5MOTrtCCKSnZMqSVHrnOGhv5Den/HxpoIrBcD8XiVpmY138+mQpJ531NJVN8CujZQxU9yOQnjIW6eK0K0zUP8lSUzMC6Skmy/IPM3Xn/8vLmOPPIq4/uhBIT5E0d5GhOqKwduJarK2D6FZiyDoH0C42YtyrxXxahTlVTUHlAtKWMSRtY1jOqzCfVSGQpSism8FyVoVisA9J8yiS5lF0q7UU1k1QEJqioGrsvZyi/f/xhX6erXuHLvXk4xFLJQ71AmOWJopUS8zb4rQbB/miJ8C73gAD5l7e9QQ4cUbJlR0zZB7kz/kq+UZxJQnTML/sCzFrTTBoHqTHNMxXPFU0GSb4qidAt2mILOkJ1boJBs3t5Pl3//xdzim3+OqbucokHt8OJaU7NERT9Led0lh3Sp76FKn+FIvjgoHWL1AXfkRfyxcIV73F/OBXKS9/k1DwbSoDb9PR+GWM9geUlr5Fd/zLdDa+i9H+gEDFI0Y638XqvMLqvCBXeYpA/vBPbnseQtfRbwukp1jtE0SDMaz2OaLBHqLBHnpiDVSVDdMbayEaGGSwMU6o7DpuOt7acS3W0hn6GnrpiQ3SExtEY9qkpaYPv+8ejVWD+DxzmG1ryPU7WO3LNIf7rk+2eB59+6NjyQufvfXcIqxZ3ZU0zj7XBtjPvV/FDcVa4J89euK/lZ+//aIlI4nvH0l1ez/oCHbSHhygpniCpcZGWgND1JeOMxDu5Xdm3fyVBSe/O+/mSwNVeB1LZMqSTNUm+OZ4GU1lE2TJTthpifMXZrzMxzoRSE8ZqO7ht2ftvDtYjtu+SNAzScAz/n6m9vSfv+h5/gRFIrmWZdr9bkHlAALpKdKOPoy7QfSbIZSj7ZiOQigGEhgPQ2iX6sm27pAfWsB0WIPlrArlaAJzMoxuOY64aRJZ5zC6lSaM+1H063UfvL4Hcd0IysFmVKONZFs3Hr/I41jZlqO/nzDVPlYpVrlnjXHkLGPRFiFDmiJbesKirYV3PQHihjEuXWHGLd00GibQKrdpNk5w5Izz0F3HtLWHBVs3ldp5HrkjDJkHKNUusGxr+VCsXs0CZZp7CKTnj6WJozuLtwpkD/9jrjJJLLKO03NER9MpxSWndDefUl5+RmfjFY3RSxLxKxTGM1TmC+YGvsL84FcxFl0x3v1l+lu/wsLgL2N3PUSoOkOkOSdbcYpYd47OeklbwxcIhx7QEnuI3XWJQHpKTtHDv3yr81Bc/DuB9JR81TaZshMKVPvEKrtJ1DUQq+ympaaLwcY4dZX9dEQ7aK3pptg7S0XJNOX+WSZbO+it76U71k91xSSDjR34PHPUBkfwuOfJVx3SWdeNwbKGwrBNvuoAgfQUUfje+EfHcltivc3sq4LizYHPvFgVieSaQHrxY6HikBz5MQ96A/zGlJ29tijfmvSw0dzAtybdvN0fZLGhg18armQ21sVvTJbwlaEQXxkK8Z2lIvbbmkiEhmkqm+C/uV/Er46VcdJRy29NuxmNJChQHvK1YQeD4Q42m6vpq27+x7L2rVtrGfIsFNasfbWwrv2xQJZEM1uFZi5EtnWTHPsm+rVaTEchlGMdGHbD6FZrkXUMUlg3jaxzGNNhBHOqGuVoD8rhHkzHNRTWzqCe7kC32oRmtgXdcgPS1mFE1dNI4gNI4v2IY8NkaZP/4kXMT9K5u6dXLr9fpeshqh9g31FOk7GPblMHw+YO3OoFjp2VdJt6EckPGDb38lVPgBNHHWv2ZgbNA7zrDdNvHiRXdoxSsYtIeoBeuYVcsYdGsc077hBtxmEMynUeugPolRvky/bJ9Z/9wqroNsj1PPq2QJqiuGQLn3+HbEWKtsZT+ttOaak/pb3hkrGuB4RD1z9jNZcUuS8R686Z7PkynU1fZLz7y3Q1fRGL4wGdjW/j8V1RU/UQjeWCltgjWuvfpKryAd7iS0LBBxRormOtUuPZv73N71uG7PCxTD+L3xf+4InwhJpgIw7nJNnyYypKxuirb6a/IU5p8SRlxdOMxFtoi/TQVdeNw3mfXOUxNRXjVJRM43EvINXuYrKufihRh3ORlpoeCtT7CKSnhCt6r8MBdyBWUXRmtbBy69bqsmb71/s/82KVRDa/0lLe/r7NushBezn91Z1Ueaf56nApvzNn5zxRzddGSviLs3aiJZPkK4/40kDVh7HWndY431kqYqO5mYvuWt7sreGgvZE/P1XM10bK+K8X7MzUdSCQnjIXa2S6rolfGbXTVDaIzjbz71+0VBWJ5FqG8viHhZFupB3taOYrKYwNIixepLBuFEnLIMqRTqTtQ8i6+tEtNWA+DiFuGEe72IJmvhVFfx+i8BwF1fMY92sRlqxgOqwhp2iL/MACuuUGCmunkMSHUI62kKXfI0N1SI59/X3JC0gAydSd/q9m1TzNhmbq9AN0mzrYKQowbmni0l3OPVsTB84qLt3lhPUTBLRzXLoifNkTpM/Uzxc9lYxbexmx9BM3jDJna2W7KEaFZpbtonrMyjUi+in0yg2K1MucuyoRyffJlJ4g12//n3cxpxzP8X8l1u3i8s4hkKawug4pcqfQ21Pkq0/pbblirOsBXU1XxGouqQpeMZF4G2/xFR2Nb2EquiJU+Raxmkd4fFcMd7yD3HCO3XVJnuqMjsa3GO54hMF2QaT6CpXpFKXpFLf3OkFE3r63exvzEHqvfitLvkORsxmDZYBCzSbF3l4aqqM0VEfxesaIh1uIBBK43TMIlUdYi5bob2hnJN6C3zfLSLyFIsd9AqVTNIcHyFcfojZt8pNkFoH0lAxpiuryUcr8E1yfk51CID1//NGTDgWhs7efW4aNs8v55Wu3dpY1u2Sj72Zi9c0dvgpiVSSSa0LV4XfL3SOcdhXzVp8Th23hw0f4X5vw8MsjJczVt7HdWs83xvwIpKcsNbaxHm/ly4MhvjYcZK+tib22RvZam/jz08W801/NRSLKWjzO/cZWxqNd2C0r7LfV4LIvMh5pocQ5iUB6/kIfj2W9qeW88v1fKYx1vZ9fPkZh3SCKgUaUQw2oxhqR93agXQyjXaghv2KWHMcm5uMQ5uMQBVWzaBeb0K83YDoOI/SvkGPfQtHfhUB6iiQ+TEFollz3Gpp7Lci6exE3jmDYDJHjXKegcpgc2yoC5dm/u+s5CqQX73k13UjkmygVm8zZalmzVxE3DnDpLufSXU7CnODSXc6ktY0+cw9dpn7mbW1MWbv5qidAk2GcSt09vuAJENLN8KY7SIHskAbdGG7NfbrNvdTpRxHJDvBoFmkw9COW72LTLPypsPzsl257TrnO7V+TG7ewuRYQqpLY3fs01m5QGdjGVJQkVHlCRcUpVucZBepT6iMPmep5h5HOt6mpeshQx9vorRe01r/FePcXsDkvsTovPxSRSHOGx3eJxnJOOHSJRH+K03NKbfgUofKYLMsXvnMb88ixPfqrAukpFnsXHk8dSuMisapanK5hGqqj1FV20lVXTzzcTIlvBJ15mcaqBLHKXipLR9GY15HpdigvmWKwqZVIcASna/HnpHot1iR+3xSN1d3kKI4JlnagNc8//uhT4q2ItX5uSRTYOEuL9ScXNXD0dY9j5od+5zTJLj8LDRFiJcNM1zaz1xpms7mW444IBcpDfn3Sy+/O22koHSfZGeW3pov5+kiA8WgPmbIkbYFRylwLVPnuMRTuQ6bZY7q2k9+ZK2I00k1LxSC/Nu5gtzWKWr/OXH2QqL/v+rzgCxSrQP7ge0LPPQTyJOrpMLqlCsSNA+jXKtEth5D3tmPYDCBt6yO/fJ7CukmMe9WoxjowbEdQz7Qi6xpAM9dAfmAO/WYVAukputUIQs8KioEOcr3LyPs7EdVMIevoRVi8QH5gkhznffIrx394l/OT9hxv5Ml2KNc2IZZvEzc002Wsx6uZxKuZp9PUw6q9lh5zN1H9GAeOCA/dAcYsHRw7wwS096jWzZB01jBi6ebQEcWhXmbG2oZYvo9Hcx+1fAu7eoUzVwCpfJd2YzdT1hitxgQS+QZC19lv3/a8shSnfyzS7GG0L6MwHhKp3iIa3qQ+ukGs5oTelmuqKpOozSlKyi4IVV7RXPcmFRUPaKt/RGfTNbGaN/H5HyDRnSOQniLWnn0opMrgJdHwBaVl5yiNKZzeAzJlKbIsD//2rczDdvk3JNo+TLYEfl8Ym2OUhuooZf4uSop7KPcPUV3RQ3V5Dx219QRKB+lvaKI3FqemYgCvZ4Y85SFu1xwF6n30ljUKNfvkKI4/DCtczyVFvmofa9E8IvUubvcQatMSWfarnztC9kqK1bfb+5kVqyKRXMtTJ7/fUNpOQ1kfCw1RLhNeDtur+NVxO/P1jfzquJ3xSCsi1QGP+kL87rydR70hvj3l4bA9xi8NB7lX14HZvMaD3iC9Vb3oDJv8xqSDQvUBA9UJEqEBlhob6Qn18JXBYsYibSh1m3QEW9hrdaPSryNt2nohBZWvU1aX/izHPoNAlkRc142oZgRpewL9egDDZgBZRwL1VD3K0Rb0a9XIOntR9HcibhhHOdSNcqQDSXwY1WQLss4+ZN291yvW5mEE0lM09+oRepeR93SRbd1C2tKFuL4P1Ugt2dY18gOjv/A4dpvk+s5+w6Huf2xXD+LVjBPTtzNvK6bbVMektY71ogBDliYK5Next1FLJ2euELuOKHO2ZlbsDSzY44xaurhwVaFWbCOSH1Clm8akWv9QQHblEhPWFhbtdZRoZ2g29lCtG0ShWEbjmflrty5W5cn389UHlJePYbTv01S3gd29Tyi4TWv9CR2NJ1QGT4hUn1BadsZw5xXDnVc0xy7JU52SJT+ltOyKQMUDrM5LFMZzMmU/Wa1e/5Tqz8iSn+LwnqGzniI3HhOp3sHqOiDbfPH3bmUelvO/natcRqYfQ6abRWNawOUawuqYIEdxiEB6is87Rke0gcbqVhSGTUp8k3jcM8TDXXRE25Drt+iIdlLsnUFrXv+F1epPQgEm2yIu1zQF6j30ljkypMm7E2vZ+vmtibV4J/GZFWue/8E3NIbrx/6uyk7eHbTRHeri6yNOvjluZyLayq+O25mMtrLVUsdguJud1nreHazgzb4QJ50RHLZlHvYEOWiL0lvVy3JTIzLtLt+ecmCzrPKtiSJMpjXGIh2EvNN0BnsYicQ5aC9Db1xjtamEqdoqBIq3XkisNc9/9V/kh5p/LJCfkGXaQDVWgrStnlz3/Q8E243Qd5+C0AzG3SDG3SDqmQZ0KzVo5mII/ffRzNejW46SZdxD3t9Fpvbwg9z565VCfmAWeU8nypFmCqonkCdaEDf0oRyuQyA/Jq+8731x09LpXc0xQ/v27ysUi1TpaqnVdzBorqLTGCOoG2HPWcqes5Rxa4wBczMtxj42i6rpNCXoMPXhVt+nSL1MylXFlTtAi3EIhWIHm3r1Os6o2EX8gZD92lnmLTFGLC1kSU8wqu6zYCtGKt9CJD/+T7c9L4H07P081QFW5yIe3w7xug3Ky3cQaVNUBk/wlyZJNJ/QHT/B7TujK3698qwMntPReInceMZQ+0OCgUsMtvOfW6X+VEbX+EtP6Wk+xe07oqRsD5nh+DrR4zbEan3wnXzVDGZ7FQrDAJaiBOUlYfy+GGLtMlLdGkXOcaxFU2jMiwiVB+QojihQ7WErmsNaNEe2/BiHc+7DjamnoTMvkas4pMgxgFC595kIBeT597qfLFbXytmrLNZc/9mvBzwtFKj2mK4L4rTPUOcf4aSjki8NeNluqWEi2speW4TfnLYzXx/n1yYcjEY6cduX+OJAGe8OlhAvH+FXx9zItbv0VyfIkiXZb48gkJ5y1BGmyjfJ10ed6Iwb3IvVMRZp5N0hGyM1TQQ9AxhM8wikZz96QXP+do5jkizjJtLOKIqhCkThftQzlWgXytHMBsivmCJTv4eoZhzFQDvaxVrETcPIunvQrYRRDrehGGpHEh8m17v60y+l5gPBypKIG4ZQT0fRrwbIsa8jqh5G0tROYaSH/Iqux5nKt//lXc0xU3X5B1L5CtW6WrpNUeZtxVRq+zCqllkrCtJo7GHZHmLRXs2cLcapq4wdR4gWYx8G5Rpi+R5B3TQFskPyZEd4NT8fvxPL966TImRH12dYtSOMWhrRKZfpNsVwqGfIlJ6+dwdifc9UNIjcsIBEd4DStIvMsI9AmiJXmURnO8ThOaKi/PoPnMJ4ir/knKa6CyqDFxRoTtHbfrpKfRJCVYpMWYpsRQqhKoXMcIhAmiLLdPXf3cY8core/ssC6SkmWxi1qR2lcYZAaQiHswOvpwm3exCft5dgaSuxUBSvZ4SOaD3V5QmKPaM0hFqR6TfpiLYQKhsiX/V0uTqc0+Sr9/B6OpHoVh9/tLZDQfXpO7chw4Lw/f1bE2vRVucTxZpTtHzyKotV6L0+pFziGmW71cH9xmIGws2cdXsYjzZit15nFaW6qvjNaTvfnHAyVNPFb07biZWMsR6v51sTTsYinVT7pmmpGCJXcUyB6pCo/zqdM0d+zMPeUmZjTdxvrGM0Eqc92M1BexllrnGEin3uxSxky49+4QO/C3I8+7+b6x0kxzGPcqSU/IoRcoqW0MyXoxoPU9jQi3qmEnH9IPq1APq1AIr+FgSy1PWKLdGNaiKOrL2PvNJFsgx7ZBn3fuFmzq+4h7S9myzDLpm6ffIDoyiHgkjbG8gr6SdT/tYf3plYNVf/QijbJlu6T1TfScIUxa66zs7RKdeYtdWwUVRBqXaKYUsLcWM/A+Z2jp3lzFgbuG+vZ9tRw5ClgzLtPTKkqY/9wopk+whlRwxZ4lRqxijVjlCt6yVTmiRTmrr1P5RC5dF3lcZ7KIzzmB0rVIVmKCmbJ0d5gqd4l0Bgm6a6DSLVm2gsSYxFSdzFJ0TDJ9RHj5HoUvQ0n+Pynn0o10zZR+eWIleZoqLimKrQMU7PNi7vJlL9IVnmR3/jNuYhjS9dSHUJZLoR7I4SCjUr+LwNlJXUECitoqKknfqqKNUVTZQUJ3C5h2ipaaQ53ERtsB2TbQGBNIVYu43RukiovBex9vo87E/jq9dzcbtGiVU2kafcR2+ZRCC/+sFHx5NXtvXcmVeS+rmlgqqlW8u+eqpYc933919lseY6tv96puyEtbiHWEknc/WlnHZ5+cKAjYuEmxLnNCHfBEtNdVS4ZzjqCNNXlWCmrpVfHvHw7Sk7s7FmjjpqaC4fRqg4ui4koTrAaFr/4AuZIhHq5ivDDr485KTEOYtEs81yk5+DDjtZsmPag5XkyA8RRy/uvB2IQP7gewVVMbJtSyhHSxBVDZBl3ELW3YxiIIZ2oRxZdzPq6Vp0K0Hkfa3kFS8i6+pC2tKHdjGMqGbiw8f+J5GhPkQc60e7WIG4oQ/VWBmSeAv5gREKgu0IZJf/8U7m2JNazdS8+c9Nqi70yj6q9I10mPzYVGNkSJPUG1oZtQQI6gbJlh6TLT0mQ5pEq1zHoFyhUL6HWrFJruyIDGnyqXNUKLawqRZQKDYJ6wYpVfdRpJ5AoVhFIH/wvdueW5Zt72/mKvfQWCaRG3aoDM5gKlrH7VuitmaD+toNSsp2qIts4Ck+obv5mO7mY6pCJ7i8SQq1KSJVZwhV16vSn9yfHxVrhjRFljxFoTZ5nXEYXEEgS/0gx/b2X7m1+1B6+UOhahmLvZJcxTYG6zDBshBudzNeTz+1lXXUBBrwevsQKvcQabZxuMaoCTTgdg9S5ByhNthBbbCT0uIBFIY1suTHH84hS35MgXqHcKAJn3eALPkRTlcLWep3fmEv49bEWr2y80LEmu1e3niVxZqvTH6vtqSOww4rfVW1FDumeLPXwV5bGWvxSi4SbkYirXx9zM4vj9o56gwQKx1CIE1hsyxjNq8xVdvKbKyZPOURVssqmbIkvqI5MqQ/vXGDnikK1fsU2RaJ+IeoK0nQEWzioMOOp2iM4RoPGdIkBbXnd968Ltex/dezbWMI5CdkmdfI1O5c754GJlCNh1GORsj1LpKhPCavbA55bxua+Wokrb3PJFZR9Rg5jlUylEcIZEkyNXtkm9cQSFMIfa0IZOe3HoOU9aaWxR3JjYK65QcmVddjvbKPCl0LPWYPHk0fWuUSA+YqEqYoc7ZiWo2NTFkjTFij1OgHmbVVM26tZdZax7GjjGlrPZlPkatOuUIkk9JmAAAgAElEQVSu7Ig+c5xuUwsS2SZdxkoK5DsI/aNLtz03offktwTSFEXuLkTafcyONUKVM4QqZwhXbRGPbdBYt4HDu4fKnKK5/phg8Bi1+YQCTZIseYpYJElnU5JARRKb6+RDsWYrkh9u+Lh9+9TV7GFzHaG2bKG3bSJQnP3SbfbJyrYd/55QuYHa1INAmiJTdkK+ah2hcguxZpUiZwd+Xx0OZzsG6zBud/+Hq9iqijhl/i4K1DvUVTbjcY+iNS+Qr95Bpl9BpNlCrl9Bpl+ltjKGRLdOgXqdPOU2ud7zb92pWG8prfWpYhU6F++/ymKVadfet1unOOywst3qIEOapLuynWRnMe/029hrK2OrtZp3BjwMhDtYb6nhi4NuLJYVfnnEwaM+P277dfxNo//p4eSB6rafWwlINHv0VrfxhUE77wzYaSrvYLPFQ8g7QMjXS3NF1bVYa87uvMC30HP4F3OdnWRqt5G2FyOK1CGQJcmxLSNpakbWESXXPYeweJZc131kiUbkA7WIIoOIG/vJD0yTqf1pTCvLvP1E8eSVTyHvjSEKDyBujJFf0YfQP0auY+BOQgEF0QcPZb2pZVl/ckUiX3hsUPXg1fRQZ6ih1ViGQz3JrLWYSUs5YV03o5YAXaYWthylbBSV0WlqQ6tcI092iE65hky+TdyQQCbfRqO4jiXrlT/dgVYoNkiY6uk2NZAlPUGtWCKmb0QgSZHjTv6l256fJL5/dL1zv0SGLInZsUZVaIYizwoW5x5mxx5y4yEi7fXKraRsh1h0k4a6DezuPWLRDSoqjvH4Tmiu20dmOEFhPP65z0xlPqSsbJdQ5Q5mxxYW5ypW1zIFuqP/cKtzado7FkiTFDmDCKQpVMYh1KZB3J4AavMwpcURAqUhbEUJKkqqsBX1EShtw+YYxWCdxGIfxO9rRGeexekaoaqiGY1pAY+nD5+3G7l+hWJvgnzVNhLtIjmK3euaBx9XhOWWxCqOLG3fVlprjm2j7YlizXPMT95IrGVn77wIseYr9/9ErN6kLVhJuXsQgTSF3rhKuWuCUuckSt0WWsMGecpDylzTJLsqWGuuIUd+jMm0htcxT03xOIlQ4ufEWvBBSt1HyZKdoNZvotBt0B2KUOoewGEbx2nvIkOafCGhgFz/+bdynN1kGVeRtvvI8w+QZVpF0R9AXN+KcrgUSTyOciSMaqISSVsbkpYOZL0NSNu60cxWI64fIMe1Ql7J3HWc7gPR5nqWfm6+2ZYN8sqmEBbPklc2hLynlMJYI1mGpfczle/camqrqP7hzxVlFsgvv+/SRNEo5qnUxekxe6jWNTNnK2bOVsyYpQK98j4KxSYe9QyVuiFajI041NNYVYusF5Wzag9QpRvGqLqOtRfKd5Ar1pErrmvvujWThHU9JEwx7OpxKnStFGsSCKXbj7M9V791F59ftu349/TWmevrKz/GVDSL2TFLgWaP8ooZgsEpXL4FrK4V/KXbNNZt4C3ZpaFuA6d3F6tzh6rKfYr9h4SrdpAZjjE79slRJMlWJImGNxDrTjDaD8hTH1Ko3SdTliTLenEryQE/i9w9+PfVpgRi7QwKwxgudwiduQejrQ27owOXqxWft4FAaQi9ZRSlYQG/r5FQeRVG6wiBkhpMtgRa8yRC5T4O5xAi9TYl/nay5YcYLN1ItHPYHU3kqTbJ9Z3/xseN47bEKoou3FpTwUz3ZvOTxerb6biJWLPt6y+k0HWeY+3v5sgPmYpZSFSVIJCeEi7uYa6+lM0WBxF/gqbyBK2BTtbiAebrw4zUNFCo3qM31MFwuBWDae2pj8QC6SkR/wDdoVZ22krYafMT8PQRL29gsCZAkXUUb1ELGdLjx4ruk/U7n7P/wTeyrRM/ynWPUlgXQdJcRl7pEMrBcpTDpYjrWxHH2hBF+9HMlaG+V464qeunm1KBKaSt7RRUj5ChOiRTs4/gg4PZWcad68dJ1QH5gRGUQyEKa3uuV68lA+SVD5Af6CXbNvH+bWabiZquTn5BQPqLfyiRX29yyBXLWFTjyOSrmFVzVGjbqdbHKFIPoVcuMm31c89WTMIUodccJqrvwKxaYtBSR4+5Aal8C5n8+g+nTLGBQrGGUHaAXnmfGWsJQtkBXk2CiL4WjXIOjXKQwvjhXmHz5a2kgP4sucVX38xX75CjOEBlXsLsuIeneASbaxp/6SyVlVPY3csf/FzDXbyHwnSEp3gdj3+VQGARmeEApemIaHgblfkQh3cXg+2AysAmFRXbSPRHGOz3sblmEWl2yVKkvncXG6uipuRJpuzkRwZrHLujCrujFq+3AoO1gxzFLirjNFrzCCZbGxLdPdTGUQKlNfiLG7AW9aGzDGGxt6M2jZIhTaI0DpGnXEeinSVTdoTW3EOG7JgcxR4C+eWfPuns9G2JVdI4uywq27m4jffKde40PFGsOf7d1huJ1bL2QsoGCj2HfzFTdsJwxElVcTMBTxebLQ4mokEWG4pZavQyWRvlIuFgoaGKwXAj92I1qPUbvDvoYLquAU/R/LVwlNerVF/R7IerU4H0FKVuA7l2i0L1Hg1lPVgti/gco8w3OFmOWxEq9qj0VpElO3z8IuasSCTXMrUrj4WeVrJt88g6fBTWRa9Xq0NlyLvDZFuXydTtUVjbQ2FdJ7KOOkTVvRRUDqCeDKHoq0fS0kZhtI+snzmcnandRSA9ReibRtzUTGF9JwWhIfJK+xBFI4jj5WTqVskyzX7/tuYjaX7wsUVspD3HG3rN2Ht65TA65QQRvZ8KbZhibSddZg9dZg/Fmi6Cumb6zNX0mGqI6VuJGVqwqyawqaaYsFbh1kwxbA5hVC6gUS6TJ9vHqxlFp1zCoxnDoR4nT7aNUjGPVjmLQJqi0Lj0j2S9qWVx28WGtOnqVotfKxLJNYH88vu5yn30tnv4SwexuafQ2RbQWtco8izh9c/jKZ6nULdHjvKYYHCRmup5jPYt3L4VrK4lzI7l6/tWfYzUcIjSdIBUf4RYt43DO0Ghdgd38QRC5SFC7/Hv3NX9KK5LXWTJD36oNA6QrdhFpp9EY+5Drp9Aor2H2xXE6ylHb+nC4y7HYO0mV7FHvmoNg7UXtzuKztKDwjCKwdqGyjiEydqCXD+OyxUiU3ZEhjT13tPazNyaWOvnlgpKN65u432ybNuRJ4vV+WqLNdd//i2hYhe/s4dISQNDERfLTR72261M1gYYrqmmLdDJm302kp1uJmujOGzXzc0ay3ppC3YyUB2nrzqO0bSMXLuFVLP1wTGWkw9+JomVdrHd6mG3zU25exSZdo3akkaqizvJV24TK/WRIbv84xcxZ1lvajnbePYPMrWrZJmWySvrIdczQLZtlryyBKKaJgrCDWRb7iPrqkE1WoKsqwZ5bwh5ohqhdx5ZTx3KkRCZul3E9e1kKA8/WKkekqE6RNJcT17ZGMrhMrKMmxSE4uSVdVMQaiZDtf1+luHwVsolSpovn1oZrKBo/ztyxb0f65Tj+DSNVGircak76DJ7iBvLqTNU02X2UKLtR69cpFSToMtYRkDbRo+pGJVihRLNEEPmKmKGZqyqe7g14/i1Q4jku5Ro+vBpWpArFmkweBHKdimU36cgevbwQ3G0XWzc9sq1oDZ1VaDZ/brL24fGch938ShO7zi5ygMKdbvo7YsUeSbQ2+ewu6fwFC9RXnEfuWEPrXUNQ9ESassaOYojijyjaCyLWFxTiHWbKIwrKM0/ke4uBbq9//LTtpG+KaKmwxOJceY/ZcoOyVFsozYNYLK1YrB2YCuK4XJVojIOU+SIoDUnUBpHMNq6KPYFsdjbKXLWoDQOky3fw2DpwGyLY7B2oDEnEEhPHosa95/au+tVFGu2da/yyWI1bLd8rDxrxlYKSuYPXrZYC0Pnb+crNx4LpKf0hX20BYMkQnVstRQxXVeGxrCC3rhCY3kHzRWtzDf4aSxvZTwaYrOlnGSXh6FwAyOROnyOSYym6xijxTz3oViFigMWG/10BptYaiol4m+hytfCVJ2FcHETmbJj5NpZsk0P/+6LEqs4enaeaVj+E4E0Sa63m8I6N0JfL5LWYqTtXvIrW5G0lFBQ3Y28pwpRTTeSeAO5rmkKKruQNDchqulH3NBGQWiAgqrEB2GCATKUR8h7Ksm2rJJX1kOOfYq80naybbNkW6YQSJM/vo1SiZ8kVVlvalnaebglkJ9+36rqIqr3EdRV4lR3UqztxKoapclYQUDXSL5sixpdA/1mLx3GCkK6ZqL6WsL6EE51D5nSJFbVPaTyTdSKlQ9WrluE9SWoFDNI5ct4Na3kybZ+lGk4/59/4Xq3JTekTRe3unIV1x2fZ8hOHhdorjcPCzS72FxT6G3z+EoGKC4dQGtdpLh0AJfv+lE5X32A03ePsooxTI557O4xtNYFCrVbmB0zFHnG8ZUMoLFcx5TF+q3vi0IHX3oh92TTzplAeorNEUZrTuBwRtCaeyjULFCoWUSqm6ZQM4/a1I/e0o5YO0eG9ASxdh6dpYs81XVITq4fJ1N2hEQ3/Viqn3ycbb767z/pd+eVbD53a5afIKrYvryV97Ht+p9ZrKLo6OqrIFZZb2o5U3bywwxpErnuPjrjFFmyI5z2UeIV1XQEy1Dpl5msrWCv3cpas4v2YCPbbTaslgUqvSMku+10VLbQFoxT4hxDqDggR35Epfe6Yvl4bYCG0g72220U2WaoK60j6q9nOOLEZJ7AbO6mUL36I3FX6oU2o8s0pv6ZQJokryxOXnkDBYEoomiEwvoqRNHotWArusi2rpJfPoCso4zCunqkrRWI66PkB/qR91aR41hE0V96fVP3BBD6psgPDCD0jlEQjJHrGUBcX0yOc4RsyygC2cV3n3fskvjV0adt85JrO/kbRlU/FlUfEX0xJuUQmdJj8mRb2NS91Oh9WFU9+DTNtBiDVOviGJUzFKn7cKm78GvjGFWDONRtaJXjlGijqJVTKBRzONXtGJVDZEhPyJYeIFOv/z9PipPnRx/eesfTXMPZ7zt8/T8WqvZQW5YwFs1hcsxisM/jKh5BZV7C4R1Da1vA6ppAZtzA4b2HzT2P3TOO19+PQJpCYVrFVzKARL+J3jaH3n4PgfTs/cLqkxdavjNTc/FP5fqxx7nKTXTmHvSWLkSaBbLke+QqNtFb2nG4QjicVWjNCbTmLlTGfuzOEDL9GHL9MDmKbfLVqz+Sm8e+92nj+Hnl28/dTPAn5AfXb6Vba2bpl6xPFOt/pnz1xSoNr3/BaB3+x0bTGG1BOyWuFvrDLsZrLcRKI/RWe4mWtLLTZiNc3MNio49oSSt64zz1pc30VDXSHoiz125FY1ihpypCluyE1XgRKv0a261Waks6qS5uw2ieoLa0Er+zC5l2BYslgbco+jhT8/D/eJE3sKw3tSyqvTwVyI7JcQ58sGLtIqdoglzPCOKmcvICrWRoNskyLiPrKkbeXUyuYwZJPIQoWoUoWkmWcZkM5T55pQPXZxH1awikSbKt04giJeR6Ewh9PRSEomSodhAojt7PMj/8m88zbnFnar2w9dM/WisSybV8zfYfCmU774vly5RpI1TpKnCq24jovdQZXLg1zdQZXNjVCQTSJErFHM1GN81GNw51J1G9E58mhk2VoEjdQUTvRa8cJaL3oVWMo1cOoFWN/Ulh3c7Dp17z8OWZJHGLn2N/ckVoOPon+Zqd9zWWBTzFwzi9YxRqt8mSHyPRbSA3rmD3jGKw30Os2/gwO0ltWcBUdH26QG5c/SAxIEm24ujHAunZjwqiJ0+dy10had0+yFSf/WuB9Oz9fNUSdkcIrbkLu7MKlXEAvaUDvaUDmyOM01WOTD9OoWYWqW4Clan3sdR477tZlsu/8yy/8zbFWlA9dytJApnap4g1U3bQ/LFijYytFxQ/OSvrRYpV1ptaFige/Hu5boEiWx91paUUOzsYi1qoLm5ivNZCWzBAhXuAfOUuPdUVzDVYaA7UMFtvwW6dYKI2yFRdgEpvH2vNdqyWWTZabGgNy8zWF6PULVHuacTj6KYz5KA16EWiWcTvDCOQnv/4ZdzAst7UskB1/kc57gS5vi5EVQEy1NsIZCfX4YGYG6G/jfxQFXml3cg6/QiLR8j1DpJX2kl+IE6uc5QcVz8F4VKyDEsUhELklTQjLG0i19dJrqeHHMcoOY5BsotG3su27/zec425O7kibUs98yF1RSK5JlGv/VGGNEmRqgurqoeI3o9RNURIV45L3UKlrgKHuo1qvR+TaogKbR0lmjg1eg9RvROVYhqRbI2I3kuFNoRAmsKs6qVI3YpAeva+JL7/xL71P4so9ODiVuXam1rOVD/6p7ma/R+IdZtorQvkqXbJkJ2QIUuisSzg8ffjLenH6RvC7h5CbljG7etBZlhGb5tBrFtHaVpEaVp8nGvY/4NXodGlpG1nP1t1vCGQnr0vkJ4/1lnaHwuV62TJdzHbyslRbH2Q0HCMQJp8LJCevZdlO//rz/y7+pMroor9W3l8l9TPLYkj89u3IlbdpeWZxZrjXj8RRUdXXxWxiiNnlxnSJNXFVbQEHHgd7ZS4umgJBOmt9mI0TZEtP6K3uoy5BgutwRom6xyEfC30Vtuo8tVfn/WTHRP0JMiQJhGprmNfHkc3HSEzZe4GtIZ7dIYc+F2tqPRTSDT3yVQ+eml9r2S9qWWB/PLPBPKT97Ot04iqKxD6OhHV+iiMucmriFEYcyOq9ZHxwZEqcX0JkriHwmiQ/IoYeSVxROFScpyD5Hq7rv//aDGFMTfZtkmy7cNkmWfIsqb+2+cdq7T94uYdUPtSq5nS1HtOdTNhfRn1BhdaxeT1BqP0GKsqgV45jFR+n0L5TwvLiGSrFMpXyZSekCvbI0d2QJb0EJ+2FqliAYH0/LG08/CZxiUKPbi47c9RmjjaFEgv3hNIT1GaFnEX9yA3LuH09iLVr6K3z6EyL+Ap7sHmGkZjmb/uNaXZwuEZfD9LmfpjWdvG8cu8F5/22Ymblk4zlV/5VwLZo/8okF78WCC/+lOB4ot/lFe89LvP1WOsP7kiChzdWlUqcc38xm28zxvym4jVtXT6KolV1ptazpRffFesWX3cWO7B67jOnDKaJomVldBQ7kFnnCRWVsZErQONYYki6xjRkjB+ZzvVxVFU+lkC3hpiZT6K7D00lHvwOlrxOVvxOVoocTUikKZwFXVhtvQTK7OTr976wV3WJf20N5ZAef7vBNJTcl0D5NjHyHEOIooWI/S3Iqpzk+vtIj9YjbAkTq63l4LqCEJ/G6JaNwXhcjK1a9eP/3Vu8krj5DgHyTLNU1BVSrZ1gmzT4XOXm7uNGLS4I7khlJ/88bUkd9Epx3Bo4gikp6gVkx+uTgO6ABW6cjzaOqr0XsJ6Fw51HJemCaemCZ1qCKNq4P0c3d4ffJpNtI8jv+bN5F18lgWR3TcFskf/X4bs5HGGLEm24hCxbhWVZYIs+eF1PVL50c8ncujf/Ievwir1pZC4WBM1zKzeplhv4/3eKHjTfCOxSmrGVl4lsYo7khsC2eV3BdJTvI42ip3NhIsr6QiZaa+0YDYP0V5pptIXRSA9pcg2SGugmN5qKxF/NQ1lHkpd9VR4ojRVuPA6Wmks91Bf7vtgxVqPSLVOwBtCZxxBrFv+YX5l8osv/cb64AuZqTz7wxz3wI8KI37yy+vJ1GyRodwj2zZBrquXHMcwObZxsgzLCKRJMjWbZNsmyTJdn9sVyI/INCwhkJ2QUzSEsLSBbPsoAvnRj0WNyZtv3Nzw8f9pFFZfvJOpePB/F8jXfxTS+7Cp2wnqSrCpOpEr5rCpO6nSeynXBTCpelApJsmTbeLSNKJQzCCQX/wgr3z/V55XRoWRB3e2QlQkkmuF4au38oNn7+aV73xTqD7/o1z1wXtZitPv5Rbtfye/dveksPrinRdRUe2VJnGxJondW7ktsYoiC+ui2qn15xbrG5emJ4tVdRT/OHEKPStnr5pYZb2pZVlfalWgPP8POuMUJc44rqIuHPYEjeUeDKYxGsvdeB2tVHii+BztxMqCNFf4Cfmqaa80E/ZXYDIPYzKP0FZpoa60hApvLe6idip9ldSXOSlQbSCQXvw4P3T0Qo6xPMvcsyy7v5+h2SLbPEuuq4csyyQC2TF55TFEUR+iqBdhcTt5gSpyfa0UhH3kVwbIcXeTHypH6GtBWNKI0N9ElnGBXPvB35I0pJ5LHgW1l3dWmEZYcfS1LHnqz3Jke48l8kVMqq6fWcmlyJIeUiBb/7DuQ6b87E9VJTPfvk0ZFdZ9fIJDmhdE4mLttgqnSOrnliSxxZX84Opznwx44403jc8uVvfy+ZOk+lLF2nv9lz5Hlfy3LnsXEX8Qp72bQvU6ecodfM440dISSt31WK19iFQb5Cr20RvH8TmaCXqryZYfkC0/oMjWg1J/nZXltHfgsrejNUwikCT/lihw8tWXfkM9gfzQ+Zcy9al/mmWefj8vECLbMkleWZRcTxf5gQg5zj4KajzkVdQg9MfJdXeTZZol19tGXkXN9e6/8vxPhJ7Lv/C8Y5HErz7VhtDzIu8+2M71PPq20HX22zmO479qtMb+sUY18p5AfvUDk7PufxC6zn9HFDu6s44HhQ1XL7SZZJqfIXFxK0VTPqRxdjmvZOvh84v1a4Yni1WearyRWF9QrYAnoUgk1woN238g1y5SZOvFYuknU3ZMrmKPCk+U+nIPzQEbfmcjFZ5qPEXN1Jc5KHfXINMuEPEX47K3UuxsQGcYp7bEh944hkB68Z6o8vjWu3feBYU1ybcyjQf/KFO39DjbMkW2dYxM3cKHK7oM1TYZmo/0GlI8+H9zHA//0m38/pvGLj+r5Nc+/IV6B2nuHnFn6rkf2z/KbWRyvfHGN/RPFGuW+qzhhmJ982VfcFlvajm3+OzXRMaVf+kpanpc5q7BZk3gcTRT4y+nodyFw9ZJc4WZWKmTcneYSm+QMneEIlsnDeV2avx+dIZxsuVHP8o2Xf3eiyiycuv0pVazLF/4Trb54u9nG47/p2zj6h9mFw3/MMs4/16GbudbuZ7N7SzLm39H0rm7d1u/s7Dp4rVbwYlbLzelLZe3GktO8ymu+ysr1t/SPlmsmvP6m4g117r2Ug4nP4m80uNv5GgP/7XGMPG4xBV9327tpkC1hlQ7i9HUT4W7Go1hCoV2jgLVOhLNfTKkJ48F0tSPMjUn/1dB7cmdF7D+vPA6SvUniNsuNsStLzYD73XnTsT6nCmy+dH7q2+88dekTxNr3U3EKizauHoVj38oEsm1DO1b/1umOvVvBPLLPxNIz39UqF5+32TpeFygWvtxrvaR12aP/81Mw84/yVQ//Gfi+MrtH6n5HPOiYqqvMuLO1Lq47eJOi56k+fnrfdtiFZVtP1cbbGFg7fiJUn3jjTfe+M9VD2tuJFbbzsWrKNY0d4ek4cFx+jP/gJ7UqqznJZ9vfk24C7GKo9ObdyrWTN2q5UZideyev/SD82leKM+S//9a0J9cEXemPnsx+c8Yd7JijS48V4LAnYlVFJpYT99Urw/Sjtstqfe5IZFcE7cl02GBO+QuxCqJLT5XwsGdiVVSO7mcjjO9Hkjb0lJ9GuLW1Ka49TK9oXVX1/cuxFo7v/w8TQULylYO0mJNczO6kytpqX46pO3JrfRRrLvhrsQqjs3cuBhLXvnq7t2JNX3s5PNLT2q1MH5xa+deXwfSqa93RFfydjOvfiLHkt0bH7kSBVY202JN88yI6y5vvWze64AkLddbR9x5cvsr1vq5pTz/9ls3fW1+2dpqWqxpnonClsv9lz2GzzLplevtcldiLSjdeeemrxUGlhbSYk3zqUk//t/SdbzDcoOvG3cmVv/O2zde7VYsTd1MrJ6Vs7RYXy/SK9Xb5S6aE76O3FkooGznxvUCCkJb/WmxpvlEXrdKVS8KUejq/GWP4bPO3YUC9q4ktTer8yoMfIJYC/T3zelQwOuNqOkqXQ7vDsmrePOVKlj0WeOuxCqOzWyIovdvlIElDG70PVWsIseB8eOkmeNaOk2L9TWgL7WaTlW9e0ThB2cvewyfVcRtyVtp/vcLxO6t3Fis5Z8g1izntuHjpFlQMvXE1tdpsX5+SEv1xSBuTW2mU8Bveu1OnqtgytMQ1c3f6Iys0Lfb+1SxZltXtWmxvp6kpfpikbZfbKW/Mze5bsdbdyVWcfTejaSdXbzd81SxSnV76o8Va/n0Xlqsn1/SJwBeDtKWy+309+YZr1nb4c6diTUyu30jsXo2E08V6xumdUVarK8RPanV9AmAl4u05XJb2n6x9bLH8VmhML6/d1diLSjdubobsWo3xR8nzbzSmd20WD9n9KRW0x0AXg3SK9dPjyR2cHxXYs0r33xwo9d5d7qeLlbzo4K0WF8PxNGL9JnKVwhp08VOukLcJ1MQOb/RqvJTCbJk40ZtsPNKDjufLtbCtFhfB9IbVa8m0vaLrfRpgaeTV312o1XlXa5Yczz7bWmxvuakN6pebcRtFxvp/llPJq/m7Earyk9DQenOlaTx2bOvChy7TU8X6xvPIdbmk7RYX3HSG1WfDUSVV5cvewyvKnnh0+dqVf00xLGZDVFk4Zkzu9JifY2RxK+O0iuhzwaSRGpZFHqQroH7MdylWEX102t3JNb9tFg/h0iaLw/TUv3skV+Troj1Ue5SrJLG2WVxzfwzp8ymxfo60pdaTXdV/eySX/swXRTnZ8irSt24vN+nCgfcQKy59q36tFhfM9KbVZ990l0IfsqdizUy/8zZV0LPTm1arK8R6c2qzw/p/lnX3LVYC6rnnjllNsu1W5MW6+tAd3IlXVf180darncvVlHZzsWzvibbulf5CWL9an5arJ9xupMrovoHyZc+jjR3wuseFrjzFWvpxjNnduVY1srSYv08k5bq55/+5Ep+zZuv7Wf8KopV6Np3P7tYa8ZW8irmdtJiffUpjCfTXVVfA6Qtl9uy7i5cxgQAACAASURBVOTKyx7HyyAvnHzrTkMBFduXz/wa/5vGTxDrW3kfFaYoOrqaFuurTzr///XidS01eNNCKZ9akmU7F8+a1ipy3ESs4ZG1tFhfbQpbLvfTCQCvH69jfY67Fqs4em9THF16pk4CWaYvGD5BrL8j/AWxRsbW88rmt9NifTUpjF/tyRIXay97HGleDq9bWODOV6z102viyNIznWV9Q/SJYn3jDaF9+cHPClPo2jyX1IytfJJYpa3Hr+WjycuksOnqIF1mLo205XL7dbkP7lqsksbZ5YLqlWc6y/pG4SP9s4vVuXr5qcTacrT9si/660Rhy+X+6/JlSvPJFDZf7r4O98Odi7V+bumZxfrGF3U3E+snSDUt1hdMf3JF3PX6xdfSPJ3C5svdz3sXghci1qqlZ+qr9cYbX9XeQKwrV59GrIXNB+ld6ReEpOHB8cseQ5pXk8970ZYXItbw/f27F+tH/vuJYo3vpYt93DGSRGpZVJdOAEjzdAobrg5e9hjuipu2T3kW8svXTp9NrL+kvjOxSup30x0/75Lu5Iqo9sHpSx9Hms8EhfWfzw68N21R/SyIAhtnzybWb6juTKyi4Hm64vkdIUmkltNSTfOsFEY+ZyGj/uSKqGL3mTOj7lKs+bWzy2+88ZvyOxNrQfnZ1Uu/8J9T0lJNc1Pyq978/Nw7/ckVUdneM1efukuxCv1rp58o1ecRa17g9MFLv/CfQwpbUunYdZqb051ceVFyVXSfrOc6D/9apvrt/z1TdfmvBIrzP8pUXP2bTOWjf56h+uLvS9p2nu9e7kutigIHz/SYfhPyg+v/P3vvGR1Zet537gejAzogFVDIlVC5kCvnnAOqCoWcUzfQQDfQjZwKsbvRYXpyoA9tipZIibRkBVq7a6+959jy2T3+Yst7vGutnPZo17JFWZIpieTMcOa3HzBTZHNIDnoSR/J8+J+69+A28L73Nn743+d9nufdrfBOzn8B1r+mKgsdrFamd76oqvpCH0sV6U/PuV4UPfid86KNf201dv+W3xp5K2oPvNPR2kvE7sdrjlIrXqRIkKdIsEuRYPcH5yrzf1pUvfsn5+vu/l5VfPWZMonKU7tLH2XrlGdVuWty6azVV2cHq2ph/wuw/vxVFv3vI+H7C302qkjv3rjq+GQySsqcyw/LO2eCRYI8kqZZjO19aDWj1EluUFK7QrXoJp0tY0Ts3XT7EgwEowSsvUQdGfoCEdKeBKaOYRplN9+9XLv77WLlwa+f5ecK4ge3S/0TC596KMA/sVDiWFj5RMFarJ7b+Uhg7dy9+/P+z/PXRWXRw5XyxF/vRO8v9GPK7cyXObZOihXH37og2/9fihXH3yr33dqvSq19ohtBfpxsgTL71r3G9ql1pXLyGw5DltbmYZKuIBmvH6u+F0PbOPXSRapFt3EYhrB0jmBqHyNk66HXH8fcMYK+bYykO4XH3EtfMEzClUKnm/m+QjP/X4uVxz8TsIL4we1n7Tz1UVVinT9TkcDljsWtM4H1knp27Quw/vz0hVP970dXOo5fv6re/ZZIt/WvNc07b2tbtt40GTfwu9YQK7aR69Z+IJStvX2pbvetBtnud8XN6/9XsXbvm4Lkxkfuy1Hm/Qil0N27C5db1vNXatbebm8ZIOX20+XxY2gbIOqIYO0cIutLMRKJMhKJknBmCdtyDIcjDIUiJF0Z9G3jSOULXKjaoVi4hVI1i6ljBK+5D58lh6ljgKC96+2Lso1/UuHf/InZDIL4we3PAqoVvrMXCZR0Lq2fCawXlfO3vgDrz0eCxMFyeWLnC6f611hX2o7fKNat/FqV5OAtbcv2942GDaK+VfT6Ddo7tjAZNzEaDjAYjsiG72MzHxPyHOGwHtDecYBYsU+VaP+d8zVH//Gy4fjljzKGMv/R+lk7opWYDx9dFK3/mys1KzTK5jC29xGwxvFbksgU12lrmaQvkGAoFKU3kCDj7SLmyCGVLyBsvIOxfQxT+ziG9mkCtmHG4104TeNEHIOMRpN0+3LY9ONcqNxBrZ4m4Yqh1k5/pzS48YEKMkFs95l3UP2oKrNcXz/LdVfaFpfPFgpQzc58Adafj77YAPCvr8pim2sVtqV5oXgXTfMuycAOPbEdXLYd6mR7VIn3MOiPcFrvkoueMJx6wET2IRPZhwTdd+mJ3WU0fY9c9Bif84iQ+4jWjoPvVsvu/udS/cFLlblnax1Y5j9DZ7Tcznxl08K/1WpS2PRdJN0+4i4/CtUkQtHt95znHBrNdVp10xjbx3GbBkm5MziNw1SLVrhas4las0BvIMdUMslM6lRe8yhTiQRTiQRZbw6vZYTzlTu0t0zR2TZKkeDwrdLgzlO/D58pWM0Lm2e57mrnrZtnAusF5dzgF2D9bFWR3r1R7j3c+3mP43Ov3M58afBgu8y9d9RgmX69pHr/27U1a39ZLNh5p7Rq5ztVNZt/LDH2f6XBvXJY4dw7LIts//xT1XI788XavW9eqNqlvX2bntgOnZ075KI7+F27hD33mOx+RMx3H6ftLiNdDwh57tHadoSu5RS0Ee89JIoDnNYjPPYjhlN3GUrdxec8IhfdI+Lbe7u04d4fl9jz955lbGXe47WfmnWS25k/X7v/7yXy4Xds+iRxlx+vOY5WO0qrbpTBcISYM4OhbZy+QKIQBugNJPCYhugPduMyjuM0juMyjZP29mHTT9IX7GYqmSTt7aPb181EPIFNP85UIkGDdAlz5ziD4QQdrVOUqpb/0Y+OSZDYeeatqT+qrurnz1TWell/69qZwHq1YzP0BVg/O1Wkd2+Uew6/qFr7acrsLggSO8vFNcf/obJ6/btRWfo7Y01OrA19LCj03FJ20iWJ0l4/xdXKdRqrb2Jr6CUlCWAW9/7ZBcX2PxTEdn8undcEse0754UnXyoS7OJ3nTpUr2MHu2UXo2GfodRDJrsfFTSUeojVfMxY+gFj6QcMdz3AbrlLo/yIYuEe5yvzCMUH1MsOqG86pEp8QEVjHqkyj1Cc50JVnsuanV95ljGWBY5Wf1Kj7FLx8r8XNMz9oFk3hM8SQ6sdxW+N4jBmyPnjDIYjBZk7RnGbBrF0juOzjDCTTDKTTBJzDJLz5xiNphkIdTOdTNITyGHumCIX6KG1eZawfYBuX46pRIKkq4/BcAJTxwSj0Rgx1+BCsWrnNwpjjW6faaX+swTrlc4bo2cC63ntF2D9LFXuOtj/eY/h86oy2/aDIsH+u+VVq/hEOUz1Q/TK/BjqR1DXztFZP8mcPMQjnYFHOgMHGiubKjv3tHruafXsqC2MyGJUVq1QJNh/szK2+JmVeAoyW4s1svU/aVJvE/dvomvZwefcoUiQR6k7IBU8YaTrIXH/feyWu4jkB1RL9t/L+cwjkh8ymn6Z+YHXCsqEX2Ao9SKzfa8w2/cKMz0vUyM9pEiQp1aWpzu6j1K393axdvfvPtN9Dj+9X1pR5fGfmjut716s2qBWskDIFibp9uE0pukJxJ6CqtfSR61kiSJBnsrGVSbiqQJYewO5wvloNE1vMFcIBaQ8/UjlpzmuHa3X6PF3k/H0oFDNMxBKkvJ0o9HMIpbPf69EtfE/VmZ3b5RFtp6pnd/HAqtpYfcs15Va11JnA6v4x8B6xraBX4D12fVFp6qfLEF6c+l8zeEfqOuvv2VvGGBd1cmmugN3Yz8B0SDFlds01SzgbRxmTvFDsD7SGbihCLKlsnJPq2esKcpYU5RDjZGctOvd3qb4202i279fHpr/VO+7sGv7lrBp69t6w/q7mfAG2cgmFtMWQvEetdJ9DIZjot779MUfMJh6wEj6IePZh4Q894n5nkPQeEB5/T52y0Oy4RcKYJ3rfxW/63EBrOnwE8azL6HUHuOxn5AKPkCk2KdSvPu9q22Hf+eZ7nnwYLkyu3ujIri8VSTYffdi1TqltSsE34OqqSOHwzhA0t1FR+s4+rYxYq5T92ruGKXbn8ZhHCFgHSzANOYYZDicKYC2qnGVOukdPOYx+kPdjMW6uCTcpj/QzXAkQ8I5wIXKHdpbp/GYh2hvmaaq8TZK9ezbF2R7/7AstvlM7fw+NljPkNp1xXRWsDasB78A66evCv/hp+KeqlJry+ca7v+r87V7f3BBsvYfygPdb12ULr5bYut7s8yf+vfnRav/5nzt3v9zvvb4/7wovfc7P+/78OMqVm/+qqp+7q0FhfXdObmda3In000uxptiHGssPNYZ2VK5mJFHuKc1sau2s6L0MCDrQl8/TZVwhfKqNVrqrjEsi3GoMXJPq2dPbSInTbCr7nx3VBF6q7hx7d+VO/OHn/T4BZmtxav123/WKF8nHdrEad2is3OL5tYdhlInjGUekI3cx2a+y3jmNBQwkHyA3/WQqe6Xmel5GanqmMHUi0x0v8xk98t4HY/pCj3/lGsd6XqRrtATZvtewWA4IR16SE/sERPZ59C2HFGnXPsT4TNW7VV417dKG5b/TK4MoVIN4jG7sRmCSOUTXKlep6N1gi5Pit4fca09gRhxV46xWAxD+ySj0Rhhe38hxtrl7mMmmcRpPI2zWjsnC6415+9BqriFvm2GmWSS6USSeultBsMpYs5eKhtXUKpm0LcN09w8+WaJ/+bRZ5XHetVwa/ssZa1XmpfPCNbaHwfr2XYQ+AKsZ1dZ8OAT65cpTO/cvCg6/mfF0o1/Ve4a/F5lMvJ2ZTL2zlXjCDUjFoTdXq4axzhXvVl4zSwS5LnUfI0rhqm3rzTf+G8XRXd/p7L757vL62XN0TeKanb/SFFz/d01VSd3lEa0tdNkJClWlB4eaY081v1QO2onE00x9jVWNlROhmVdOBrH6Zfl6JIMYGuYYrQpzYIixogsQ1TcR7XwDrKaG6QkXfTJorhFQ39c5tg6+aTmIMhsLVYrV/5QKF5/R9O8hdGwRcS7SdizRSp4l7HMg4IGkie0th+h0h6RDj1hrv8V5gdeZbbvFZrUx8wPvEoi8ISp3CvMD7zGaPplgu7n0LXcR6I8xmZ5UHCuY5mX6Is/Jhl4QG/sEX3xR6fPufrgj4Rd22fOWa1w5g/rxT2cr9zCbfbgtzppa8lQI5pHoZrGY05jaB8h5UkVoBp19jAajTEWi2HqGGcglGQ0GiPh6qFJcRNr5yQh+zATiVQhBNAbOA0JRJ2DRJ1DGNtn8JhHmUkmUannGY0mmIjHsRnGqBbdxtA+RNieeveC7GDkrDX8H1fl9mu3z7JFy9nBWrUa+FFglrRNbX4B1k9OgsTB8ie1J/yllv2vXGjY/INS+yCljn4EkThXOse5IFqmIpqjMp2mZjRIw007DTecVCaz1M+4EN0y07hgoX7aRal9lKv6aa403/rOReX2Pyo17z76rO9JsWbn77U0DH13UOZjqsmJtzGHvGaWIsEu7XUzuBpHCYoGSYp7iYv78DUOo6ubRVpziyuVm3gbx7mndfNGq7mgIVk3z+usvNZi4rUWEwcaDzHxEEWCXdyNwwzIYmyr9Xgk/X/c5pr5ROBaotqdLq3ffKdWukPQvUk2cgrVROAUqiNdJ4S99zAZj3HajqmR7CNTHZGNPM/8wKvMD7zKjf5XkGvuFs6D7ucYS7/MTO4V0uHnaWm7T5EgT1v7fRzWh1hMD1Dr7tGkOmI88xx+5wkjXY+5KMxjNh2+e6n28D+fdfwXxev/SCgaQSwbx2910tGawtIZprN1AH3bABmvn5Q7gNOYpbN1DEP7RAGqY7FTyCbcucK5yzRMsXALn3WU6R9JtQrYRphKpPBbR5lIpDC0z9AbyDEQyhK0DjMQ6qI/2IXDOEqtZAmNZhqRbJ4iwd475c7hzyTlqtQ/sVBmW9z4ULAqbyfPBtbyp8F6RT+y8gVYPxkJYod3Pom9qqpSa8tXjLN/WO4a+p4wF6D+moHKeIpy3xAX5bcp9w0hSOSo6k5RN+VDdMeMeNVE46KNqmwS8R0jDTdsVHV1UTMYRnTbSEWgj5pRN6WOwXcvSDd+77Jh7yMlnz/zXLrW71wU7Lwz0eRkVdXBsMxHS90UE01R4uI+VpReDjU2HmmNHGmsbKlcDMjS9Ml68IvGsDZMMSDrYUbexYnuh3B9oHOxrArzWouJl5vNTMtTvNRsRlmzQEg0yK7ayaAsRa1wibQs/JcO5+iTjzOPYuXBr1eJF39QK92gpW0Dv+s0DNDRcYDNcozDehen7ZhM+D6j6RMi3nt0Rx5hMd0j6n1If+KFDzjWU7A+pqTuNN7aG3+RmZ5XcVofUdFwwGDyReb6XmGk6yWqxYc4rCfYLPfRtR7TKN/DbtknGTp4p7xt6xsfNv5S3+7Opeo7P5ArI+jbkjTJh3EY/XS0pglYE/gsKdymNBmvn4zXT2frMIa2EWyGETK+NGOxGMOROA7jCGOxGDl/mrCjnxrxHdparuMxjxFzDjKZSDEaTRO2D2HpnGIonCXuGmA6kSTqGCLr7cVrGSZkHyDi6Kdeukjam0SqmKekdvWdksatf/dZgLXCNz1XZr71obmsxU1riY8GVsPwnb/KYBVkthYvtR59+XLL9tfO19z9j3L54p83Su68KahbeadJNvc9jer6d2zu4D9QOBa+dKlt729faTv60rMmW58NqrsfG6rlqe2lEtvCL1d4B79TP2N8tyKQpWbQTVU6SeMtJ5J1M40LTmpHQ4hXTTQsOKgejFIR7kMQ7UGQzHK55QblvgEEkRyN8zbEd4w0ztuo7o9QlY1Sf81C3aSdy81z75yvO/h9QXrzU9u0UJjeuXlBuPmd8SbXu1NNDuLiJAFRN9PyMCc6A8daIyNNCfY1dh7rjKyqvAzKMhxoPLzRamJK3sUjnYMBWY7XWizMKZJcl6e4p3XzpVYz400ZXmsxMaeI82KzhddaTARFwxxrrCwoQjzRGVlSBrgo2MIh7f8jrWvuoznX9M7NSunSf6uWrBB03yTsvUmTep0iQZ4a6T49sftPhQESgfsMJh8znXuC2XSPicxzdEcekfA/x2T3aYx1tu8VYr7n6E+8iNf5+KkMAZf9EQ1NR1jND7jR/yo3+l9Frj5mLPM8I+nn0bbcRa7ew+c8IBc7xGY5fPPDnuNl1dr/1KyzcKXmDlptLz6LE4c+QKvuh061RTdKxusn4QphaBuiNxCiNxDCZerDZ+1nOBLHbhgl7c0SdfYxHo+T8uTwW4aIOQcYCGfxmMdIuvsJ2oYRNy2SdPfTG8zhMo4zlThd4CqvX2M4ksTUMYFac51uf5yoM0tJ7Qrt7fH/+pmB1Xpz60PBKl2LfTSwmsdunwWsl9Xzn4tG18L0zs3Lhv2Xa40395qV177f70r9pxmf8+129RhTHifrsXZGXF58Hb2U1y5ztXoNtXySQGeKlDmMrWXwe0Lx2p9d6lj/crl/+xNJ2hfEdu983FLVq/q9186LV99qmNVTP2OkzN1HeaCP2pEIknXzU6ruT1A/50J020L9rIeakTBVmQylrkkutyxwpf0GNUNJKpN9lAdGKHVOcNV4jXPVWxRV7nKlY5oy1yCCRPoHV5pvrJWYV1/5pJ9TeWp7qUiw/3aRIE9QlGFE5uWa3MENhY8TnaGgI60JRc08ftEwm+oAb7SaChptyvJGq4l7Whe7aj9vtJr5UquZm4oEPdI+NLULZCR9zCtihZDAHWWYJzojo7IkRxobdzVWKoXLmOtHsIiHvlNuW33wrHOpiK2uCSULdHbeJuy9icO2iEq3xtXaXUKePGbTHn7XMSNdJ/QnTheapnNPmM49Ie5/SDb8iOncE8bSz+GwnlDRsI/H/pgb/a8WYBr2PFc4NhkfEPc/IRl4Qk/sBW70v4pKe5fp3Atc630Rq/mEC1V53I4DTMZ94oFDzgsP/7+fNYfzws3vX6mZ4XzlNk6jD7/Vib4thdeUIu05danvhwO85lQBqu+r2xemvXWCGvEdHMZRxuNxxuNxRqIJdNpZhiJJku5+ppNJhiIZWptnOSfYRSJfQKGa41L1JmrNdSoblmmULZJ096DRzOI29RO05ZAr57hUvUGddO6/XFLPf+WzAOtV68L2h4N1O/rpglVx4+feNrDcv5qvEa8/12XpetPd1stuUkfaHMXR2kfSlMXTNshy1M1XRtV8bUJBn72LjbidR7k2/taIggfdHdwOu2mS3eCycBOPvudrF6X5f1oa3PrIpabliZ3Fj9tT9bJu5+tXOqffFvZ4KHP1ckF8h3PCbSqifVQPxKmf9lMzHKUqk6EiNECx8jSv8HzdJlWZXiTbDmT71oJqJxJItmzI8paCREseLkhXKLFNUu4bombIT8OcicpUnIpA6i/KPMvPDJyfdU/OVe19r0iQp0caYlXVwZzCypzCz4nOwJ7GwrLKzYAshalhgqSkh0uVW9xRhXm95YdgzUl7C8fDsiwvNNt4sdnGPa2ba4oUTTW3KBLkaa6bIyQa4aYySlIywJC0i+e0RgZlXWyp3ARFvWQlKUZkQZR1N/78WRfyiiqPvyNW3MDnvInTvojVskRb+wZOW56gO09PPE82mkev30elO2Qi+1wBrEOpx/icJ0znnjDV/Rw+5wlFgjwu2yOu9bxSgGk69DzDqZeY638Vo+EBY5mXSQWfx20/vU6hOWaq+wWGu57H43jA+co8ev0RutZ9OjrzdHSu/8VPi+0Lkhu3S2pHKBLsolKHkMj7EDcNU16/hN+SJGoPk/b4cRiyJF1B2prHCkDN+UN0uWN4TDmk8jkuCreoEd+h258pwNXaOc5oNMFQJEnK08dAKIOpYwKd9hpBW46BYBRx0wJD4QhS+TyG9jHirgz10lvEXWmaddOcr9xB3zaAvi1LkfDw258bx6rYjHwksJYax5c+72AtT+0uXZHs/MuAofdPp71uHvcoGHYFqaxb4Ur1JklTD68PNvMLoyp+cVzB1yZOdT9r5G5Gz1dGFXx5WMlm3EavPcUbQ2pm/X7uZVvJWFK0a0f/vKh690/KwmvPtJpfkd69Ue48+lgpPZebd79xpWP67brpTmrHTVyULFOZ6KYy3kPNSJSGeXfBqYrXzNRNBRHE+7nYtEyxeonKVD81Iymku7YCWMXrLoTZXAGq4mUXjbd81E7EqAgNUTMao/GWi3L/IGXuQSoiEWr6bG+W+Jc/kbeSCsfYZmnlMoqaSbKSMHeUnTgah1lUerE2jNMjTbOnsXJfa2BF5eJIa6WlbpZDjY01VZDXW0y83mKiV9bDG62nx490dvT1s3RJBjjWenij1cxrLWbOCXbpl+UK/2ZQ1k1MPEBM3M+sPEJANExWkiQmzpJXd5KVpN85X3/8L846lxL3/lGZaOXN+qYVVLoVnLZFHNYlfM5dUqE8nfpTsPbE8zjtefyuIzo7jhjuesxU9ylgHdb7TOeekAo+ZCz7PG0d96iXHdLZeUIy8DyzfafONeR5jtH0y3jsj5jtexVN8z1m+17BYnpAk/qYvvgT0uHHxAOPaFIf0Bu/T8B1l6u1O0R9y+9W2Oef/0lzuNJ+/DdrxW6Khavo243o242o1GEuVm0iV47TKL2OQ58lbI8hFC3ht2RJe6J0tI4ibprHaeylNxCixx/Coh/GZ+nF1DGKsWOCkWiC8XicyHuhgZirj/aWaYYjUXyWfoSiOwyGIhjbxxgMRbhYtYXH3EfWl0ClvoahfYzL1RvIFNeIOcOo1WMUVeX/8vPiWM/L9sJnAuuFknX/XyWwlgfn8gOu8PeOM1qu+53sd7Uy4Y3w9UkFXxlVM+DoKoB0JerB3TZCzNDHccbMUdqMUTfBStRJnz3FV0YVT+lG0M2rgwpeHVRwr7sFnXL2n5+vvvcfzv5Ld/ixQFSsvvurV40Tb9eOmyixDVDu66ZhzoV4xUTjLRt1E8ECVBtvOakIDCPZcCLbs3JZt4hkw0njoh/ZvhVhTzfVA5kCXKu6+pDlLUjWnIiXXaeAXXEh7ElTM5hAtGxDsmFBtOSkSJCnWHOdCl/6z0vtqx8ra0CQ3Ljd0DCv75K4mJG30i+1UCVcwlA/ya7G9lQYYFnl5q7WypNmI87GMR7ozNzXWlhRhXikc5CQDPJGq4lFZZQVVYQ5RZKXW6yFBaxFZYy2+jm6pX08r7PyesvptbeVQV5qNrKh8iGoWkNfP86S0s6ILMyqykKR4PCts87nUs29P5Qqp6mRbhLynMZXW9o2CjBtbT/9zETy6Dv3GUodM5Q6Ju4/Iug+BarXccJg8jF+10Nmel9kqOt5ZnpfxGJ6wGzfq3gcj2ltPyHsfUJD0xFDqZeY7H6FWukh45mXcVgeck6Qx+d8WAgFGAxHDHWdMJA8dcAS5SbV0u2/+Elu/FLL/lckch0ltQvo2420tdqQyjNoNP20tWTw21z4rG4aJdMUCfKU1a0Stnd9IBxgN/ST9p6mYrlN/QyGIwRsvcRdvdSIlhkMp/BZ+tG3TZD1dTEciVIkyKPTXCNkyxGxd3OucoeQPUezbhqfNUfMmaJRdgOrPkfMGcbY3kdR1e73Pot81rM41vPq/cAZwbrn/asA1rLwxrpAvPz/7nW1v30vo303bkoTM+Z4mNPzSxMKvj55qud6O/mbQ7oCXL82oeCNQR0h/RBX38vtvFq9QbNylg7NDN72Ybpt3azGnPg7+rnu9xLU92DUjWFtGcbVNvROUXX+2x8K/I/ZVEWQ2Vq80nHtvwhiMYQ5L9U9XuqvnUL1fdVN+qjKZKjuS9FwI4h0x4Zsz4pky05lYgDZnpWqbA+STSeyfSuSbQfVg2mq+zMIe7uRblsRRIeQ7r7nXFedVHVnEK9ZqerOINmwIF61UiTIU2odo9TRw7marXeumrY+8gr6lc7Vv1latcKMvJXRJj22hixFgl1uK01kJEm21HZOdAZWVS6WlAGeNBt5ojMy0ZTgSGvjSbORQ42NQVk3+vprjDadhgDeh2mvtJfXWk6Pe6S9rKtDzMoTDMm6eb3FxD2tk7saOy81G3mp2UhENMg5wS490jhZSZIdtZ7iyi3OYlpdEQAAIABJREFUNRz9qw+bizC9c7NCPNt1vmqnAFWndZGgZ7cAVrPp9NPjzNOfOCqAdSh1TG/8CKPxiGJhno7Oe0z3vMBM74tMdL+A2Xif6Z4X8DoeMdf3KrN9r5KLvkCRIE+d7BC75T5m412s5rt0hU64WruHVHnESNfzOG0n2C3HpEP3cduPOVe5i8W0RqN8+50y5/LDD/wB165983L1HFWN43S0mVGqw2g0QWyGEM26HE6TH7/NhU0foqR2lcrGJWz6LPXSBdymXAGsNv1QoXCgNxDD0jnCQChCzh+non4Vc8cYg+EoA+Eo9dJF+oJxtNprXK7eJGTL4TCcpsMZ2sa4WrNBty+Ky9hLi26cJsU17IYsgoYligR775S65pY+dbCeISugRLmqPxtYBfuezz1Y3Xfu9Tkib6bMiXfvREyU1qyRNPWw32XllYFWvjqm4rXBFu5mTKxEPSjl8/TZ0tiax1kKh3htwMgvTzbzm9dVvD5o4HYkzDenNPz6NSW/OqPmlye1HHQ5uVC5jaBuBV/HAIeZdl4dVPDKgIK6hqXfFTYt/d8/LXug1PfxSlWFXdu3iqr2/6w80P1O7ZiJ6gHnU1BtWLBRlenicuscxapFyv2jyPasBYnXXNTPRE8hu22ndiLxVIy1bibKRdkK5+s3uNyyQLl/lLrJKHVTUco8o0g2LDQuOanuTyJatnOlbQ5BJEvtqIeqjJcLouUfCDJbz7wYJ8hsLV6qXP9BW90AIzIDWYkDc0M/WWmMOYWdDVUnU3IP+vpJ/KKhU6i+px21ix21iye6U9BGxQOcF+ywpgo/lb/6UrOVFVWEN1rNZKT9vNZiplfaw4nWwaw8wW1lhBOtlZeajUw0JZmTR7laucl1eZCAqA9PYz+exm5qa5a++2HzKXHsHVdJBv9No3webfMUIsUdLlXvkgz+EKwue554IP9e05UfQrUndoTTeoCmeR+pcp+Sun36Ek+Y6X2Rmd4XCXkeMZl7gameF/A6H3Gt9xXslgf4nPdx2e4xkX1EV+iE/sQDJrKPuFq7R0/sPkH3PTo6j8hG7uOx36VJvUedbBdt8zZexwpFwocfMAXnhUf/qV5qRaGKIGrqRt9upEE2isvsw2tx09qSxW9z4TAGUKtGsOkzRJ1BUh4fYUcYq76batHS6ev8j/QR6PKkSLjSDIYjGNrHcJn6Cdp7GIpEcRiH6GidpKN1kjrpIiW164ibFjhfuYO4aQGh6DYOYz9RR4KMN8T5yh2k8im8Fi9Fgv13r9hnP/Wm12W2xY0PK0h4BrAeuj/PYBW6l+/P+J3fe9Atx6gdoa7xNjFjHxOeGEthH9sJB0sRH5PeGFPeKA2i26eVRlVbTHq6+NVpLb89pyzoW7NKYsZBfvO6sqBvTGk4zjhwto2TMvfwt0Z1HGfNDLui7Kb0uNr62e1SviNrnv3dHy8brAh99K0v3ldR9f63LyoWqB01I+zxUNnVRc1okDLvEFWZLmpGQjTccCLMJakdD3O57QZ1U9ECWEVLvoJ7le1ZqZuKUeYdRxAboma4i4YbIRoWgpyr20S87EGy6aBx0UdlVx9XOmepiAxQOxpF2NNFVXeGqkyCMscwjQtGakc8nK9b43LL6teedV4lLatfa6yeJCCKkJE46ZXamFPYWVYaGWnys6nuZFPdSViUJS7OMdEU/yFcdUZuK/080RlZUITYUbtprptDXLPElLyLWUWyANcBWY6Xmq2MNWV54720q9dbTCwpIwzJullRBniotXBLESIuHsBQP0leY2VF5eJq5QbTTQYGpI53L0qP/unPms9V897jIsHuP25tG8NkHETbMsH5yl1a2tbQtOzgcewQD+QRK/OEPIdEvYc0t+5jtxwQ8hySCR+RDBzhc97FZbuLwXBMwP2gANd0+Dlmel8kFXqM03rCaPoR49lHXK3Jk4s+YCDxgGz4hKHUQ4oEeYZSJ7hsx8g1B3gddymvz9PWvofVnCcR2KWjc43zwv03f3weF4Qb360Vu6mVDNPRZkLfbqSi4QY+qwu/zUVbSwaXyYepM4HLlCJkC2PVZ4k6A6Q8PlIeH+KmWQLWNA5jL+2tE+jbxki40hg7Rok4unEaBxgIR0h5UjiMg3T7k7S3TiIU3aFGfBuV+jrnK3c4X3naqEajmcZu6CXuiiGRz502r1EPEbC5TsHqvP6pFwqUWZbWS33jNz8RsP6N0vvOzytYqxyrj4fdvu8uR/S0qCboc6R4sb+FlaibXxxXFl7/vz6p4GHOwEbcz98Zb0Mtn2c9HuDVQSN7KQ87SR/fnNIV4LocDRag+s1pDQdpF79+TUnOmuNJn57bUR/fmFbwtUkl+ZSdmLEHa0svG0n1D5wdvX9Z5Vh9XJndvVERPtz4uHO8rD38pUuaaYRZC+X+GBdli5S5Rqid8D8VBqgZitB4y43ojoPy4BANNz3UzUSQ7VmpGe56CqrC3iyVqf6nXGvDjRBXTde5aphFmj+9tn4uhCDaj3TbQsOcn8quHoqE29Rfs1M36aRu3I3olhFBNM25us3vP0u5ZGV290Z59fJfVFQtkRB7mZG3Iq+5xrpKz6a6k7Qkwaa6k9tKE93SFIdaPXdUDvplyVOn2mxkpCnFocbOLUWYl5qNzCsizDQluKWMcV/rZkbexU1FnDV1iCFZjkl5mjdazXRL+8irfdzVuCirWqdH2s2CIsyLOiMxcT/OxhHuao2c6Az4RYM0140yLLMhqFn/o581nyv6tdcvVd/BZBxErx+iUT5Pk3oNk/EOYe8idusdmls3uFqbp6XtAL/z8CnXOpQ6xm45ZDD5gJH0A9z2u/TFH+C23yfie4hCc8xE9wtEvA8wGu4S8txnsvsxCs0hYsUBw10PcVrvotcfUyTIM5o+Oc2bjd8l7D2iVprHbc8T9+fpjuYRircpb9j8yx+PsxZrl3+ztG4IQcM0Op0bfbuR0rqbuC1e/DYXbrOXtpYMbS1Z4q4ASbePoC2CTDFNwn0KVpV6kpw/WFDKHcVtyqHRzHC+cocG2S181h4yvgTd/jidbRO0Nk+hUs9ysWqbYuEWl6s3OCfYpaxulTrJTSTyOS5WbVMjvolGM46+PYVW2/eZOdZS/8TCVcOtn7mAdXawlj2wfR7BKuzavmVsnviVMbeHtCXOgCPJL4wp+Oq4gi+PqFiLufjyiJZ7WTO3QiFe6DPz23NKfuu6iqR5gN+eU7IaC/Hbc0q+OaVjL+VlJ+njlyeb+YXRdr483M43pzXsdbn59WunkM1Zc/zSpIpHPQZOcqb34KqiSXYTlXyWdvUoWWuAysY7b13p2HxdkNj52Bu/Xajf+beVKQfVfZ0Uq65zQbSCIJqlYd7xNFSXnEg2LUg2LVSmc0g2LTTcdFM7EafUPoVo2UP1QJrGJd8pNK9FaFgIFsAq7O2m4WaQ2vEEtWOJ07DBuhNhLot024J0+/R7XzVeo9zXR+NNIyXmcUS3jJRaRzhXu86ztKeriN5ZL6+aoKOujxl5K5NN7SQkyYJL9YtybKo76ZHG2FRbONTqOdTqOdDomZCHyUq7aai+zagsxfO60/joA62VHmmOexobt5Wnr/8nOhejTVmqhauoahcYbuomIBqivvo2SUkPqtobXK3cJK928VKzkbGmOElJjl2NlUWlF0HVCk011+mSBNA1THy/NLzyU1PtiiVb/1uNZAijYZBG+QIdHSPYLLdpaVvB71ok7F3E71rkSu0uJXW7mE15zKYDkoFTwOaiR4Q89xjLPGQs85De+Al+1+l5T+wBV2v3MJvuMZ55xEjXIxqaDoj7T/A771Nav4fPeQ+R/ICy+j2KBHnSoftIlPsMdd3DZTvEbt3HYs4T8+WxWXYort6hVd/351Vd60/1p72s2/x6rcSFRO6iURahTprlYtU6nW0pvBZ3wbXKFOMEbFFSHh9Jtw+fOY6pvYek24ehfaAA1bQnjNPYg6ljkPaWES5Xb2LuHKKifuV0IbRqC6V6lirRHYqFW1wSblJat0pV4xLnK7dPUwUrd2hSztDcPELCHUDf3o9VH0Wj6adIsPfOZwHWCu/k/FXDzZ2fdU1xy2LHmcD6P9RN1X/uwJrbmS+W7vxze0s/xxkVkx4fXx1XFPTKYDP9jhRlteusxwNPver/vWsaHuVs/Packp2kj18cbyt87e9Oa1mLBRl1Z9Ao5hl0Zvml8WZ+bUbFV8da8HcM8/pQK9+YVnA74uNrkyp+ZUqBomkee+sw0z4v63EttyOtNEhu/5NndXA/LkF6c+lS88xb1f0dlNi6udIxRYltmPpZA4JEispkBkGkl8ZFVwGqkk0LlZnuwnH9Dd/pyq1nouBE31d1fxbZvhVp3kqZZwLxhouG+SA1wynEqy4kGw6qB1MFqFYPJrlqvE51X5yagSAVoRx1k07KfVnKvCmKqo7O7Fova05+5VLlGuraXlyNcSwN2QJUN9Wd2BsHuaM00SeLF6B6qNWzr9Ezr/BgbBinvnqJ6aY4L7wH1peajQzJ0rzUbOSuxs7Ke/HWBWWM1rrreBpHeKgzsqN2YGmY4KHOyC1FgLGmGKNNcRLiPkaaEgw3JVhRuQiJ+mipm2RIFmCqyUBcHOZ81aM//Glzuli98RcldcuodVPo9UM0t07gti/hcSxhMJy6Vpf9NkbjNmbTNunQNtnINg7rLp2deRqb9oh47zHS9aAA10TgPv2J03O3/S6dncck/CeMZx4R8pxQLzsgG3lAk/oQufqQkto9lNrTnqxS5QEm4yFR3zFh7wHxwAEN8jwK7Q4h7220LSu0ddxYKbMcPpWTfKlt72+fE2whldtRqtupk0Y5X7mBUp2msWkIqWKAJuUw5yp30GlH8JgThO1hUh4f9s40UvkM5o4BIo4kNn0f5o4BYs44OX+Qbl+QqsY79PjD9AbCmDqG0WhmqJUsolDNImhYKYD0R5sEKdRTqNQTtLcOYmjvo1p0i1rJDBL5CEWCvbdLnddufepg9X14X9ZS+Urb2cDasFr7uQJr9+7CZcnm72Zt8R+cdMu55nPxyqCOF/tb2U7amPBGmPGHuBH0U9t4h+v+OL91XVWA50v95qdAuxoL8mszGn5hrJ2TbjuL4Qgm3TRFgl3MuilixkEy1j7ChmGq6ldYjXn4hXENXx3XMO2L8osTaiKGfkZcEZ70apkLuFiL6TDqBrkgP/yfP85cz9cc/kFl0vluuS9KqT1H7aSVimCGhjkDDXMGqrJhruivUTcTQLzxI2BN9SDZtCDesFAzGj0tEKjaobo/g3jVVQBr/WyYhpuBUzc7mEa6Y6c8eLrwVZnupX42TGX69HvVjMYRrzgoVi5S3R+j8aaNq4YZLmkWqEx7qB3r4IJkiQuKo79/lrkVqw5/o1Y4Q0KixS/SUyTIo68fYqLJw7pKj6exF5+olzsqBysqO1PyIN3SFF5RP3MKL2NNYWYVQRKSHvqkGY7fW9lfVgY40dp4qdlIjzRHRtrLjtrBI52R0qp1VlUe7mtNeBuHeagz0li9xLzCz32dgea6a/TJkkzLw1gbRumVRfCKelhWGbA29FFfPU+R4OADMcnC8xLufP985Q7vx1glyqWCU23rWCbgXsRsWibk2SYT3kavPwXr+xIrdnHaDmlpO8BmOSLmv09f4gSz8Zje+MnpbgKZh+SiJ3gd9+iPP8RsPIVtjWSfOtkBRYI8Tuvd95pj79PSdkDEe0AudoDdeto4W9e6RtR/G5/rNtrmWa6a9x7/6DyutB19qUHWSWVjLwpVB9XiNJerb2Jot2HqtGDqtKDVhWmQjeM0+TC0J1FrhhA3TVInuc4FwRZ/oyKPULSEUj2NpbMflzGHsX2QZt0EV6o3aGsZx64fwGnso61lnGrxEsLG20/B9Ed1tWaNsrplHMYUYXsQhWocjSaDoT1AUdXOdz8LqFb4PnwngUu65Za/kmC9IDv+xxNewzsZSxhPew/9jiT+zgGuB4L87VElXx1X8KS3jUc9BqKGfk5yJjYSXr41ewrScU9XAaq/fk1Dr62HJtktthI+/u57C1lfGW1Ho7iBt32U37p+uqD1rVklIf0wxxkb/Y4Ms4EIU94Yo+4Ei2Enbwwp2E0ZeGNIwY2AiybZdS5W7775UdvvCdM7N4uVN98sdaQR9uqpiCZpmDNQEU4XwCpIJBAtGamd8FDdn0C0Yis4VvGGhdrxCOIVO6IlF1WZ7vfSqrJU92cQLXuQ7tgQ9nZTNx1DtOJBtm+lxHwNad6KZNNBZaqfMu8oNSMJJOs2Gub81AyHKfcNFsIQxYolBAk/NSOdlPuTnBdv/8uzzO+SfOsfSGpGiIu1yGqGKK1aZqypk16pDU3tOI7GXlrrpjDVj9Mni7OlNj/lXKPiHo60JtbVDvpkKSaaYqwq/RxpHGQkPTynM9Mt6cbcMMmhxsojnRFV7Q3a6q7xUGd8r/GKgyJBnrzGwoHGjKF+giOtnoSkG2P9CNfkTvplITbUnfRIw2hq+ykSbL/107I/LjVs/R/Fwk3aO0YwGQcpb1gj5DkF6/uutbNzpQDSZHAbh3WHTPj0XK/P0588KigbOaRTf0Bz6wHF1XkMhmP64icMd53GYF22u9gt95CqDqls3P8AjErq8uha9mlpOw0NCMV5tK2ni2naljV0rWsIGlc+ANaK6J31ysYEl6sXaJAGUarbKa2dxdhhxdRpoaPNhUYboUmZw2d1PSWr/jQlSyS9TmXDIjLFNHZDFxF7kKA1jKUzQ0ntKi5TNzFnjKQrgtuURdI0S6Ns/gNzkCuvUSTIU153hybFFE3KKfzWMFrtCFL5EOZOL0WVB3/2eQHruaYFzacL1k+pV4Cmc+afrsWa6FAP0iBa4nFv+1NhgJf7W3jUY+Ab0wq6rd18abiFX5pQcSsc5luzSvTaGf7+rJLne61Merr4zetqFsPhp1zsk14rxxkXOVsPX5toLoA1Z+3hyyMt/NqMgl+bUbCVcFMkyHMv28YbQwp6bAneGFLwxpACV1sfYsk0F8VH/+wjuVXhc79frJylur+DMm+S2jEHDXMGKlMx6mcN1M2YKff3IloyFiRIZmhY8FARHaAiMoB4xY50y4JkzUZFeBDxioPGhQDSvJXGmwEE8QHK3JOUmK7TeCuAZNOBIDaIsDtH46Kfi7JlLkhXaFz0IN22IOxJI1qyUGKdQLxiQnTHzLnqLa4ahim19VARCVNUdfT9MzlW6dL/rq1N42q00VqXJC1xYazvZbqplRl5K91SB+cEO+jqZpiV+8hrDD8SDjBwTREsFA4MNyU40JjZUduwN4xTUbVGRpIrvPZXC5e5qzXjbRzhnGCXZZWXbmmWa/IIRYI822oburrrTMjDHGr0JMRZ/KIeuqUxlpRmbiotSKrncDZ6UKtviATxjZ9YCnrFdOP1i8J1xMp+aqQ3uFKzgcexVIBra/sy7R2rT7nURGCbkOf9kMBBAap9iUN6Yoc4bQcIxadgFCv2OVf5Xv/c6tNX/faOI4oEec5V5pEoP+j0NM17FAvzNLfmycXy+Fy7eF13CLhvc75yl/LGm98usR98YNPBK7W3v31JeIuS2uso1e0IRSN0tjkwdlhQqLowdZ5+ei2nQPVaXNiNAWyGID6rC0tnhoAlTNzpw9DWQ2vzIFGHn7jTh6DhDhlvkJQnjLhpDql8lmLhJrWShQ+M39TRzznBDpeE61yo2uJC1RaXqjcoFq7T2pxAphzkfM393/vMwPohMdYrqtuKv3pgjd7aHnTZvxvUx2gU38SoG2XW7+L1IS1fHVfw2qCOlwfa+ca0gm9MKxh1J/n6pJJvTCv4+qSSEXcXMtkthl1ZfuOaugDSuxknXx7pLJxf98f5pYlWvjWrZNqb5DeuqfjWrJIRV5pfu6YogPVxj5EiQZ5W1QyvDyoYc4d5rlfHYbqDfrsXg7aHYuHd5EeZa1Hl/n+7KH8PrO7ugksVdoeoHXVSlYk8BdX3VTMc4JxwmxLrFNItS0GC6ACSNRsN14M03vQXwgG1I8n34HiNhnkXVV1ZBLEeRHesVKazXDVMU+4fpnYsRol1AtEdE1c6riNaNnGl/Trl/ixlzh5qxzqoHevgknbm3bN0qj9XdfhdS4OHjrooXpGJGXkrXRIPYzI9M/JWIuIIAzI/WWmEVXUHKUkcWc0NpuUBrI1jHGtNT1Vl9ctSheMeaRrXe/HUhzoj1oZxuiQ9LCu9SGpu4W4cISXJ0VZ/6ob6ZCn8ogFWVHa6JGm21AYGZWGa66ZwNvbQJ7Mz3qRHVTuIpSHET0uhKzVvvXSpehV1cwJ1c4IiQZ6WtlmqJes0Nq3R1rFMfdPTr//ZyDZtHdsEXNtYzfv0J49IBA9pbd8n4jukP3lEb+IQoWSPodQ9hlL3UGgOUGoPqBLvI9ccIJKfhgBMpr0PgKm5NY/NcgrVrlAelS5PSd027R23uFS9zTnxhkqQ/OAfijLbwcNzgi1ETW6U6nZEMj+tLV6alBkMHachAY02jv09kNqNAZwmf8G5tjX3E3f6CNlCJFw+Ei4flo4sGvUYJbVr1IhvFcZYWruCWj1OVeMiZXV3KKldK3ztQuU2tZJZLlWvY+pIEbZ78JhDiGTDGDss1EuH3v2soFrhm54rs137mT1ZS1q2Jc8OVsfQ/NnBunD4Sbfbq1cu/ouwPvKurz3Fdb8De+sgT3rlrERN1DbeZjPh4lemFAWwXvdH+IUxTeF8OeqjuGq7EBZ4X791XVVY5PrlyWbmgzG+OaVjJ+nl782ouZd18K1ZJaPurgJUn+s18qTXiESyyIwvRL8jwYQnxHbCRI8txm5KzqDTias9+na9bv5/fWawVuX/sjzUSrF6lDJnfwGsNYMehN0hKsLdTwG1dsRPiWWcikg3l1vmuNh0h4Y5XwGskjUboiUX0i0Lwt4M4lU31f1p6mb8VHV3UTsWRLxqpnYqQM1YCPGqmcutNyj3DSK6babEMkGpfYzGW1Yut85ROxpE2B2kZtBNdZ+XqowbYa+V8/UrVEZvfWiTmiLB/rvymn7iYi3G+jAz8lOnam9IMyNvRV/fx5JST58syHWFjVV1ByuqDlyiXlyNg7TUzTApjxRguqZyck0eYk9jIS3NcqA1ERX3kVfbuac1ERb3MyjrwisaRlc7S331baqEK0hqbmFrHOVS5RY3lW4WFE7ymk4WFE7OCXZISvzMKlqZkbchFC5iaQhRGjz4ifO7at57fL5yC3VzgmrJJMXCDSzmCayWCczmCTQtc1SJN7Fbb6Nt2aRRvk21ZBtB4w4XhbsUC/M0qfcwGPZJBg/pjR8R8x/isp+u9Pudx2TCx/TE7uKyHSFR7iNR/jAEcKHqg471ojBPnWwXi3kLv2sTuWYbl30WpfY2bR03OVe5/YOf/ozyXK5eQCTz0yALUFK7SEebqxBnbW0O0tmWxKoPFZzq+5Ioxkm4fETsAQytPWg0IwhFC1ys2kSqGKW1eYiII0jC5cNnidHaPIBUPoVINkO1+AaChpsUCXaRyEffy1kdxGny09GaRafto0mRobPNzrmq7T/9LMFaYp/9mftsVRoeVD8zWEtdgwullonFM4FVs7T/iYI1trglkV1/czbQQq8txHFGh6+jh+f75DzIqehQT9Jr7+K1/5+99wyONTvz+8YfcJEaoYHOOeecAxqdAHSj0Y2ccwbuRc4Z994ZzgzJGZLL5XJrteSqilPi2lotpVrJZdlrWSqVglPJli1bJXldstZZkjdIWpLLCffnD7hs8nIC75DDuWQVP/wLb7+FdOo95/c+5zlPeHpq/ztrFg56u/jqUwv2y5NBfnUqSI3olrVcPw+6y3xxPPGM1frWop8vT8b5xoKf39uwUwjO8x/ft/LmWJLfmgtwv6uPv7pu4bOjcb425+WVoSQHxSw3/QneWrTwylCEduUpQ/EeHg2auOk3o9TuYDIufujk/SC1Ddwe1Jvuf6e918U92RkC7yLCzDCichnFQif3ZFdIJ3sRVYZoiS8hGa6g2kih2Ysim+xFtZFBNl26K249MlyFq3hgHMNVHPVWF7XqcxTLPejOYiiWCtSqztGdxtCexFBvp9GdxqhVnyMeGEZ3HKUpuIFqM4WoMso9+SXSkQKSkR4Ui0nU90O0dkzRFJhC4Jugzvja3/rxL45XvxNX56jonTgU81WwxtSjLJkChFRTVZhOGbs5sIY5tQeYNebZsaR46AhybIuzYCqQVC+wYOqjWzvDpHGAV5xRPusK81lXmGNbmmHDKOvmXnp1UyikRwRV69gU29wT3RJVL1MnuqFbO0mvbpQNcxar4j5iyTEWxSZR1Tg92j42zD7uiW6wKSY/FKzCjs98rkZ0i81VQazdQKQ5IBZ9CtboMhbnFnb3HoXcflU92X0yqQOsrjPkhhvaNbd4/dck49fk0ldEo9fYXDd4fA+Jxx7RlX5MT+YxHfFHBIKPaJI/fAasLcqHVXdBjeghRvs1WssNXv81g8VLYtEr5IYzsqn7SHSnNEhf/pMPe0YCz8Vvt6lWsNjiKPTDT63LHdpVmyh0i5isQ9RLLqiXXCBS7yDRbCHRbCFS71AvucBimyMSKJMMF4j6SqSjOYzWBfKJNMnwEP2ZPAHvJJ2RMtHAEGbrEmrjOu3qXWolV7QqD+5AbF6kUXZGVzJN2N+PTLeK2TqERLP+pDGw8canCtbE9kd2hn3J+ZOAtWN693nB2mDbf/hJ9k2qkT36VwOx/JOpVCdXFT9vjlvpDQ/zK5NmDnrjfHnSydfmLDwaiPL6SIzfWbPwcLCDz49F+OJEmC9PhvjWuoWRxBivjyT45pKH35oLctRb5M2xJH9tw8FRb5HbgVzVinVZt6tugOH4BP3RSXYKBX5jxs9fXbdQDE1z3pfiK1Me3lq08NaiBYNhF7Vum8VMkkeDJqZSd37YOtNr/+nzjlXUd3vUksg/aYr0Uqs+oMk/j3zWj2Q0QVuufHcwEVtGtdnxPleAZHDwzv95GEMtEmj5AAAgAElEQVTcP4JmP4F0oh/1VhfC7OLTA6gS8rlemoKb6M5iaA6SdwcEuVl0pzFks30oVrvuDjzGK8gmyrQkF9EeRlCup6k37aO+H6I5sohqPYL6foiW6DwCzxQC3zj1uof/5Y8bY63u+h/rZJP4lb1oZPerYF0wBunR9tKjHeTUHuDUHuDIFqSkH+DUHmDFnOahI/g+zRqLtIjPaZWcY1FsE1avMKgf4cye4tiWwaPcRCY9Ri/bQyvbxSDfxq1cQyvbRSg5o1Z0Q1ozfReQLjllxZyhTzfImtnPgilCUj1CnegKo3yc9sLLH5xNN3q7Uyc7/y+k+jUszkE05kXC4VUS8WWszi1i0WWszp1nwJpP7xONHpFJHRCJXFHuvqIzeUUwdE0hd8Vg8Yr+nit01odMlF9movwy5a7H2FyPMNoforM8RKa/pUb0EIH8IXL9I2T6hzQr7sDaJL+tQlaoukWoukVvPaYj8QCB7JIW99Ff/LBnJCxdn9SIbnA4gxitaRplB1jtaVyuCA5nHJVhFIHsCIV+AaNlhJA/QcifIODtxOvJ4XaNVi3YTDSL0zFONp4hn0jTLD/B456mO9FNd6KbdtUBkWAZgeyMJvkJLtcIbvcQNaJbgr4Kbap9osESbap9ROp1pNpVaqU3/8+nCdX2/NqDltTOyUeltb4keVX68cHaObv3/GA9uP24XSE/TJLy6UnYNf3OaZ+ZsWSBX5k088aYlWJ4hDfGrEx0VPj6nKWqx4MR9os5PjsaI+lZ4ksTYb61buFb6xZ+dSrIt9YtXFay1Wyr35gJc1wq4LPfJ+lZ4TdnQyxlBmmVXzAYm2Q6NYJMfYJKe1iF6m/M+Ngv5vjCuJ+vzdl5a9HCYW8Gk/EBucAIWz1BRhN5uoMDd3F58tf+8HnHKyxenLemOp80hUsI/JO093YhHuhEPutHOhGmVnNMS3wWUe8g0tE+NHtRtAcRZFNFlKu56om9ajODbLYX7XEU+UIBYXqBWu0Z2sMEutMYotIEkpEhdGcxmvwPuCe/RLPXgag8jsC7RXN4DdlkmUbHLrLJXjT7EaSjfcjncshn07QkZlGtRWgvlBGVuxH4JxB4J2ny7n1k6qd45Har0Xz5+xG1C48yQYP4kqBygl5tF6smH3LpLmV9fxWsp/YAG5YkU8ZuBvXlZ4C6bO6ioh9i1ljkwJokoFph2ljGr1qtAsWuuE9Ss0CL+IIa0UNEkhNEkpNntswG+TYZzQR9ukGObBHO7UGS6mmKuiIJ9Qg2xQL3RNfEtdHvCkuXJx82rjrjo//8+35Wi3MQf3Adj28TX2CdRHwZp2eLfPoOqtnOA8KRI3qyd5+jkWsGi3cwLXdf0ZG4JhC8piNxTZvqIaX8Y4y2R9SKfwBKheG2aqE2SB8i1typVfmQOsktVtcFhewJxdwJqeQpDbIblMZDjPYd6qQ3l+1dtx/ZHbjRcvM3JJoZROp5TNZOTNYu3O4wbncYtWEIvbkPp7OA15PFbB3Caq8Q8ieeHnJNkE+kycYz+DzDpCJduJyjWGxjNMsPcTgmKXbkcDjmCPn7CQcq3BPd4HEPoTUtkYpmqBHdkgj14HBMIFJvoNDP4HHHECrv02A7/91PHazJ3eOPSmt9qfEnAGuLZ+2itWNh93nA2hRYP2krXX8ibTxqZZ/7w7Sv8iTjG+Kq4udXJs28Muwi55/gshLk86O+Z8D69TkLjwYiiJUnZP3zVah+a93Cf7RiY69Y4FvrFk77uvkbm99PDnARca0jUZ3wcKCD35p3sNXTw1Kmj7cWrSxn+8j5Zzks5jgp5djuKfLVKTePB2O8Ohzh63N2SuFRFrN5dgtxtnuCVXeA0bhJjezhHz03WDvvv1FvWX4izIcRZirIZ/0Is3dfxZUs0rE87b0VVBsh5PMdtBeGEPXetVnR7HY8k+oqnSijPYijO4kiGR6gvTCJdLKM9jiGZq+DpsB95AtFZDN91JuOEGbnqdOd0hJboVZzhmRoEIF7C81+FOlYCfWDKOqtKA32bdqLA4j6isjnAijmAwi8UzSHhxAEJ7/948bYYHv0ez5VBI8yQavkkH69jx5dnJCqglq2ik62TU47yqihyLqlgyNbiIRmGrP8AXvWFGXdMAP6QR5YfmDBPrBkWDX3VKMHDm0purWTeJVrZLUzSKTHHxonqZTtI5Ic06mZpFc3RFE3gFa2RUJdYcgQI6Mt3O08FPsPP8pgEPbcnNeIbtBaZtBbJzDYdrG7H5CI37kEfIH7xGJHZDsPiESOnrFevf7LKlgHi1cUcleEwlfI9DfUim+xu29xe2+JRW8o5W9IxK4Ra29QGK6pk9xSL72hTnxLveSGOsktIs0VkfAJkcgppfzdV71tD19gDW9gnVrZ2ed+3K6yrf92r0b08rv1klPsjhBq4xBudxizLYfR2o3TFUVtmCISiBMJxPF7MpitQ9jsFczWETzuUaz2acy2Gaz2EQLeHC5nCb83TzTYgdU+TSxYoiuZxmBZRKHfIBXNorfMk46lECoPiAcLqI2zqA3jaE1DWO157okevtOUunzt0wbrXfbV/odGBrz00vOC1b4ur/pNrbufaU/Nbj8PWNszC1uinpd/6pRO8cjtVo345T+d6jTRpjhgOZvl82M2rvv9JDyzzKcLfO0pTN8c83BQ7GQpW2Q9303KO49Ov8dKro+3Fp18a93C765ZiLjW+N01C7+9bOeqkuPXpiLs9BT4wlgQmfqY35hx881lC48H45z2pfnmsgW/fZ3RxDBvLVr48oSXlHeevUKO7Z4udnryzKULvDzk5rwc5EuTZsaTPdwOmBmM3WU+1UhuP9SX9b7xyl7714LAwJP2Xhftvd1PwdqPdDJMe08R5WoExVIMUbkP1UYI1UYI8VCB1s5Z2ntHEfcPI5/pRb3bgfYwRnvvBLqTKOL+O3+p+kEKyegA6q008sUC7b2TtCSXEFXGEJXHqRHf0l6cpEZyQ3NkldbOeaRjfagfxO4KryymafJtUCO5RjLSgWL+DqxNoSmao/0IguM/1qcscHzuL+vkg5jkJUyKMYYNrqqsiimiqlEWTQHGDUm6tX0ElFOoZXfFN5rF58TVc/TrBxk3lBnS99OlHcck3yKuXqCkG2PCUGHc0E+vbhyvcg2Z9PAjwVojekhQNc+KuYNDW4BDW4Ccdpg+fYoubZ4po5d2yQE1osfv/Lix1Rsf/QOLYwqR5q46k8m+gz+wTiy6TCC4jlR3gdNzQk92n86Ou/hWl/cEoerOQvUFLrE4z/H4zuhIHuLwnBKNHlHMXTPce0Ol+4ZI+IpU4gKP9xKT/RKB/Aa5/q7spdxwQbPiGpn+Eo/vlJ7MIS7POWrzES7vJpHIMgL5JfWGl//+88zH9v6T0xrR4ydWexStqRezLYvGOFC1XE22bgLezipcI4E4TmeBesk5NaJbZLpVQr4M8VCCaLADo3mCkC+N21XA7uhCbx7HbJ2jRXFEMpzH7x0g4Cvj81a4J75BpF7H5Qwh1c6h0E8jVD54V+C6+Q+bklevfupg7V7dag7tfmgs60svvSF5PrA6H8iqYDXtvPq8UP0kwdqiuvyjkaQDieqAmc4OKtFeJjqKaHR7DMSGOe5NMdvZx2ZXF78xY+NrcxZ+bcrBfjHLV2dcTKUG2Owu8IXxCN9at3C/u8Q3lx18a93CYHycrH+uWpt1LDmM0bjDN5ctfH3OwRfGA3xz2UKL/JzVXJG3Fi0Mx4f57KifN8a9VKJjJD3zvDFuZSDWz2dH7Xxp0sxWTxK/fZbxpBedfuW5FuQPXiQ3bwvzQVqzUcT96af+1TjthQLC7EAVprLJLIqlOKqNEIrlGJLREprdCJrdCKqNJKLSCKK+UVqSSwgz86g202iPouiO7ySb6UUyNoAwN4vAu4UwM0+98Zga8Q21ynPuKS5oCq5TbzxEPpdD1DdEveGIe4oLRH39iPu6aC/00pavIBnM0ByeobWjizr9zo8tDN3ef3Iqkmy8p5JN4lDkqlBNaXJ0a+Ok1BXWzN6q5oxh8poSRvkmS6YUYdUs/foSa+YEO9YwC6Y0Sc0UI/oym+Y0J9YIJ9YoC6YuOtQzuJTriCTPgrVVcoZQcnq3rZacEFLNopDu4VUusWxOEVHPEFdXmDV5GDWEMCuGqJF+/iMLsYhHbrfaKi/va8xr37Y4JqkVX+P0TGN2rCA37NAk/34o0S3tmjNs7h38wRUCoWW0lj2SiQN6cvv05Pbpzu4TiR6Ry9x9NlivyHVeEwhe0pc/w+e/xO6+wOM/pV19jd56RrPiGq3l7m8k4wforBf0ZA9RGC5Rmfaxuh6gs+5RI3r0Tlvl5ecu9VhvePT3WpX331Hoh2lWbKM3l3C6ojhdUaz2TiSaFdzuPCbLIHLdLGrjCEZLNzLtNGZrmVgwSTyUwGofIBroQKmfwWrrwulMYzD3I5AdUi85RaRepUm+h1C5iUI3Ra34Aq2xgtZUQSDbp0b06D2B5/q3xaO3Oy2d15/51MGaX3vQGtl/9OFg/VXx84FVvyf9PigbTduvfRywCou3H+qLem4N3ez63PN/oNMv0uEdYSyZ5qJi4n639y5oWr/Lr03Z+dqc5Rmt5Xr46rSbt5YsPB6M8aVJH1+c8LOYKfONRRe/NhXk1ZEEX5oIsF/M8eZYiN9etnBVSSGQXnJZSfHVaQ+fGw1zWU4hUZ2wX8jx2nAYjW6fr8/f/Z2lbIGlbJ4vTZoZS5b40qT5DrLxMibjAlMpFxl/F7Xiq+euQl+reeV/qrfMvdcU7EcynEQ+60c+66clMUZrarIKVuV6CGF2DOVaGOl4DvlsvgpWzW4E9XYUxXKa1uQ8NZIb7skvuSe7QuDZQlQeRT5foC0/wz3pNW0909RqT6g3HFGnO+ae/LIKoAbLHsLMNHXaE+rNeyiWE6jWo7T39KGYDyCfCdGSHKdGfE2ju0JzsPinzzPOJvHBuzZFHp8qwqDezaDeTVBVYdjgwqWcrEJ1xeSjUz3AmtlLl7ZUtSiXTSny2hFmjFkeWCJsmOP06we4tAXZsqQoaEdRyg6wK9bRyHZpf+pXdSnWCCiXKemG6dcN3gXYi24QSQ6RSA8QSw6QSu/6hDkU0xR1GVzKKaTS1Sct2Z3nyiisVb7yz2zO8ScS7TZW1zy+wAS+wAQG2woS3R4OzyZG+zYOzybhyBKx2CKx2CJO71EVrPH4IR3JA7qz+6RTB9SKb/EHzil3ndGXP0NuuKIrfYjeekGj7IZ4bJ9A8AiB7C7Pviuzh8Z8jt11gky/j8c3i8q0Q53s5nv31K/+k4+7FgXW079lsafeFirXnkYhnNGmWqddvUKbag2dqYLLGcLtupPWVMZm78DpjGC0DBHyp1EZFlDoFjBayoiUqxgtZaz2blSGEaSaWZzOEAr9OCZLHocjhlC5jtsVwumM0Cg7oMF29dfFI7db4rGb7V9ssMp2xN8HZb1l9/VPG6yivtujnmDiPb99gIVMlFK4yEXFxH7Rgcl4H4dlnWJolJF4P7825Xia+WTloDf7TEbWYqaPt5YsfGPRQi4wS634hs8/7S7wzWULDssDfn3aw1emvHcOc/cSN/1JTkoZTMYduoPTHBazDMeH6Q2P87U5C48Hw7w57qQSHeKNcSsHvTFeGXaRDwxzXrGQ8ZcYiEUYTfiRareeG6xt+YPHTf7Ue7WaDe6pjmkKzCAeTNEcmkHgXUe5HqrCVbURQjxYpK1rFOV68g6oW1HEgxWaQ6vIprtR70RosO2g3Y/Qmlx42n31BoF7C+lYP83hde7JL2mw7FFnvKsr8MOWnTA7hTAzRVvXCKrNMKqNCMrlBHW6Y1ri4wg8iwi8czRYNmiJRmkObT5XvYAa6ev/Oqa2E1QFSWvSuJRjDOo9T90BM6yavKyavFR0ORZNAdbMXsYMHRxYA1W4fl+9un4ymjG0sh1U0j3uiW6pF13RKL5ELD3CrVihWXyGTbGKWf4Am2ITk/wBjeIL9PJ1kuphKroe7pt9bFl8zBoTCCXH9OpCDOjduJWD+JSB9z6sAd8Hzl3D3r8z2WdQmdbx+u/AqrFs4PZNobNuV2FqsO1gd28SjS5idW2T6jggl97H5DjDFzxCpD3H699GZTwmHtsgFDrD67+gO3NIIXt4V9citk8quUdXehef/4ga0UMyqX30tlM0lgfobRsEQ1OozQ+oET167t3T+16GluO/a7D2vHNPfIVcN4nKMIrTGcPlCuNwxrHY0lWwqg1D1WuLNYdMu0q95AyFbgafJ4LfG8Fq7UJvLuByhZDrxjFbMyj045it2adA7sFmS9EoPXxSI3nlz6r+7Z9bsL4pej6w2rbaXyhYKzfHEvUWgwk3a/kA4x2dbPV4OO2zkPOPclQK88qQgzfHzewVo/jsq4Scy3xh/NlU1y9O+Hl1JFL9vJHvYSQxwjcWbXxz2cJZX5rJjkF+a86B0/KAiGuFpWyZkcQwQ/FRjIYdTkuduKybfHbUz3V/jC+MO6s9sEqRYfKBMTa7Q1wPmLgeMNEb7iXt62YlZyTlLTz5OC+T5nDwSa1yj+bwAOKKB3HFg8A3yT3pFfXGPYSZMaRjeRRLcYSZcWrEN0gnCjQHVxH3Dzxjuao2E8hne9DuR+50EEG5kqE5tI54YJC2/NRH+h6rweaGAxqsOwizYyiWQ9RqjpAMBWhN9iMZ8dPkn6LeNEe98frHRgWIR263Gr2f+Xq96ByHIotYuk1ZH6i6BIKqIaaNUXp1PVWorpm99Gp7mDHlqkBdMyfIaYdQynZpFF+gkW2zau7g2BaoKqMZpajrI6yepk1yjE2xhF6+jka+QZe2SLP4FLtikXWzl5RmiE1zgIR6CK9ykKIuRFnvo150To309X/1ceZureyzf6AxL2NxTGJ2LuDwzGK0L+MLTGByLFfB+n0Z7dsY7NvI9Bc0SG/Qmo9JJddJJdfxBbZJxu+u5YZjbO4zirlDgqETVOZzujK7eHzHdKV36UzeZTWJtGd4/BOoTA9Qm7bw+GdpUx+8Uyt7/Q9+mjVZZ7r921LtFHpzN3ZHAoczhlw3jcnajVQ7h9MZxe0KoTf1PrVcKzTJ9qmTnCHVzmG19+D33oFVqZ/EZM7hcoVQ6MZpVy+j1I/f/ZyxQp34zq3RrDr8ox+tnPaiwPpRSQIvvfSN9ucDq+a+8EWCtaVr9zNRd/FJh7fEbsHJaZ+ZkUSWrR4Pw/ESb4yZGYyVeXPcXFXIucB2IUMuMMN2T75qqR6XMry1ZGGyY4Cvzdn4rXkbm109PBpI8NailcmOQUYSIwzHR+iPjnNcyiCQXnLUm0WoOKfTO89AbISTvg4+O+qpQnWn0Emt+Iaoa4KrflMVrKVILyHnICs5Izlfz3vPDdbyy4cCb8/36o3ztHZ0/xBYxxG4V5BNB5BNhpCORZEMpGhJjN7BT3xDne6YRucWAvd9BK77NDq3qNMfUm86oNG9hcBzH4HnPo2uBzTYdqmRXN9ZsB8FVPMuAu8akrEsytUgytUgiqUwwlyR1mQFyXAA6ZiXRtcoAl/huRIEvi+h9OjfRdR3iRsS6RZa+SJJTY6EugetbJNeXQ9jhiQh1Rgq6X3aJQc0ic8Jq6fp0+WZNkaYNwWYNwXIa0sM6tMsmzo5tgWYN2YYNHRz3xKgQzNKTD2GUbaGVraJXr5Gi/gEuXSbhHoIv3KaGWOUNZMXn3Iai3yGHl2EpDqPX9VPo/j4uVJ1n9Ho7U6j4uq7DvcYCsMGGvNG1XJ1+6bQ/5DVGostordtUSe5pkZ0iy/woArVZGIdvfWQjsQ6ZucOvuA8vuA8KtMRdZJb2jUXRCIHtGsuMdqPaJDe7Thk+m1c3kmk+m1alKc0yi6oUz38559E4o7Acvn7CsP0H0u1UzgciarFKtNN0yTfQ6qZQ66dQm0cwO6IYnfEaVOu4XSGsDviyHQzCJX30ZlKOJwRtMYSIvUSDdIjxJoFpNppBLJdGqTHbzd6j99qq9y8zx/cGj18+ecPrL/T9nxgzXxV8CLBWqt65X/JB5NPtPp1zssmLiomytEeZtMdbPfEeXPczCtDDiaSxSpYZ9NFfn3Wwq/PWnhj3MVZOcZgfJjhxDBR1zInfZ18Y9FS1a9MeFlIl3ltJMJ4coiQY42e4DTip4V4W+XnNEqvyPhnUGoPOC4l2OzKodHtIZBeYjBs47CsslPwMpPuIO4eZybdQdg5jVz9gKCjH7tl5Pmzr8Zutmskt99pdJRpDpcRVzy0FyK0dnTTEhtAPuN/Rq2dg9Qb95BNdyDMD9MSm0U2nUKxEkK+FEE61YlkpBflehzVZhTVgwiqzRjtvcM0BVdpsL2/+EW98YBG5xb1xkMEvhVq1SfUSK5pCizREp1FVO6lwb5ahap4IEyja4iWUNeftXQeva+ox4epOX77xbA69k6t6IqsxkVW4yKlCdAqubO6JNItEpo8Jb2Pfr2bPr0Xg3yZRZOfFbOXFbOXBVOAoq6HZZOXJZMPk3yTLu0gy+YYWxY/UfUkGU0/Y4YOakS3eJVTRNQjxNRD1IgeMmGI0qXtJasps2QK0Co5wassElSVUEg3EEnXaVHsP3e43DOGQfr6NZFm/9sNsnNqxdc0KU4RafdpUx9yT3xDu+YEtXkHq2sel28St28ClXkTi3OVxFML1evfwu7eQWU6xBtYwGDfRGncRaQ9okV5hM01g8U5j1B9iM09i8ayhtq8gds3gcU5T6PsnHrpxdu12kf//SeZDSnsvTptsF3+3j3RNQ3SYwSyAxqkJ9RLTmlVbiDXTeByhXC5QjidYdpUq7hcIeyOGDLtFGpjHyrDAM3yp9Ee0gc0yXewOcKoDP00KC7/pCXz+ENrjrQGXxBYU1snH3S/2Xf46Pmg+tJLL70kfaPxRYK1PbfyWbul8ueN0jP2i04uKiZGElli7gleHnJWYbqUyfLZUetTl0CqCtbv61em7KT9M9SIHhJwrOK1rZNwLzIQG2W/mOVXJrz0BKeQqY8YSwxjMm7d5Sib7mMzb6LQHNAsu0Bv2KE3PIpOt0vQschyLssXJ81cVILsFL1Va7USu4t7FCp2KYQtmExT3/04464Rv/zvmiMBGu2TiCseWmK9iEo+WuKlKlBl036EmQrSiRBtXSVk0x0o14IoliJIRvK0dQ8im+5AsRpE4N5EvRVBvRWhrWeUOu0xddoTWpMztMRnqX36uVZ7QoNtB4F3gwbrLvfkl9Sbt2lJjtPWVUGYHkbgXbk7vNDt0uhaQOCZp864zT3lHvfkJ+9+rMU7drPdKj/5/xrFx1gV/eS1DvJaB3rZBEb5OClNJwlNHr+qTLcuwoDBRUnvp1+froI1oymzYPIzawwRVo0iEJ+T01TYtvpZNUfQyO6zavLhVc7SJD5jwhjBp5qkX3/XynvWGGLZ7KVdckhY1YNWNkdW4yehvutIa5dn/kmj/+zrP+kcbk2cv6kyr327VXWAWLuH3rqKxz+J3T2L0nQfj38cb+BOJsciVvcsHv84FtcKwdB9muRXqM27qEzbWFxrePwL+IOz6G2raC0rODyTmBwLOL1TKI2bODzTWF1zeAPj6Gwr1EsuqZE8/u5PW3j9QwHbd3nW4Dz7KzWihzQrtpBqpxCp52lTriLWzCLWzGO05mmW7yDVTiPXTSBSL6A0DKA3d2OydqLUD2B3hBBr5t+ul5y93Rw4eOvHxdi+MLAmt48/EKzug8e/MGCVlK5Pkl73kxb5Pp2+fvpjXSxmIzRKL3k44K6C9XOjFqZSPVyU/VwPhKtAvahEmUr1cb87y2dGfJiNW/zmnIWdQgaDYQenZROjcQeXdZPh+DBW89YPTsMlVzgsG7QpTqv3ws4lxjtKlCJDHPTG+OKkmS9OmtkuJLGZVyiES/RFcxgMa/gd45hNY/RFDbTpjv/lxxl3rfzz/7Il5nlSp1+hNZWnLZ9EXPHQ2tmFZCSObNpPW1cvsskg8hk/0pE44uEulGvBqhTLYcRD3bTEZ7gnu0Tg3bg7mJLcIPCuI8yM0xKfvTvI8i3fRQ4oz6k371OnvwurEniXaYmP09ZVRj4bRrEQRD4bpk6/S1NgiPZeH22FIA32OZoCSWqVj/75x16YqbM36kSX2JUF0hoPea0Dl7KXtMZDSFVkwOCirPeQ0qQJqkp06yI4FNMsmnyUdF0Utd2kNX10qnvIazpJqgsM6gMUtb04lYtMG2Ksm71IpPuEVGNMGUOE1aPMmfy0io/p0+cYN8RwKkZIawKYFWN0a10EVTmEkq13ddrJ/+2nncet8bMv1cuvvifV3UUJ6KxrmBxLePyTGGzLVbiqzBtVyDq9UzQpzqmTXGO0bxAIzRIMz+IP3vlq3b4xrK4Z9LYlxNpd9LYV3P4J7J4Z1KYNJLpdRNodWtVHbzfHHn75ZwHVZ9bq4PmRwHH7O62ag/9TZ+79rsnaiVgz977d0D3RNULlGnpzFyZb6t1mxda7QuX2t1tdh7/bEnz01fbMR2eDvWiwtnU+OGrtWt756cD60g/A+iLCrUR9t0dOW+HPW+SHzGXMTHY6iT4tydbhmWI8WWSnEOPVYTtr+TQBxxJn5Rir+S4Wsz1c9kerkP3KtBWndZPfnLNUdVZOMBgfYiA2zEBsBIflfnUCuKzrNMsunpkUEtURNvMGSc804x1FxjuKDMVLRFyzdId62CkamUyFmM/4yPh7cdt6yQXc1Mhuf2z84zOTtHx6Um9e+vN78iME3vGqn7W9J0ZrxxDtPYUqVOUzfiTDcdqKlR9YrGNZ2nv6EWZHEHiXabDepym4jHwmhXIthGo9hHQshzA/SHN0lkb3Go3OdRrtd6X06k3b3FOc0xSaoSUxjmwyTHtPCXF/HvFglraeMI2OOdpLXtoKQRqd/dRqNt5rDj786sd+zmM323WS2293au04lb10qINEVAnyWgdeZYFevZ8Bg4sBg4uK3k2HJoNWtoRWtolJvkyHusig3s+YwU1MVaNNl6MAACAASURBVGLM4GZU7yaqKhFUjlLQ9jBpSKCVbzBn8tOvT1HS55g3+UhqBlDLNvEpC2Q1DlzKEjbFEElNDIl0DY86/e320tH5JwGe1sj1rwo1h99Tm9fw+CdxeGbRWddQme6jNq/j8Y+jt63g8t3BVmtdQWVeR2tZRWtdx+Jcwx+aRW7YxemdwOMfw+Udp1F2TqPsHKd3Cpt7FpF2j1bVAe263beV7qX/UZi9fe1nDdUfVVPg8W80WB/9tUbz9X9Wq7n9pzWS1/6sRvTK2zWiR+/VSF79To34c3/SaL78/QbbK3/lg8oWtud/fHfjFwrWzOL7WsH8xGD9uAkCn0gc69jNdo387P9V65aZSDlZzBkZiAeRqreZ7YxzXLIwn46RD/QTdk7RKLlEpDwh4FhmMD7Icq6blVwX4x1lCqFxRMoT+mMjzKZLbPVkWcwUqUSHsZs33/dmLYRG39d7p01xQto3zlq+g9dGzVVd9LuZTIWZ6gwym/azUzTSFeyhO2TDah5+r1b22v/6ccdeZ7j4g3rz3JM63QOaw/20xEoIfOPUiG5pdK3QmhymrauX1uQwTb55Gp0btCbHaEmM0d7bjXQsgmSwg5boBPIZP+2FCqr1EIqlGO3FMuLhLOKhHLWaY9pyFQS+BZqjdxEGLYkR6s1btPV00+hYR1TOIZ8NIOrLU6ffo73kRZhL0NYdodE9SYN1lDrz3j/9SZ9ze+/FqV418bZWNvlELLlftVw7NV68qgp9ei+9+gCdmhR+VR8S6TpCyS4FbZwxg5sxg5shvQ+fcphBvZ+IqpcurYeizolL2U+t6BqV7AFJTT9q2X0cikkM8rsiyhLpOm5lD0l1AKl0DaN8gnbJNgrF0reF3uO3PkngtMYevSl0n/yqUH3+7+2eufc8vklsrjmaFSe0qQ9oVR6hNq9h90zi9o9hcszh8Ezg9o9hdU8jkJ8h1T1AbV5DbV5Horurui/W7iI33Edu2KRNvU+9/Pp7dfrP/J1PshDSp6rh2x1h98unP49gbc+tbLcGTx7/6H2Bf+/2FwesI3f+Rqu5RH88yGLOSNzTS9Rd4ahk4axs4qxs4rTPxGI2zFA8R6dvnA7vJGPJAoe9QV4esnJe9rDRlUCj2+WgmOThQIAvjNv43KiT074oUx29+O3LCJ9mxqR8M88A1W7ZQKffQa7ZpxwtY7es0SC5ohTp56rfRX+sRIevn4Wsl52ikZ2ikU5fib6ogWb54TttvVu3Hxs2paPzRu/gd2oVhzRHOxGmvTRHU9RILqk3btLSkaetEKCt6Kc1m6IpNIR4MPmMD7a9lEc6Ebo75EoP0d49RFvXIPKFEPK5CALPKm1dfbR2DnFPeomws0KDY41G9xKNrhXa8kXa8r00BeaRzQQQ5nq5pzimKVSiOVqi0TlLg2WSpkD2u83BRx/fWv0hiYav9mskj79TK7p8YpCP41V241T0opXNopbNY1UMEVXHyGodJNQBAqpOgqoMZV2IMYObtCZHpzqPV1khqwkQVHVjkk/gVxXQyccxyEdIarwY5cOkNB4Cyk4cihIxdZSc1oFXmaNVskuLeI8W8cF7As/NN39m4Bi93anXfuYfNIi+UK6TXNGsPEFtXqJVdYDCsIHNPYXbP4betojVNYPLN4bcsInFMYnFOYnCsI5QdUCj7AyzYxq5YQOVcQWxZvtJrermn7V13T564XD8aTV4sy3q+cyHZm++MLB2r261ho9e+dH7Lb6Dy18osN7TfP6/9diyFMJJ5jJmcsEMA/Ews+lYFawruSA7BScHvTbW8kleHzVzUfEwEOtjuyfKy8NWXh81E3Yu8JUpC1+ZsvDmmIO1fA6dfofu4DgJzww6/Z0FsJztqkLVYrpPyLmERHVEi/wMieoAmXofpXYXqXofs2mdOvE1UfcgQ4kE4x1RMv4SGt0yCU8UmXr9Y9Vj/WHVai7/Sb1x6UlzKE9bzklLPIHANUxrKosw24EgOERbd4T2PjeispvWVH8VrOJKGvFgB7JpP5KRGI2uJerNW0inEiiWgjRHZ2jtGEU2E+Ce7IJa9RGySR/CbAlxf/IOtOkKsik/DZYHtCQGEWaC1BvXaO920dqR4J70AoG7hwb99v/1STxrUf/FoVy5+kc1oocopEvE1RGiqjhuRQ8ZjYOs9k4RVYy4OkRW6yCgytGni2CULyCXbmCSj+NV9lLUOSloXU/9tQ5cyh46NU6sigoBVSedGjdRdZQOtZ+c1kFIlUQo2aFdtvXdRu/FJ2qpfpTqda//V63awz+W6u+/K9LsIDesI1Tv06beR6Z/gNK0TpPiBKnuPu2aHfTWOVzeYcyOKXSW+Sc29+Q7WtvKO7Wy6//7nvqN/+aFA/ETlqj3laMPuv/CwJpfe9AS2H9fDG2Tb+/kFwqsoqHLA6u570nU3Us2kGWy08F0p41coMxZ2cR+0U4h1FuF7ExnjtdHzVXdDDipRCtsdCVYyGRYzHQTcCw/daTfkguMYjQ8QKI6uttmSy9w2+7S9gyGbezmTRSaffqiPbQrjxiI9XBRsfFw0FSV1bRCzN3HSMLLVMpONpBBZxgl4vY9qVNdf2w3QFXlw4sa0c3bDfZRhFkXzeEcwowHgWcUUfkOpsJcAkFgmLbuKC2JIpKhJNKJMMJMP5KRGM3hcdq6OhH4phBX/LR2lmgvlmjr6kM+G0AykrwrqDIUQTbpQzIYRzbpo057QHN0Aul4iObQBPWmZdq63DRYFmnrctGSTHJPdkqN+Pq95uCrv/6JLaSnlqtBPvbEo+zBoSiR0viwyAdIaTxktQ6siv7qdafGg0y6iky6RkoTp6hzVmWSj5LSuMho7VgVZZyKAl5lDo8yT1brwKPswqksopNP0irZwaXsfq/BefZXXgRA6kwv/22ZceuPddbF9yS6+08+KKa4VnKFXL/xxGBf+F69/Ppf1cpf/Rdthe2bFw2/n7U+qO5Ia/DofdvxFwnWRt/u3i8UWMUjt1uN8vPvNskOibrLLOaMLOaMdHiHOOkzPwPVs7KJ3nD5GbC+Pmrm8ZCNDu9EdYL2x8qc9AX43JiZz42Zuax4KUUquKzLVGK9uG0L1e/V6LawmpYJOqfIB/q5qJgYS6a53xXi4aCJlVyMubSFiKvMYtbIYtZIwFEm7TchVGw9V6uSj1Kt7uYfC0Jd7zZHMjT5SrTlnLSmQgjTqSpcRWU3wnycetM6DeYtBL4FmrzztHWnkAx6kQx6aU0VkAx6ae9Jck9+Rkt8DPlsgLbuEgLvwlOoJmjvySOb9FFv3KHBtk5TqA9hzklTsBthJkhToI+2nJca0Q0tSTdNie2/8IkvpP6LQ7Vq/k88yu6nh1hd6OSTT+HqQypdJa1xYlNUcCiKRNQRbIo+3MpurPJhijonea2fhNpPRmsno7WjlU/QKtnFohggq3UQVUdplzzAqexGLlvEo8693RrZ/dqLhoh45K5Lr6h763Gt7Mt/WCN+7d/eJYB89k9rZV/+w/a+47MX/f+9CAmLr/yAJ2M3262R4w9NLf1Z64NcAQL/7uYvHFhb49tfqRE9/K/tlmnGOtyMdbjx2ScIOqeYTiXYKTjZKTiZTiUwGDYYihfx2hbp9I4xmkyz0eWjJ1RiKJ4lHxiuAvVzY2ZmOvNsF4LMZ1IUwxU6fcPkg2WygTK14muGE510BUv47DN0+oYYSWQ5L5vYKbgphktI1HssZIz0hhOMdbgZTbixmPpx29IYTCPf+anHP3azfU95+af11rnvNTrGacs5EWadNDqmngVrLkG9afVpgP99xP2+KlSF2RyicghxOUhrKk1bj5u2Lh8C7xT3ZJc0OpeQDEURpsvUqo+o0+9SI76hRnRLvXWWlmSEllSAWvUObXkvdYY1Gt19NJqX/rRt4JOpu/ujkvRdHzUaz/4TjWLh2wl1hIQ6jFo2R63omnuiaxyK3qo1mtK4MCsGqtcOZS/t0k1Ekg0k0lUE4iPuia7vDiAlW7hVWXyqDmTSJQTio7cbZbd/3Np99bH94L/Up6jh250qXEdvd5pDhx/ZivpnarEmNt/XoqXJt7XwCwdW8cjtVqv9YEilXSLpTZD0JlBql1FqH9AT6qAQTlCOhsj4s3jtIwwn0hz3mTktmzgtmzjuM9MbKXBaNrGaD7LelWS/N8x0KstFv52jkge5Zo+1fACnZRGTcY2BWBavfQanZZ6Ia5x8oI/FbAiJap+LiomzshmzcRW7ZYyIu8R8xkRXsBOnZRKHpYuE1/5eg/72H34i4x+93ak3PPx7NeIralW71BuXqNU+4J7ihHrrEk3BIi0dYVqzLgSeflpSIVqTdxaquN9HU2ACcTlIS0eath4XzZEeGp2TNFiWqNOt05oK0BxPcE9+Qkunn+ZYB02BAo2uYVozblo6Qgg8lac1A5apN88+qdft/pGofPXcRUl+UrUXzi5rJK///RrRQ2pFV5gVFZzKPEb5ED5VZ9Ui/T5YY+ogYXWYhMaFT5VELp3Hoighky7hVHZhVpRxKLuxK4vv1YgevSdMXn/+hUPjl3o+Dd3sCnOvnolHb3eao0e3LwqsbZ3rR++zYhPHA7+QYG0KHv5mq/zg7/SG7QzEDfjsRYSKAzp9edL+LLNpI3OZO2X8vVWonpZN9MfyHJXMT8HqR6w6ZDUf5+GgmUdDZjq848Q9Y+wVHai02zgt8+wUbFSiOUaTHQgVxxTDBY77TISdEyQ9IxRCOSLubjr9CfrjNiKuXoTyQ0TKLTp9JkymwW9/otkuYzfbDZarr9SIrxF4Bu6iBMJZWlJBhDlnVQLf3da9tdNPa7KAqDdKnWYfgXcMgX+QlngOYTZMW7eHpmCBlkQEgb9Aa9pFg3WG1oyH5mgnLZ3+u+3/09/bFChQI76i0Vl5UiN59O2flaX6YRIWL84bHGd/rUZ2+R23Mv+eV9VJk/iAFvEeDmUBg3wUsXQdgfgIg3wIu7KHkDpCh8aBS5kjqvYTVwff1Srm/m2j9OzPGv3n3xANXz13TdJf6udDbf23e+2Z66vm8Mn1CwNrevPgfRZr+KzyMcD6FxqqYLUevPJxwNrSdfWJFLr+YdUqbv6Fz15kIG4g6Owi4soxnHAzmnSS8afJ+DNMdVooRuIsZEOclk0s50IsZsMsZYPkAiUy/gIJT5n+WJ7LfhvzmRQ+xyzHfRbmMzHEqgMG42kOSyYWMkEOSyZk6j3SvgGO+0xsdHloVRxTjjnoCgUpxxyMdBgZ6TAiUd/HYBgh4Eq+02K9+Juf+MQau9muM9/+fp1x450mf5GmYDcCXx/N8UQVgI3eSvW6JRWizvCAeuMqLYk7F0B7wUV7wUVzqEhrpxdh1kmDY+zOao10Igj20Jp10pIKIPBUaO300ejup06/QnM8/OSe6vxPX2R8pGTw/Ejk2/1LOtXMHwfUsScN4pOnxao3kEunEEq2kEqX0MgmEEtXEUq2nrSI994WW7b+bqPv8V/8oID0X+oXSy2djz7zQdlPnxpYU+v77d2rWz98r8F7Xf4YYP2d+p8nsDYFr39TqVv5XilixWEZpBIz4XdUqpbqaNJJ2p8l7ikQcw8x1tFJyjtId7BIfyzOWpeRiZSPuYyD5ZyZrmA3Gf8Ax30WzismKtFuDIZ1Dksm1rs8zKbDHJZMlKN5Yu5RpjsjxDx50v4wMU+GfChEX8zJSIeRqDuPVj9Jd8j0nsS28Y8+qWaK79PYzXa94frvNbpH321NhWjylZ76PAdpSQVpdA3RmvHQFMoj8PbR6BhF4B6kyd9Ha2ec9oKL1lSS5lgSYfbOX9sc6aTRPUiDZZ7WrOvOQg1nqNNt0Oiu0Ogu0xzv+PMG69r/8bPKOf+4kgyeHwnsr/92g+3V322wvfzXG603f9NmT/5DizX2P2hk42+b7Yn/rsH2yu+1Zc8+2Vbsv9QLV3vx+kIQ2b16UWBt7dzY+9Gmgg22k58QrObDl180WMUjt1sS49YfmIxj75qMkwzEDWT8EcY6HFW4zmWMDCfciJS7NMtP6AllWOsyVuWyTrKcM7OcM5MNpMkFOsj4eylFClhMq4wlOzjoNdEfy1KO5plLh0h4hp+GX81RjFipxA10+sNE3F10+pNkAlFs5n46/W60jtn/+WcG1R9SnfHVv90SKP2ZMOt80toRok63SZ12izrtAwS+Ei0dQYRZJy2JCK1Pr5tCeQSeQer1GzQ4xmgKdNMcTtMcu2uBXadfR+Av0uAYps64RL15hkbP4LsNzolvC3wHf/lFL6hf6pcSj9w1bWztWt4R+PdeiDugNX1/50fLBzYYzvp+IrA2ReeOfh7AKh283qtVPP7fZeo1ShEr5agZj22AkaSLnlCckKuI3TJC2JVDpNxhNOmvQnU5ZyLlK7KcM9HpyzGSNDGUsJDxJxCrthFIT5Br1jEYp5GpN5Br1kn7wxgMUyi1S3T6w3jtRfyOHuKeJFL1OkbjFJmAA6e1QMCZ+W5z/PEXP60JJuq/OBS4Fv71Pdkp9xSH1Kq3qDOs0BTMV7f5rZ1eBL7eu+uMC0Ggm6ZIkpakH4GvmwbrBHWa+9Sqt56CtERL0k+jt0iN6NF7tdpH/0gyeP6BQdq/1C/1IiTsuTn//lZcENy7bf604dq9utUSOH4mlrVBe1L6icDaGls4+HkAq3jkdks8ertTI3v0b2pED5GqN1Fql5GpNyhFzVTiBipxA10hFxbzCGl/hLinwErexEzayWzaQdhVphJzkvEnCTpLlKNu3LZ+Qs4MxYiZcsyA3TJAKWqmK+QmEwjgsFboixmrv78YsSJW3cdnzxJ0JbFYh/99W+r4Cy9ksvUeXNYqHv1hjej23TrDynsN9hFqVXsIvH20JMPUqndoSUZosI/RFE7R6OmjwT5GczxES6eTBucArWkHLZ1OmkLZt2vVO+/VyB/+m+bg408s8P+X+qU+KQl7bs5/GGrN7qPHnzZcm/z7z7TfrlWdFz8GWF/6DwTWo1d+7sA6crslHr3dqZW/+i8bJOdPkt44PWEX2YCfcuwOfH1RE25bL5W4gf+/vTP7bevK7/idSWxrIXlXmraj2DIla7U2aiPFfRNFaqEoW0ns2PEq2eK+3/3yctFix0k6M3FazbSTTmaAaQMU7VNQYNAW6EML9B/oY5+KPhQFWkxbtNN2Th8kKrK8RJRpUcv5Ah+AkiEbIu/9+Nxzfr9zpvQtYLB7EpxvXgTo2TQ4d34RWAdMYN7UAuZNLcA30gdGeyzAM9wO+jo9YHJUC9RNS2BS3wrG+gxg2qAFhr4xYNPpwJReC5xDveB8802g1b4HOtqmwUlK+C1uzNa8bOf0VDZzqpn/e0znjSuGnP978uyOI59Pc6C+/X2g0DmASj8KFP3joL7tOmjomvttnfbhf5w4k/tn3PrwEZyThBxkcK/03C7+qp5MXmV7dkFpX8XazHkqEStS3xZbPZBi3QQzpz8Z7bH/uqvND4YuO0D7pTkwqW8FnpFO0NPh2xphDnY7wQlKArpu35ZQywx2u8GUXgum9Fqg7zUC78gl0N42Bzrb/GBq2yj1Uut7YPCyHYxcNoL2S37gHdGCkV7Tb8jx7K72kNxPGvuZL0+d/vifTpxe/vULj13RcJ+e0Aj/Vt+8/LdUgNvX0ikI5HV4kVhJ50JQ1b9/3VjPifVdeXxvYjXejB9EsaqvSCHClHriHNT9t6lfD9ouXQWtre8D88AwaLt0BXhGOkBf5zgYH24Hg90OMNJjAT0dU6Cnww9mDR3AMmACjsHeLbFOjLSB000PwZl3F7amFsz9w6Cp+TY4d/4OcA52gv5OJxgb0P+noon9R9JVPHBSfSHzYlh9VYrgnkIWGy8IuE+oap0xBLJfvEyspHMhqBiMi/si1qHE8vavG88XXXsTq+Gj2EEVq/qKFCIs6Y+He5z/5R3pANqWa6DhNAPQs3Fg7B8FvlEtmNRrwcTIJWDsG916begdA2feXQCadxdA04Xb4J0Lt4HqTHJrVNd04Q4Y7dEDu64b2HXdoPniNdDVMfObsxfC/4JXcLYTBAKpHq8SK+lcCCqG4m+8FGtnW6uipejYm1hNt6IHWazqK1IIG85/fups4R9OUDlAvfMQXGoNAG3L+2CkxwQm9VrgG9WCjrZZ4B1tARMjl8BojwHYB7qBtb8XdLX5gLZlHnRdmgRNzTeBoXcE9HSMg7bWWdDX6QJjvcPgBCUCrCX9dwellhMCOY58l1gxy4MYOhJ+rp+/mhCmu8lnxNoZvXz0xDorhnHPtzuOq/SFT6iB+39Wd4b79472wG8uat8DqrMJ0HzxOujvcoGBLifouDQD2lv9oLfDBfQ9o8Ch6wITw1ow1jsMnIMdYGJEC8b6hsDFlhv/TZyL/k/DRfZvUFMOjlIhkBrzXWLdD7liloVnjmdRdNHdR0usATGKjxdeeC4RNcfH0R7xj8/1XKd7Oyf/tfyIrzobA6coAZxuWgStLVdAV5sPtLXOgnPnbwPsbPS371y483/K9vRfNHTIsHMHAjlg7EaspHMhiBkX48qRyAuPq35tsdoXo9vbWo+WWOekCOkpfOfBY+orUgh1MKW6liff1GlXf1XXsvyX9drCXzd20H/eOjKX69WPf6MduPKrhvaVP63vfvxHtb5wIBDIy8G9wq7EWh65Kk3B53ajem2xWpci2w8VPFJixcfFqpygCYFADg+4g9m1WMujy6rL1fEwvL2t9WRrqmt/xGrn3mg5D+4pvfIURwgEcjSpVKykcyGocjwMY8bFeDXlqhxMr22JtY3tqEis5c1XKhark31j4sO9xWN5PAUEAtmbWLdGr+bgc3up7hW0P/14S7IdybaKxNrQGpH2JFYb80bkR3pKu5pThUAgR5PXEqvrbqRackV16Y/Lr0+1RloqEmujNsgcFLGSnhKnnoUr9BDIcQZ30czrCFHRG6/KeVnbR6xYP9NckVjrteHYXsSK2zNVHVmSrmVevQ/7nEIgkIMNac+yO3fwr1iuVdjLdfsca31rpKkisTa0LC1i1g8jlYpVNSpU9bzz7Q0AEAjk+EI6M1w1jmZBdTHutX7etESTmztqIa2suiKxNmrvXcdM16MVi9VQveOEoVQhEEgZ0pbmdx6Nsmc5jsbZvf4sZrsdI22LG2Jte0JVJFa0IzK+J7GOcLnXfhNnxTA5UWRr/UFCIJADwrwYxuwJaXtxfs3k6r4fIh0Pw6RzIYh0rJCVjVgH8k7MciNWqVgxvSC/1hs4K4YPzZZ8EAikelyVItRkKY17ClncK9DkBMeSDoHHbEIOswk5wsLIKlNCICzVK/pHdYk9TQtg1gcR0rkQRJQVilXRXnQQ5g8S+yrWOSlCupahVCGQo8TmnsDUZDFFTRfSuE/I4F6OJl0CTzhkmbCKeczC5TCHKGgC6ah6Nhs+c5UJvgxiMh1XGdIiYQolqyHXvSxoEeb7cdK5EESQCsVa907ermhNLVciVdJ2K4QN8/k9vfmzYhgbLwk1vwggEEhlzIthYroQJ6YLcWqKT+I+LkNYC3nUli+h5twyYZYKmLUg7UaalaAJpKPYMJsnzK/fWaXqyeQrGuma72c2xPopUZlYzxRtja3Jlf0SK+6VYFcVBHLQmJMi6kAhSsxIMcIvJKhpNk1YCkXULC+jRnEZNUklwpKXNYF0VB2gQ9WSZiWo5zIR1CCs4IYwU577rFistsUQZr236wYC5UByZUOsq3hFYkWw/RMrbFWFQGqLZlaI4ZMcjZpKq7gx/xgfyz1CjfIy7stmainNSiHdGU41vMdaVff9EGZf3FXVgXIwubY3sb4tWuvbkmtvWqz4eIlRz0mRWl9YEMhRRTMrxKhJLkVYCkXUml9BjbllYkwu4h6GJnyphNqfjaqn6Ug1H9NrKtcAHcI9aVo1nKz4HCzMvhjFLA++s/LgW7F+hlUu1pbkozcpVnKiyEKpQiB7RxMQo9QUmyTs+QJqy5eIsVyRMMp5ajKZpqbSSWIyGydm6Jjanz00o85qCpaYTMcxPV/cufP/K+VqeRBTji29cmFMOZBYPZBiJSeKLGxVhUBewrwY1swKMWy8JGC2Yo6wyTJhk2TMLkq4l6FxD5ulvFyK8nIpYkJIHDdpVgrlY5Mqc0oirLvbiAUzBxOvkiuqy5Y2xLqOHhixQqlCjjWb0iQniizmLIqYU5QwOy+RDo7Hx2kG9zI0PsFlqHE+rZ7ORKA0qytY3JLkd1MLi5mDiZdtlI3ZbseUXfFPKpPqfoi11hc3BPImmBfDmoAYxcdLDOkpcKRL4EmHwJMOjsecrIS5WIF0cizuEWhiJhM7KvOahw1qik2StiyPmxPcqzZ2UY4tJV8kV8x5J6rsjH26B7GWLPUticfVFisJGwAgh5XNQnfcV8xs7w7C7NLGqNMm5DAHL5B2iVXPZY7MYtBRRh2gQ5iVEVFThH6ZYF82LbDHEetjY1XFOiuGMftyVXe+gkCqxrwYJqbFODVdSFPThTTu4bO4l6MxZ0EiHLJM2AQZs/MSaZP4w1R+BNk9mIXLoaYQ/aKOLqUxlNkp3sb25NoexLo2VjWxzophzLlStV2vIJCKmBfD6jkp8lx3kCMvExa5iFqkEmHM5XE3m4XShGgC6Sg2yuYJc+iZjq6dG2UrOhPFysVa//nonsU6v223/1kxjDnhSBXyBgkUouXuIGqKT251B1nzK6hRXCbMcgF3sQyUJqQS1HOZCKbni5jt21Kt7a2vDe0JYQ9i/URffyn68euKFXOW4EgVUhU0ATFKzbDJnd1B1HQyrp7LRGp9I0KOJurZbFg5Kq6WN9lu7Myukc6F4MnzKalysTY8Hd6LWBWXo7Jms5QK9xSysAEA8p3Mi2Fqjo9j4yUBteVLqEleRY25ZcKcL1DeROqZ7qBpGgoUUhPU03QEn0hksOFMUXU5Xaq/mExXLlaNfLpeG/2kYrF2h/LUHB/HPYUsrFWFfFuzKbGEPV9ALXKJGMsVMaskbnUHzdAxYoaGpUeQmbmQbAAADbVJREFUA4c6QIe2V3iQU3QI0+fl+ubMF99vWM5VLlabXNfYGvmscrE+KGJOTiRmpFjNb2rIvkgTsy+LmK2YI6xyHrMIOcwqic90B/n45HFsqYTsP+oAHVLPZsPquUxEE0hHiZlUDLMKImbnJczC5TALlyNsgkyY+Txh5vOElSsQJraIWZgc7qaz1Dibxl0ZBtOzRXSAoRW99FJjs3TnLY0wpTwntCPNq80IsqxBkPm3KpdqWaza6KeVirW+NfSEmhRSNb/pIVWRJula5jF3QcLs/AZWQXyuO2g2G4bShOwF9Ww2vF2EpF1iMQcvYA5ewKyciNlZCbOzEmZhcluv7ayEexiadGZZ3EUzuItmcA9D4242i7vZLD7BZcrXJuXjk1v/Rvka9TNBdIzNoubMfdKRDzToVqbQy/yQckRuaxhcP4uc+akaQb45tTdx7kKslU4FoIO36fr2pTUqwCVqLgbIy7kqRQi/kCAniizpKXAbnUEb3UGka5PN7iD1HGyphGywNRrcFKHan47iLp7BXTxDOjmWdHIs6WY50s1ypIPhSQfDYy5aIB0MT7pZbuv15tekm+XKP1f+e9RzmUj50XuvU0NqXzaKWYUI5uZvoq78FaVxZQYfEo14r3y5rvPzCwj1y3MIgnzvzYhzN2KtYPEKHbmTxUy3oorOYEEzK8BpgFpKc0aI4d4iTU5ILOkUWNLNc6RD4DE7J260VPIcNc6noTSPPtsfjdXTmQjuZrO4h6G3cNEM6cyypDPLku4MR7ozHOlkWMzKiM/gYAXMwQqkjeNJJ8+RTp7DHZv/8ZZFuE/XEhmgQ5iTj5Ju7jbqkOax0by/roe3KPSPOpH2n1xEkK8r29V/X2OT6yqpY1UMLIrlxSsNXLR6M2wWuu/sDiIcsqw0yauEQ5IxqyDiLpGBLZWHD3WADm0xmw0TE0KivIMV5eVS1DibpsbZND7BZHA3ncXddBb3ZGncw9Bbc4c7wCxcrjyFQzpFThNIR8tHpBzI68PPBAkvH8fH6aXTXu4j3CdfV41I1xoGuUl0oDR08sLTTgT/+nyt9bj32OS63WzCorLcCqm6l/LbqwLUV2GJ1V6kScxIsY3uIDFOTQqp7WcHEWNikTDm8phZEmGh+8Fia1To56PlCgdiho4Rk9k4MZmNU1PpJOVNpajJZBr3JTKYScoRZqlAjIlFYkwsoiahhJqEjc/YLBUIs1QgjLm8ZiYV08ykYppAOnpkni78TFDtzYZP+9IPiCnhjtrH3UZ14qKyh/ZTA58OIU3rPQgyf7LW+ntzaZqvV7RHS98lVcXlh7nt32voCuae6byCbLB1dtDGbu6kR+RQW76EWvMrqEkqEUY5T/gSCVjovj+QATpUrovdwp+NEjOZGOFLJaipZJLyJlLUZDKNmqQSapJKqFFcRg3CCmoQVlA9s6YYlj8r/5liYPUH1HQyTk0n40dKhJXiZ4KknwlSs8wi5efuUy52Ae2X7zcMcd6GtqfDCP7VZaRm85sHIosNqHE+80qxbhupPiPWWkusVmwWuuMTPIOaSqu4If8Y1ctrqFFepryJlCaQjtb8wj9iqAN0SBNIRzUzqRjlTyQofyKBGvIrqFFeRfXyGj6We4SPSo/xUWmjU2vj81gljHKe8icS20VY69/lUOJngqiOz6I65v26rh+akRM/GUQQ5Pu1ttcBzmIDYf4g8V1zqs+JtSd0NFtYr0oRKsAlCEupiJrkVdwsP0IN8gphzhcIXypR3luTDNAh8jiOVHZJebFDM5OKUdPJOGGU86gxt4wapBXUKK6iemEN1QtrqFFcRY3i6sb3c8vUVDJJTSWTxGQ6TsxkYuUzmra/5/C9rz64nucU/WIQH8xPvt31QzNC/bgNaY2cQpDFEwjy9VsbwFSQRD1muRF7oVR1i/zLhHsopwKuShFqjo8TjqKMmuVlfEx8RIzlioQlLz/XHXTMbtztNYaamVQMM0siYczly3OE5fnBrTnCzXlC3JfN4L5EhvKmUpQ3lSJ8mUT5/KXtlBdrav17Hkv8TBDVc7RymLutMqx5FJc/s9X3Jd5BDJ8SiO2pAhlcb9h7ITzMS5KoJ803wjvFqRy6m8GMd+OvFOtBWrwqdwe5Vp45O4h0sxzuYbO4j8tsdQcd8kL3nV0nmkA6+sKuk50rx1ZB3FhdztLl1ebyCvQzq9I7iq0P83t1LPAzQczIx1U28QN8ZG1S0fuxQ9WZuUQNyOeQjp+RSPOXFR6EB1OFyHXPSXX0XvpVUiVtt0KKy2F538R6VYpsHbi2rTuIdPPcYegO2tl1grtE5oVdJztx8EK59vCVXSdeIQVFeHRRT9MRzCLEVDbmQ6VlZUalW/M09hR60B5Gi1z8HQ2C/IxEjvdC0UFM5BRmuh59Rqr6Oy+dc91eblWVOtbNs4Oe6w4qdwa5eQ538QzuFrP7tQL7TLH1XCaCTwiZqnad+DdXkw9qjSFk//AzQdzKZXAH81DtlN4nHfmASpf31PfJI+r+x5eQlqfvbooT5nAlcqq8eLXx+H/zlSPV7WKl5vj4d85pThfSO7uDMBcvYHZOLHd3bBW671Gaz4nwBV0nW50nm10nuItmXtl1sq3zZKcI4YgQsmv8TJBw8kl0PHtP7Sq8R1pW5tA+eby+LztySve0Fbn4+QUErq4fxcyfJEzvpZTDt1KY4aMXLmLtBLN+GFF0L5ZwL5ulpgtp3CdkcC+3ceCaTcptPzuImkond5a4bO86Uc9mw5SPT+7sPCl3nWAuWijPCe6q62TzrKID3XUCOTr4mSDhoWOUl10gJ+Qb+IR0TdUrf9DYw7iIvs+7kXf/sKXWdzhMTbJ4Ah2+xmD664mtRSzzjTBmvBvHjHfjyrHbSeXItQw6cjOr6l7KK9vuP1F23Pq0rinyY8KayuOeeBb3JTLUZDJdXhnGfYkMZhWlF3WdPNN5YszlMWtBKneewPZMyEGDDNAhcooOUX7uPjEl3FG7udvKfv4W2seMn+hc1yGKX3QhcH4T5vl8fbKx9cFndRfD63UtkZ/UXVxar7u4tN7YeeNxY/vNR41dH60qO+4uq7rvFFWXF2VsJJDATIGoovNOERZdQw41fiaonsmGyVl6ifJz9zXT7D1sWIg19ok36gaeWE60rusQ5Jfnan2HwhzOfE+hDcuYKRAlLVdClYCPc5ma3xwQSAUQY3xS1ct9pOj/zIaQvxhGEATWb8K8sXwP1V+7D8UKOdT4mSCqEzmljruN6n7keLvl6Riinlcg81+fRJC/enuzewg+tsPsX+ovfjpCmq4GKxKrm83W/GaCHBsIDx3DhsQ4qhffa+x/4n5bu25qvLysQWwyhmg+bkSQr+trfR/BwOzM9xt6w/egWCE1wc8EcQPP4Eb2AWYu+VXDjycaesRBtLd4sfHysgZp+n0CQT5urPVNAgNTedTyGXx4fgmKFfImQO18Fh+jl1Bn8So+sjap7F4xntIxrerhx2eQc+sUAh/TYY5q6lojVtIAxQqpED8TJKxCgrBzd9Hx4lXMXPJjQ7KtYUgcwPSfNSPv/KJpY6ckGJhjmfmT2NDdj3YlVgdD1/yGhuwLhIeOkW46hHn4m6gjP48ZirNYn2THRug+tOcLLVL/J021vnJhYA50Tl4IdqoMH0CxHiPUM9kw6c2GiUnuLu6Tryv7+VsN/YIPG37cj5z7oh1B4A5JMDCvnYbBpUko1iOCf+OoYHKSXiJmuLtqH3cbH5EeoDr+fXxwzXSi7Q/6EOKn79b6moOBOQb56jRh+OAuFOshwM8EySk6dNrPPqD83H1iOntPpZNC9Tp2rr7381FE/eN+BBbCw8AcjJx450YfFOvBg3LyyUadGMcGhdm3tesmpOHnulpfKzAwMLtO66mGjpsLUKz7i9qXjSoHhZRikJmv6/jCiqi+HEZsct233UMAbjMHA3OoczF14WXlV1Cse8DPBPExgVfomYdKw8qUovdHjpOtT7rOtckU0vpD1UYH0Tenav2xw8DAvNl8r6Ez44Ni3b04CZOQUhr5W0rTylRj/xO3QpftxAfp8+fanlAI+gWOwI2NYWBgEE26sbF/IQbFuiFO1ZgQUdnED5T60jTaW3QQfYXuus7UBaT3q9PwGA0YGJhdR9FFdx8HsRIeOoZZ6Qjm5m+irvwVpXFlBh9ijUSf2I1r188jyPpZBLZewsDAVCdfv6XQBee2z7ceOrH6mSBl41K4m32AT8gfoM7iVaVOmFIO0iZy8EkH0vG7zQjyBV7rdxoGBuZYpbcRH/t2kxbcRTM1l+U2yPL5Q57MfXJCvIG7+WuKIeGqYpi1En2fdyNNX15C4PwmDAzMQUvDhQWvynAlRBrnw6Q1y+73iFPtzYapSWaRmBLuqH3cbVQnLSh7aH/D4LoOOffz9lq/PzAwMDB7inLww1uYYTaGm2NcVUecATpE+pkgNcssUn7uPjUuLqK90j1VLzPR0PZ0GMG/uozA+U0YGJijmaedKkMg9Fpi9TNBlU6WUZ24iA78wPn2hd8zIMhP1bX+zWBgYGBqlpNN8wGVcUl6lTyVBj7dqGM+VPT+yIFo1keRwcUGZH5++/lDMDAwMDDf5pFS2ZnNqPRCRGVY89R1fGGl2uVziCFBILanCgRZb4CtlzAwMDAwMDAwMDAwMDAwMDAwMDAwMDAwMDAwMDAwMDAwMDAwMDAwMDAwCIL8P4ZGqDekdwRXAAAAAElFTkSuQmCC;" parent="1" vertex="1">
          <mxGeometry x="160" y="60" width="520" height="596" as="geometry" />
        </mxCell>
        <mxCell id="xIAo3yq6IOoFtiyd6Mqy-2" value="" style="endArrow=classic;html=1;exitX=0;exitY=1;exitDx=0;exitDy=0;" parent="1" source="xIAo3yq6IOoFtiyd6Mqy-3" target="xIAo3yq6IOoFtiyd6Mqy-1" edge="1">
          <mxGeometry width="50" height="50" relative="1" as="geometry">
            <mxPoint x="40" y="160" as="sourcePoint" />
            <mxPoint x="440" y="350" as="targetPoint" />
            <Array as="points">
              <mxPoint x="120" y="160" />
            </Array>
          </mxGeometry>
        </mxCell>
        <mxCell id="xIAo3yq6IOoFtiyd6Mqy-3" value="Water" style="text;html=1;strokeColor=none;fillColor=none;align=center;verticalAlign=middle;whiteSpace=wrap;rounded=0;fontSize=24;" parent="1" vertex="1">
          <mxGeometry x="70" y="140" width="40" height="20" as="geometry" />
        </mxCell>
        <mxCell id="xIAo3yq6IOoFtiyd6Mqy-4" value="" style="endArrow=classic;html=1;exitX=0;exitY=0.5;exitDx=0;exitDy=0;" parent="1" source="xIAo3yq6IOoFtiyd6Mqy-9" edge="1">
          <mxGeometry width="50" height="50" relative="1" as="geometry">
            <mxPoint x="320" y="30" as="sourcePoint" />
            <mxPoint x="250" y="180" as="targetPoint" />
            <Array as="points">
              <mxPoint x="190" y="30" />
            </Array>
          </mxGeometry>
        </mxCell>
        <mxCell id="xIAo3yq6IOoFtiyd6Mqy-5" value="" style="endArrow=classic;html=1;exitX=0;exitY=0.5;exitDx=0;exitDy=0;" parent="1" source="xIAo3yq6IOoFtiyd6Mqy-10" edge="1">
          <mxGeometry width="50" height="50" relative="1" as="geometry">
            <mxPoint x="420" y="30" as="sourcePoint" />
            <mxPoint x="340" y="180" as="targetPoint" />
            <Array as="points">
              <mxPoint x="340" y="30" />
            </Array>
          </mxGeometry>
        </mxCell>
        <mxCell id="xIAo3yq6IOoFtiyd6Mqy-6" value="" style="endArrow=classic;html=1;exitX=1;exitY=0.5;exitDx=0;exitDy=0;" parent="1" source="xIAo3yq6IOoFtiyd6Mqy-11" edge="1">
          <mxGeometry width="50" height="50" relative="1" as="geometry">
            <mxPoint x="60" y="320" as="sourcePoint" />
            <mxPoint x="428" y="190" as="targetPoint" />
            <Array as="points">
              <mxPoint x="370" y="30" />
            </Array>
          </mxGeometry>
        </mxCell>
        <mxCell id="xIAo3yq6IOoFtiyd6Mqy-7" value="" style="endArrow=classic;html=1;exitX=1;exitY=0.5;exitDx=0;exitDy=0;" parent="1" source="xIAo3yq6IOoFtiyd6Mqy-12" edge="1">
          <mxGeometry width="50" height="50" relative="1" as="geometry">
            <mxPoint x="590" y="40" as="sourcePoint" />
            <mxPoint x="520" y="190" as="targetPoint" />
            <Array as="points">
              <mxPoint x="600" y="30" />
            </Array>
          </mxGeometry>
        </mxCell>
        <mxCell id="xIAo3yq6IOoFtiyd6Mqy-8" value="" style="endArrow=classic;html=1;startArrow=none;exitX=0.25;exitY=1;exitDx=0;exitDy=0;" parent="1" source="xIAo3yq6IOoFtiyd6Mqy-13" edge="1">
          <mxGeometry width="50" height="50" relative="1" as="geometry">
            <mxPoint x="720" y="150" as="sourcePoint" />
            <mxPoint x="600" y="190" as="targetPoint" />
            <Array as="points" />
          </mxGeometry>
        </mxCell>
        <mxCell id="xIAo3yq6IOoFtiyd6Mqy-9" value="&lt;span class=&quot;cm-string&quot; style=&quot;font-size: 24px;&quot;&gt;&lt;span class=&quot;cm-string&quot; style=&quot;font-size: 24px;&quot;&gt;&lt;span style=&quot;font-size: 24px;&quot;&gt;Bone Cortical (ICRU 44)&lt;/span&gt;&lt;/span&gt;&lt;/span&gt;" style="text;html=1;strokeColor=none;fillColor=none;align=center;verticalAlign=middle;whiteSpace=wrap;rounded=0;fontSize=24;" parent="1" vertex="1">
          <mxGeometry x="40" y="20" width="150" height="20" as="geometry" />
        </mxCell>
        <mxCell id="xIAo3yq6IOoFtiyd6Mqy-10" value="&lt;div style=&quot;font-size: 24px;&quot;&gt;Blood Whole&lt;span class=&quot;cm-string&quot; style=&quot;font-size: 24px;&quot;&gt;&lt;span class=&quot;cm-string&quot; style=&quot;font-size: 24px;&quot;&gt;&lt;span style=&quot;font-size: 24px;&quot;&gt;&lt;br style=&quot;font-size: 24px;&quot;&gt;&lt;/span&gt;&lt;/span&gt;&lt;/span&gt;&lt;/div&gt;&lt;div style=&quot;font-size: 24px;&quot;&gt;&lt;span class=&quot;cm-string&quot; style=&quot;font-size: 24px;&quot;&gt;&lt;span class=&quot;cm-string&quot; style=&quot;font-size: 24px;&quot;&gt;&lt;span style=&quot;font-size: 24px;&quot;&gt;(ICRU 44)&lt;/span&gt;&lt;/span&gt;&lt;/span&gt;&lt;/div&gt;" style="text;html=1;strokeColor=none;fillColor=none;align=center;verticalAlign=middle;whiteSpace=wrap;rounded=0;fontSize=24;" parent="1" vertex="1">
          <mxGeometry x="209" y="20" width="140" height="20" as="geometry" />
        </mxCell>
        <mxCell id="xIAo3yq6IOoFtiyd6Mqy-11" value="&lt;div style=&quot;font-size: 24px&quot;&gt;Brain Grey White&lt;/div&gt;&lt;div style=&quot;font-size: 24px&quot;&gt;Matter&lt;span class=&quot;cm-string&quot; style=&quot;font-size: 24px&quot;&gt;&lt;span class=&quot;cm-string&quot; style=&quot;font-size: 24px&quot;&gt;&lt;span style=&quot;font-size: 24px&quot;&gt;&lt;/span&gt;&lt;span style=&quot;font-size: 24px&quot;&gt;(ICRU 44)&lt;/span&gt;&lt;/span&gt;&lt;/span&gt;&lt;/div&gt;" style="text;html=1;strokeColor=none;fillColor=none;align=center;verticalAlign=middle;whiteSpace=wrap;rounded=0;fontSize=24;" parent="1" vertex="1">
          <mxGeometry x="380" y="20" width="190" height="20" as="geometry" />
        </mxCell>
        <mxCell id="xIAo3yq6IOoFtiyd6Mqy-12" value="&lt;div style=&quot;font-size: 24px;&quot;&gt;Breast Tisue&lt;span class=&quot;cm-string&quot; style=&quot;font-size: 24px;&quot;&gt;&lt;span class=&quot;cm-string&quot; style=&quot;font-size: 24px;&quot;&gt;&lt;span style=&quot;font-size: 24px;&quot;&gt;&lt;br style=&quot;font-size: 24px;&quot;&gt;&lt;/span&gt;&lt;/span&gt;&lt;/span&gt;&lt;/div&gt;&lt;div style=&quot;font-size: 24px;&quot;&gt;&lt;span class=&quot;cm-string&quot; style=&quot;font-size: 24px;&quot;&gt;&lt;span class=&quot;cm-string&quot; style=&quot;font-size: 24px;&quot;&gt;&lt;span style=&quot;font-size: 24px;&quot;&gt;(ICRU 44)&lt;/span&gt;&lt;/span&gt;&lt;/span&gt;&lt;/div&gt;" style="text;html=1;strokeColor=none;fillColor=none;align=center;verticalAlign=middle;whiteSpace=wrap;rounded=0;fontSize=24;" parent="1" vertex="1">
          <mxGeometry x="600" y="20" width="140" height="20" as="geometry" />
        </mxCell>
        <mxCell id="xIAo3yq6IOoFtiyd6Mqy-13" value="&lt;div style=&quot;font-size: 24px;&quot;&gt;Adipose Tisue&lt;span class=&quot;cm-string&quot; style=&quot;font-size: 24px;&quot;&gt;&lt;span class=&quot;cm-string&quot; style=&quot;font-size: 24px;&quot;&gt;&lt;span style=&quot;font-size: 24px;&quot;&gt;&lt;br style=&quot;font-size: 24px;&quot;&gt;&lt;/span&gt;&lt;/span&gt;&lt;/span&gt;&lt;/div&gt;&lt;div style=&quot;font-size: 24px;&quot;&gt;&lt;span class=&quot;cm-string&quot; style=&quot;font-size: 24px;&quot;&gt;&lt;span class=&quot;cm-string&quot; style=&quot;font-size: 24px;&quot;&gt;&lt;span style=&quot;font-size: 24px;&quot;&gt;(ICRU 44)&lt;/span&gt;&lt;/span&gt;&lt;/span&gt;&lt;/div&gt;" style="text;html=1;strokeColor=none;fillColor=none;align=center;verticalAlign=middle;whiteSpace=wrap;rounded=0;fontSize=24;" parent="1" vertex="1">
          <mxGeometry x="650" y="60" width="160" height="60" as="geometry" />
        </mxCell>
      </root>
    </mxGraphModel>
  </diagram>
</mxfile>
